G04*
G04 #@! TF.GenerationSoftware,Altium Limited,Altium Designer,22.5.1 (42)*
G04*
G04 Layer_Physical_Order=2*
G04 Layer_Color=16711680*
%FSLAX44Y44*%
%MOMM*%
G71*
G04*
G04 #@! TF.SameCoordinates,28BCCD68-7A0F-436D-B701-B886F59BC7BE*
G04*
G04*
G04 #@! TF.FilePolarity,Positive*
G04*
G01*
G75*
%ADD13C,0.2540*%
%ADD69C,0.3048*%
%ADD70C,0.6350*%
%ADD71C,0.5080*%
%ADD72C,1.2700*%
%ADD73C,1.9500*%
%ADD74C,1.8000*%
%ADD75C,1.5000*%
%ADD76R,1.9500X1.9500*%
%ADD77C,1.6500*%
%ADD78R,1.5000X1.5000*%
%ADD79C,1.5750*%
%ADD80R,1.5000X1.5000*%
%ADD81C,0.8128*%
%ADD82C,1.2700*%
%ADD83C,0.2540*%
%ADD84C,2.0320*%
G36*
X1511300Y542096D02*
X1454440D01*
X1454367Y542081D01*
X1454136D01*
X1453909Y542036D01*
X1453834D01*
X1453761Y542021D01*
X1453761Y542021D01*
X1453720Y542020D01*
X1453688Y542012D01*
X1453656Y542016D01*
X1453593Y541999D01*
X1453382Y541988D01*
X1453158Y541932D01*
X1453033Y541873D01*
X1453015D01*
X1452945Y541859D01*
X1452741Y541775D01*
X1452720Y541769D01*
X1452506Y541727D01*
X1452460Y541708D01*
X1452333Y541683D01*
X1452270Y541697D01*
X1451008Y543883D01*
X1449139Y545752D01*
X1446849Y547074D01*
X1444296Y547758D01*
X1444244D01*
Y537718D01*
X1441704D01*
Y547758D01*
X1441652D01*
X1439099Y547074D01*
X1436809Y545752D01*
X1434940Y543883D01*
X1434133Y542485D01*
X1434004Y542341D01*
X1433601Y542086D01*
X1432697Y541859D01*
X1432588Y541881D01*
X1432400Y541933D01*
X1432188Y542021D01*
X1432114Y542036D01*
X1431974D01*
X1431865Y542068D01*
X1431722Y542053D01*
X1431508Y542096D01*
X541613D01*
Y657860D01*
X541278Y659545D01*
X540323Y660973D01*
X527623Y673673D01*
X526195Y674628D01*
X524510Y674963D01*
X408224D01*
X399373Y683814D01*
Y723325D01*
X400661Y724613D01*
X401597Y726235D01*
X402082Y728044D01*
Y729916D01*
X401597Y731725D01*
X400661Y733347D01*
X399337Y734671D01*
X397715Y735607D01*
X395906Y736092D01*
X394034D01*
X392225Y735607D01*
X390603Y734671D01*
X389279Y733347D01*
X388343Y731725D01*
X387858Y729916D01*
Y728044D01*
X388343Y726235D01*
X389279Y724613D01*
X390567Y723325D01*
Y681990D01*
X390902Y680305D01*
X391857Y678877D01*
X403287Y667447D01*
X404715Y666492D01*
X406400Y666157D01*
X522686D01*
X532807Y656036D01*
Y542096D01*
X482878D01*
X482392Y543269D01*
X511497Y572374D01*
X512872Y574432D01*
X513355Y576860D01*
Y606384D01*
X513487Y606460D01*
X515451Y608423D01*
X516839Y610829D01*
X517558Y613511D01*
Y616289D01*
X516839Y618971D01*
X515451Y621377D01*
X513487Y623340D01*
X511081Y624729D01*
X508399Y625448D01*
X505621D01*
X502939Y624729D01*
X500533Y623340D01*
X498569Y621377D01*
X497181Y618971D01*
X496462Y616289D01*
Y613511D01*
X497181Y610829D01*
X498569Y608423D01*
X500533Y606460D01*
X500665Y606384D01*
Y579488D01*
X462929Y541752D01*
X461879Y541143D01*
X461799Y541178D01*
X461681Y541275D01*
X461554Y541343D01*
X461240Y541438D01*
X461178Y541482D01*
X461150Y541494D01*
X461083Y541549D01*
X460824Y541687D01*
X460602Y541755D01*
X460591Y541760D01*
X460520Y541782D01*
X460520Y541782D01*
X460461Y541824D01*
X460458Y541825D01*
X460397Y541838D01*
X460366Y541859D01*
X460263Y541880D01*
X460038Y541979D01*
X459884Y542014D01*
X459882Y542015D01*
X459857Y542020D01*
X459715Y542024D01*
X459664Y542039D01*
X459549Y542028D01*
X459275Y542089D01*
X459240Y542083D01*
X459177Y542096D01*
X425317D01*
X424544Y543103D01*
X424688Y543640D01*
Y545512D01*
X424203Y547321D01*
X423267Y548943D01*
X421943Y550267D01*
X420321Y551203D01*
X418512Y551688D01*
X416690D01*
X409813Y558566D01*
Y605262D01*
X411887Y606460D01*
X413851Y608423D01*
X415239Y610829D01*
X415958Y613511D01*
Y616289D01*
X415239Y618971D01*
X413851Y621377D01*
X411887Y623340D01*
X409481Y624729D01*
X406799Y625448D01*
X404021D01*
X401339Y624729D01*
X398933Y623340D01*
X396969Y621377D01*
X395581Y618971D01*
X394862Y616289D01*
Y613511D01*
X395581Y610829D01*
X396969Y608423D01*
X398933Y606460D01*
X401007Y605262D01*
Y556742D01*
X401343Y555057D01*
X402297Y553629D01*
X410464Y545462D01*
Y543640D01*
X410608Y543103D01*
X409835Y542096D01*
X371687D01*
Y607229D01*
X372957Y607755D01*
X373845Y606866D01*
X376135Y605544D01*
X378688Y604860D01*
X378740D01*
Y614900D01*
Y624940D01*
X378688D01*
X376135Y624256D01*
X373845Y622934D01*
X372957Y622045D01*
X371687Y622571D01*
Y744474D01*
X371352Y746159D01*
X370397Y747587D01*
X333613Y784372D01*
Y859262D01*
X335687Y860460D01*
X336809Y861582D01*
X338079Y861056D01*
Y784008D01*
X338414Y782324D01*
X339369Y780895D01*
X377613Y742650D01*
Y699075D01*
X376325Y697787D01*
X375389Y696165D01*
X374904Y694356D01*
Y692484D01*
X375389Y690675D01*
X376325Y689053D01*
X377649Y687729D01*
X379271Y686793D01*
X381080Y686308D01*
X382952D01*
X384761Y686793D01*
X386383Y687729D01*
X387707Y689053D01*
X388643Y690675D01*
X389128Y692484D01*
Y694356D01*
X388643Y696165D01*
X387707Y697787D01*
X386419Y699075D01*
Y744474D01*
X386083Y746159D01*
X385129Y747587D01*
X346884Y785832D01*
Y860049D01*
X348058Y860535D01*
X348133Y860460D01*
X350539Y859071D01*
X353221Y858352D01*
X355999D01*
X358681Y859071D01*
X361087Y860460D01*
X363050Y862423D01*
X364439Y864829D01*
X365158Y867511D01*
Y870289D01*
X364439Y872971D01*
X363050Y875377D01*
X361087Y877340D01*
X359254Y878399D01*
Y904018D01*
X359459Y904137D01*
X360783Y905461D01*
X361719Y907083D01*
X362204Y908892D01*
Y910764D01*
X361719Y912573D01*
X360783Y914195D01*
X359459Y915519D01*
X357837Y916455D01*
X356028Y916940D01*
X354156D01*
X352347Y916455D01*
X350725Y915519D01*
X349401Y914195D01*
X348465Y912573D01*
X347980Y910764D01*
Y910740D01*
X346710Y910614D01*
X346549Y911423D01*
X345595Y912851D01*
X345595Y912851D01*
X314283Y944164D01*
Y965722D01*
X316357Y966919D01*
X318321Y968883D01*
X319709Y971289D01*
X320428Y973971D01*
Y976749D01*
X319709Y979431D01*
X318321Y981837D01*
X316357Y983801D01*
X313951Y985189D01*
X311269Y985908D01*
X308491D01*
X305809Y985189D01*
X303403Y983801D01*
X301439Y981837D01*
X300051Y979431D01*
X299332Y976749D01*
Y973971D01*
X300051Y971289D01*
X301439Y968883D01*
X303403Y966919D01*
X305477Y965722D01*
Y942340D01*
X305812Y940655D01*
X306767Y939227D01*
X338079Y907915D01*
Y876744D01*
X336809Y876218D01*
X335687Y877340D01*
X333281Y878729D01*
X330599Y879448D01*
X327821D01*
X325139Y878729D01*
X322733Y877340D01*
X321903Y876510D01*
X320633Y877036D01*
Y894869D01*
X320298Y896554D01*
X319343Y897982D01*
X288883Y928443D01*
Y965722D01*
X290957Y966919D01*
X292920Y968883D01*
X294309Y971289D01*
X295028Y973971D01*
Y976749D01*
X294309Y979431D01*
X292920Y981837D01*
X290957Y983801D01*
X288551Y985189D01*
X285869Y985908D01*
X283091D01*
X280409Y985189D01*
X278003Y983801D01*
X276040Y981837D01*
X274651Y979431D01*
X273932Y976749D01*
Y973971D01*
X274651Y971289D01*
X276040Y968883D01*
X278003Y966919D01*
X280077Y965722D01*
Y926619D01*
X280413Y924934D01*
X281367Y923506D01*
X311827Y893046D01*
Y877459D01*
X310654Y876973D01*
X310287Y877340D01*
X307881Y878729D01*
X305199Y879448D01*
X302421D01*
X299739Y878729D01*
X297333Y877340D01*
X295369Y875377D01*
X293981Y872971D01*
X293262Y870289D01*
Y867511D01*
X293981Y864829D01*
X295369Y862423D01*
X297333Y860460D01*
X299739Y859071D01*
X300397Y858894D01*
Y756920D01*
X300732Y755235D01*
X301687Y753807D01*
X337227Y718266D01*
Y623459D01*
X336054Y622973D01*
X335687Y623340D01*
X333613Y624538D01*
Y652500D01*
X333278Y654185D01*
X332323Y655613D01*
X317565Y670371D01*
X316137Y671326D01*
X314452Y671661D01*
X249392D01*
X248104Y672949D01*
X246482Y673885D01*
X244673Y674370D01*
X242800D01*
X240991Y673885D01*
X239370Y672949D01*
X238046Y671625D01*
X237109Y670003D01*
X236625Y668194D01*
Y666322D01*
X237109Y664513D01*
X238046Y662891D01*
X239370Y661567D01*
X240991Y660631D01*
X242800Y660146D01*
X244673D01*
X246482Y660631D01*
X248104Y661567D01*
X249392Y662856D01*
X312628D01*
X324807Y650676D01*
Y624538D01*
X322733Y623340D01*
X320770Y621377D01*
X319381Y618971D01*
X318662Y616289D01*
Y613511D01*
X319381Y610829D01*
X320770Y608423D01*
X322733Y606460D01*
X324807Y605262D01*
Y544648D01*
X322958Y542798D01*
X321136D01*
X319327Y542313D01*
X317705Y541377D01*
X316381Y540053D01*
X315445Y538431D01*
X314960Y536622D01*
Y534750D01*
X315445Y532941D01*
X316381Y531319D01*
X317705Y529995D01*
X319327Y529059D01*
X321136Y528574D01*
X323008D01*
X324817Y529059D01*
X326439Y529995D01*
X327763Y531319D01*
X328699Y532941D01*
X329184Y534750D01*
Y536572D01*
X332323Y539711D01*
X333278Y541139D01*
X333613Y542824D01*
Y605262D01*
X335687Y606460D01*
X336054Y606827D01*
X337227Y606341D01*
Y470784D01*
X336755Y470511D01*
X335431Y469187D01*
X334495Y467565D01*
X334010Y465756D01*
Y463884D01*
X334495Y462075D01*
X335431Y460453D01*
X336755Y459129D01*
X338377Y458193D01*
X340186Y457708D01*
X342058D01*
X343867Y458193D01*
X344785Y458723D01*
X346054Y457989D01*
X346032Y439404D01*
X345891Y319912D01*
X345936Y319686D01*
X345936Y319686D01*
X345951Y319611D01*
X345950Y319305D01*
X345995Y319080D01*
X346111Y318798D01*
X346117Y318770D01*
X346123Y318716D01*
X345609Y317820D01*
X345312Y317523D01*
X345273Y317500D01*
X330200D01*
Y12700D01*
X12700D01*
Y647700D01*
X86360D01*
Y833120D01*
X12700D01*
Y1003300D01*
X792008D01*
X792494Y1002127D01*
X787653Y997286D01*
X786277Y995228D01*
X785795Y992800D01*
Y990821D01*
X783352Y989411D01*
X780969Y987028D01*
X779284Y984110D01*
X778412Y980855D01*
Y977485D01*
X779284Y974230D01*
X780969Y971312D01*
X783352Y968929D01*
X784865Y968055D01*
Y859790D01*
X785348Y857362D01*
X786723Y855303D01*
X796207Y845820D01*
X786723Y836337D01*
X785348Y834278D01*
X784865Y831850D01*
Y786218D01*
X777152Y778505D01*
X518248D01*
X513075Y783678D01*
Y787976D01*
X513357Y788465D01*
X513842Y790274D01*
Y792146D01*
X513357Y793955D01*
X513075Y794444D01*
Y816522D01*
X522058Y825505D01*
X547370D01*
X549798Y825988D01*
X551856Y827364D01*
X562016Y837523D01*
X563392Y839582D01*
X563875Y842010D01*
Y946150D01*
X563392Y948578D01*
X562017Y950637D01*
X532807Y979846D01*
X530748Y981222D01*
X528320Y981705D01*
X422028D01*
Y985908D01*
X400932D01*
Y964812D01*
X422028D01*
Y969015D01*
X525692D01*
X551185Y943522D01*
Y844638D01*
X544742Y838195D01*
X519430D01*
X517002Y837712D01*
X514944Y836337D01*
X502243Y823636D01*
X500868Y821578D01*
X500385Y819150D01*
Y794444D01*
X500103Y793955D01*
X499618Y792146D01*
Y790274D01*
X500103Y788465D01*
X500385Y787976D01*
Y781050D01*
X500868Y778622D01*
X502243Y776563D01*
X511133Y767673D01*
X513192Y766298D01*
X515620Y765815D01*
X779780D01*
X782208Y766298D01*
X784267Y767673D01*
X795696Y779103D01*
X797072Y781162D01*
X797555Y783590D01*
Y829222D01*
X807808Y839475D01*
X863512D01*
X881385Y821602D01*
Y797187D01*
X881253Y797111D01*
X879289Y795147D01*
X877901Y792741D01*
X877182Y790059D01*
Y787281D01*
X877901Y784599D01*
X879289Y782193D01*
X881253Y780229D01*
X883659Y778841D01*
X886341Y778122D01*
X889119D01*
X891801Y778841D01*
X894207Y780229D01*
X896171Y782193D01*
X897559Y784599D01*
X898278Y787281D01*
Y790059D01*
X897559Y792741D01*
X896171Y795147D01*
X894207Y797111D01*
X894075Y797187D01*
Y824230D01*
X893592Y826658D01*
X892217Y828717D01*
X870627Y850306D01*
X868568Y851682D01*
X866140Y852165D01*
X807808D01*
X797555Y862418D01*
Y968055D01*
X799068Y968929D01*
X801451Y971312D01*
X803136Y974230D01*
X804008Y977485D01*
Y980855D01*
X803136Y984110D01*
X801451Y987028D01*
X799068Y989411D01*
X799146Y990833D01*
X802728Y994415D01*
X960032D01*
X965229Y989218D01*
Y988408D01*
X963849Y987028D01*
X962164Y984110D01*
X961292Y980855D01*
Y977485D01*
X962164Y974230D01*
X963849Y971312D01*
X966232Y968929D01*
X967745Y968055D01*
Y875030D01*
X968228Y872602D01*
X969604Y870544D01*
X991193Y848953D01*
X993252Y847578D01*
X995680Y847095D01*
X1308012D01*
X1322075Y833032D01*
Y797948D01*
X1317872D01*
Y776852D01*
X1322075D01*
Y703580D01*
X1322558Y701152D01*
X1323934Y699093D01*
X1337903Y685124D01*
X1339962Y683748D01*
X1342390Y683265D01*
X1433442D01*
Y679062D01*
X1454538D01*
Y683265D01*
X1456602D01*
X1466855Y673012D01*
Y627468D01*
X1459650Y620263D01*
X1453522D01*
Y624466D01*
X1432426D01*
Y603370D01*
X1453522D01*
Y607573D01*
X1462278D01*
X1464706Y608056D01*
X1466765Y609431D01*
X1477686Y620354D01*
X1479062Y622412D01*
X1479545Y624840D01*
Y675640D01*
X1479062Y678068D01*
X1477686Y680127D01*
X1463716Y694097D01*
X1461658Y695472D01*
X1459230Y695955D01*
X1454538D01*
Y700158D01*
X1433442D01*
Y695955D01*
X1345018D01*
X1334765Y706208D01*
Y776852D01*
X1338968D01*
Y797948D01*
X1334765D01*
Y835660D01*
X1334282Y838088D01*
X1332906Y840147D01*
X1315126Y857926D01*
X1313068Y859302D01*
X1310640Y859785D01*
X998308D01*
X980435Y877658D01*
Y968055D01*
X981948Y968929D01*
X984331Y971312D01*
X986016Y974230D01*
X986888Y977485D01*
Y980855D01*
X986016Y984110D01*
X984331Y987028D01*
X981948Y989411D01*
X979030Y991096D01*
X977919Y991394D01*
Y991846D01*
X977436Y994274D01*
X976060Y996333D01*
X970266Y1002127D01*
X970752Y1003300D01*
X1511300D01*
Y542096D01*
D02*
G37*
G36*
Y318465D02*
X1511298Y318464D01*
X1510030Y317569D01*
X1475663Y317629D01*
X349077Y319602D01*
X349043Y319683D01*
X348999Y319908D01*
X349140Y439401D01*
X349162Y457985D01*
X349258Y538988D01*
X362881D01*
Y489458D01*
X363217Y487773D01*
X364171Y486345D01*
X390297Y460219D01*
X391725Y459265D01*
X393410Y458930D01*
X393410Y458930D01*
X519268D01*
X520556Y457641D01*
X522178Y456705D01*
X523987Y456220D01*
X525859D01*
X527668Y456705D01*
X529290Y457641D01*
X530614Y458965D01*
X531550Y460587D01*
X532035Y462396D01*
Y464269D01*
X531550Y466077D01*
X530614Y467699D01*
X529290Y469023D01*
X527668Y469960D01*
X525859Y470444D01*
X523987D01*
X522178Y469960D01*
X520556Y469023D01*
X519268Y467735D01*
X395233D01*
X371687Y491282D01*
Y538988D01*
X413106D01*
X413209Y538885D01*
X414831Y537949D01*
X416640Y537464D01*
X418512D01*
X420321Y537949D01*
X421943Y538885D01*
X422046Y538988D01*
X459177D01*
X459202Y538982D01*
X459204Y538981D01*
X459359Y538947D01*
X459618Y538808D01*
X459689Y538787D01*
X459859Y538667D01*
X459920Y538640D01*
X460089Y538602D01*
X460216Y538534D01*
X460387Y537323D01*
X460203Y536398D01*
Y502847D01*
X473279D01*
X472936Y504126D01*
X472893Y504201D01*
Y533770D01*
X478111Y538988D01*
X532807D01*
Y535478D01*
X529714Y532384D01*
X527892D01*
X526083Y531899D01*
X524461Y530963D01*
X523137Y529639D01*
X522201Y528017D01*
X521716Y526208D01*
Y524336D01*
X522201Y522527D01*
X523137Y520905D01*
X524461Y519581D01*
X526083Y518645D01*
X527892Y518160D01*
X529764D01*
X531573Y518645D01*
X533195Y519581D01*
X534519Y520905D01*
X535455Y522527D01*
X535940Y524336D01*
Y526158D01*
X540323Y530541D01*
X540323Y530541D01*
X541278Y531969D01*
X541613Y533654D01*
Y538988D01*
X1431508D01*
X1431581Y538973D01*
X1432426Y537958D01*
Y536329D01*
X1433145Y533647D01*
X1434534Y531241D01*
X1436497Y529277D01*
X1438903Y527889D01*
X1441585Y527170D01*
X1444363D01*
X1447045Y527889D01*
X1449451Y529277D01*
X1451414Y531241D01*
X1452803Y533647D01*
X1453522Y536329D01*
Y538811D01*
X1453552D01*
X1453622Y538825D01*
X1453696Y538856D01*
X1453761Y538861D01*
X1453871Y538915D01*
X1453912Y538917D01*
X1454136Y538973D01*
X1454367D01*
X1454440Y538988D01*
X1511300D01*
Y318465D01*
D02*
G37*
G36*
X1475657Y314521D02*
X1510025Y314461D01*
X1510030Y314462D01*
X1510862Y313990D01*
X1511174Y313651D01*
X1511300Y313408D01*
Y15240D01*
X1508760Y12700D01*
X1435100D01*
Y313694D01*
X1435999Y314591D01*
X1475657Y314521D01*
D02*
G37*
%LPC*%
G36*
X875708Y991460D02*
X875360D01*
Y980440D01*
X886380D01*
Y980788D01*
X885543Y983914D01*
X883924Y986716D01*
X881636Y989004D01*
X878834Y990622D01*
X875708Y991460D01*
D02*
G37*
G36*
X692828D02*
X692480D01*
Y980440D01*
X703500D01*
Y980788D01*
X702663Y983914D01*
X701044Y986716D01*
X698756Y989004D01*
X695954Y990622D01*
X692828Y991460D01*
D02*
G37*
G36*
X872820D02*
X872472D01*
X869346Y990622D01*
X866544Y989004D01*
X864256Y986716D01*
X862637Y983914D01*
X861800Y980788D01*
Y980440D01*
X872820D01*
Y991460D01*
D02*
G37*
G36*
X689940D02*
X689592D01*
X686466Y990622D01*
X683664Y989004D01*
X681376Y986716D01*
X679758Y983914D01*
X678920Y980788D01*
Y980440D01*
X689940D01*
Y991460D01*
D02*
G37*
G36*
X387402Y985400D02*
X387350D01*
Y976630D01*
X396120D01*
Y976682D01*
X395436Y979235D01*
X394114Y981525D01*
X392245Y983394D01*
X389955Y984716D01*
X387402Y985400D01*
D02*
G37*
G36*
X1059429Y986900D02*
X1059180D01*
Y976630D01*
X1069450D01*
Y976879D01*
X1068663Y979814D01*
X1067144Y982446D01*
X1064996Y984594D01*
X1062364Y986114D01*
X1059429Y986900D01*
D02*
G37*
G36*
X384810Y985400D02*
X384758D01*
X382205Y984716D01*
X379915Y983394D01*
X378046Y981525D01*
X376724Y979235D01*
X376040Y976682D01*
Y976630D01*
X384810D01*
Y985400D01*
D02*
G37*
G36*
X1056640Y986900D02*
X1056391D01*
X1053456Y986114D01*
X1050824Y984594D01*
X1048676Y982446D01*
X1047157Y979814D01*
X1046370Y976879D01*
Y976630D01*
X1056640D01*
Y986900D01*
D02*
G37*
G36*
X115163Y976419D02*
X115062D01*
Y967274D01*
X124207D01*
Y967375D01*
X123497Y970024D01*
X122126Y972399D01*
X120187Y974338D01*
X117812Y975709D01*
X115163Y976419D01*
D02*
G37*
G36*
X50163D02*
X50062D01*
Y967274D01*
X59207D01*
Y967375D01*
X58497Y970024D01*
X57126Y972399D01*
X55187Y974338D01*
X52812Y975709D01*
X50163Y976419D01*
D02*
G37*
G36*
X112522D02*
X112421D01*
X109772Y975709D01*
X107397Y974338D01*
X105458Y972399D01*
X104087Y970024D01*
X103377Y967375D01*
Y967274D01*
X112522D01*
Y976419D01*
D02*
G37*
G36*
X47522D02*
X47421D01*
X44772Y975709D01*
X42397Y974338D01*
X40458Y972399D01*
X39087Y970024D01*
X38377Y967375D01*
Y967274D01*
X47522D01*
Y976419D01*
D02*
G37*
G36*
X886380Y977900D02*
X875360D01*
Y966880D01*
X875708D01*
X878834Y967718D01*
X881636Y969336D01*
X883924Y971624D01*
X885543Y974426D01*
X886380Y977552D01*
Y977900D01*
D02*
G37*
G36*
X872820D02*
X861800D01*
Y977552D01*
X862637Y974426D01*
X864256Y971624D01*
X866544Y969336D01*
X869346Y967718D01*
X872472Y966880D01*
X872820D01*
Y977900D01*
D02*
G37*
G36*
X703500D02*
X692480D01*
Y966880D01*
X692828D01*
X695954Y967718D01*
X698756Y969336D01*
X701044Y971624D01*
X702663Y974426D01*
X703500Y977552D01*
Y977900D01*
D02*
G37*
G36*
X689940D02*
X678920D01*
Y977552D01*
X679758Y974426D01*
X681376Y971624D01*
X683664Y969336D01*
X686466Y967718D01*
X689592Y966880D01*
X689940D01*
Y977900D01*
D02*
G37*
G36*
X925775Y991968D02*
X922405D01*
X919150Y991096D01*
X916232Y989411D01*
X913849Y987028D01*
X912164Y984110D01*
X911292Y980855D01*
Y977485D01*
X912164Y974230D01*
X913849Y971312D01*
X916232Y968929D01*
X919150Y967244D01*
X922405Y966372D01*
X925775D01*
X929030Y967244D01*
X931948Y968929D01*
X934331Y971312D01*
X936016Y974230D01*
X936888Y977485D01*
Y980855D01*
X936016Y984110D01*
X934331Y987028D01*
X931948Y989411D01*
X929030Y991096D01*
X925775Y991968D01*
D02*
G37*
G36*
X742895D02*
X739525D01*
X736270Y991096D01*
X733352Y989411D01*
X730969Y987028D01*
X729284Y984110D01*
X728412Y980855D01*
Y977485D01*
X729284Y974230D01*
X730969Y971312D01*
X733352Y968929D01*
X736270Y967244D01*
X739525Y966372D01*
X742895D01*
X746150Y967244D01*
X749068Y968929D01*
X751451Y971312D01*
X753136Y974230D01*
X754008Y977485D01*
Y980855D01*
X753136Y984110D01*
X751451Y987028D01*
X749068Y989411D01*
X746150Y991096D01*
X742895Y991968D01*
D02*
G37*
G36*
X396120Y974090D02*
X387350D01*
Y965320D01*
X387402D01*
X389955Y966004D01*
X392245Y967326D01*
X394114Y969195D01*
X395436Y971485D01*
X396120Y974038D01*
Y974090D01*
D02*
G37*
G36*
X384810D02*
X376040D01*
Y974038D01*
X376724Y971485D01*
X378046Y969195D01*
X379915Y967326D01*
X382205Y966004D01*
X384758Y965320D01*
X384810D01*
Y974090D01*
D02*
G37*
G36*
X362069Y985908D02*
X359291D01*
X356609Y985189D01*
X354203Y983801D01*
X352239Y981837D01*
X350851Y979431D01*
X350132Y976749D01*
Y973971D01*
X350851Y971289D01*
X352239Y968883D01*
X354203Y966919D01*
X356609Y965531D01*
X359291Y964812D01*
X362069D01*
X364751Y965531D01*
X367157Y966919D01*
X369120Y968883D01*
X370509Y971289D01*
X371228Y973971D01*
Y976749D01*
X370509Y979431D01*
X369120Y981837D01*
X367157Y983801D01*
X364751Y985189D01*
X362069Y985908D01*
D02*
G37*
G36*
X336669D02*
X333891D01*
X331209Y985189D01*
X328803Y983801D01*
X326839Y981837D01*
X325451Y979431D01*
X324732Y976749D01*
Y973971D01*
X325451Y971289D01*
X326839Y968883D01*
X328803Y966919D01*
X331209Y965531D01*
X333891Y964812D01*
X336669D01*
X339351Y965531D01*
X341757Y966919D01*
X343721Y968883D01*
X345109Y971289D01*
X345828Y973971D01*
Y976749D01*
X345109Y979431D01*
X343721Y981837D01*
X341757Y983801D01*
X339351Y985189D01*
X336669Y985908D01*
D02*
G37*
G36*
X1069450Y974090D02*
X1059180D01*
Y963820D01*
X1059429D01*
X1062364Y964606D01*
X1064996Y966126D01*
X1067144Y968274D01*
X1068663Y970906D01*
X1069450Y973841D01*
Y974090D01*
D02*
G37*
G36*
X1056640D02*
X1046370D01*
Y973841D01*
X1047157Y970906D01*
X1048676Y968274D01*
X1050824Y966126D01*
X1053456Y964606D01*
X1056391Y963820D01*
X1056640D01*
Y974090D01*
D02*
G37*
G36*
X1262696Y987408D02*
X1259524D01*
X1256460Y986587D01*
X1253712Y985001D01*
X1251469Y982758D01*
X1249883Y980010D01*
X1249062Y976946D01*
Y973774D01*
X1249883Y970710D01*
X1251469Y967962D01*
X1253712Y965719D01*
X1256460Y964133D01*
X1259524Y963312D01*
X1262696D01*
X1265760Y964133D01*
X1268508Y965719D01*
X1270751Y967962D01*
X1272337Y970710D01*
X1273158Y973774D01*
Y976946D01*
X1272337Y980010D01*
X1270751Y982758D01*
X1268508Y985001D01*
X1265760Y986587D01*
X1262696Y987408D01*
D02*
G37*
G36*
X1211896D02*
X1208724D01*
X1205660Y986587D01*
X1202912Y985001D01*
X1200669Y982758D01*
X1199083Y980010D01*
X1198262Y976946D01*
Y973774D01*
X1199083Y970710D01*
X1200669Y967962D01*
X1202912Y965719D01*
X1205660Y964133D01*
X1208724Y963312D01*
X1211896D01*
X1214960Y964133D01*
X1217708Y965719D01*
X1219951Y967962D01*
X1221537Y970710D01*
X1222358Y973774D01*
Y976946D01*
X1221537Y980010D01*
X1219951Y982758D01*
X1217708Y985001D01*
X1214960Y986587D01*
X1211896Y987408D01*
D02*
G37*
G36*
X1161096D02*
X1157924D01*
X1154860Y986587D01*
X1152112Y985001D01*
X1149869Y982758D01*
X1148283Y980010D01*
X1147462Y976946D01*
Y973774D01*
X1148283Y970710D01*
X1149869Y967962D01*
X1152112Y965719D01*
X1154860Y964133D01*
X1157924Y963312D01*
X1161096D01*
X1164160Y964133D01*
X1166908Y965719D01*
X1169151Y967962D01*
X1170737Y970710D01*
X1171558Y973774D01*
Y976946D01*
X1170737Y980010D01*
X1169151Y982758D01*
X1166908Y985001D01*
X1164160Y986587D01*
X1161096Y987408D01*
D02*
G37*
G36*
X1110296D02*
X1107124D01*
X1104060Y986587D01*
X1101312Y985001D01*
X1099069Y982758D01*
X1097483Y980010D01*
X1096662Y976946D01*
Y973774D01*
X1097483Y970710D01*
X1099069Y967962D01*
X1101312Y965719D01*
X1104060Y964133D01*
X1107124Y963312D01*
X1110296D01*
X1113360Y964133D01*
X1116108Y965719D01*
X1118351Y967962D01*
X1119937Y970710D01*
X1120758Y973774D01*
Y976946D01*
X1119937Y980010D01*
X1118351Y982758D01*
X1116108Y985001D01*
X1113360Y986587D01*
X1110296Y987408D01*
D02*
G37*
G36*
X124207Y964734D02*
X115062D01*
Y955589D01*
X115163D01*
X117812Y956299D01*
X120187Y957670D01*
X122126Y959609D01*
X123497Y961984D01*
X124207Y964633D01*
Y964734D01*
D02*
G37*
G36*
X112522D02*
X103377D01*
Y964633D01*
X104087Y961984D01*
X105458Y959609D01*
X107397Y957670D01*
X109772Y956299D01*
X112421Y955589D01*
X112522D01*
Y964734D01*
D02*
G37*
G36*
X59207D02*
X50062D01*
Y955589D01*
X50163D01*
X52812Y956299D01*
X55187Y957670D01*
X57126Y959609D01*
X58497Y961984D01*
X59207Y964633D01*
Y964734D01*
D02*
G37*
G36*
X47522D02*
X38377D01*
Y964633D01*
X39087Y961984D01*
X40458Y959609D01*
X42397Y957670D01*
X44772Y956299D01*
X47421Y955589D01*
X47522D01*
Y964734D01*
D02*
G37*
G36*
X181022Y959612D02*
X179150D01*
X177341Y959127D01*
X175719Y958191D01*
X174395Y956867D01*
X173459Y955245D01*
X172974Y953436D01*
Y952122D01*
X122897Y902045D01*
X121943Y900617D01*
X121607Y898932D01*
Y878538D01*
X119533Y877340D01*
X117570Y875377D01*
X116181Y872971D01*
X115462Y870289D01*
Y867511D01*
X116181Y864829D01*
X117570Y862423D01*
X119533Y860460D01*
X121939Y859071D01*
X124621Y858352D01*
X127399D01*
X130081Y859071D01*
X132487Y860460D01*
X134451Y862423D01*
X135839Y864829D01*
X136558Y867511D01*
Y870289D01*
X135839Y872971D01*
X134451Y875377D01*
X132487Y877340D01*
X130413Y878538D01*
Y897108D01*
X178789Y945485D01*
X179150Y945388D01*
X181022D01*
X182831Y945873D01*
X184453Y946809D01*
X185777Y948133D01*
X186713Y949755D01*
X187198Y951564D01*
Y953436D01*
X186713Y955245D01*
X185777Y956867D01*
X184453Y958191D01*
X182831Y959127D01*
X181022Y959612D01*
D02*
G37*
G36*
X201088Y949960D02*
X199216D01*
X197407Y949475D01*
X195785Y948539D01*
X194461Y947215D01*
X193525Y945593D01*
X193040Y943784D01*
Y942724D01*
X148297Y897981D01*
X147343Y896553D01*
X147007Y894868D01*
Y878538D01*
X144933Y877340D01*
X142970Y875377D01*
X141581Y872971D01*
X140862Y870289D01*
Y867511D01*
X141581Y864829D01*
X142970Y862423D01*
X144933Y860460D01*
X147339Y859071D01*
X150021Y858352D01*
X152799D01*
X155481Y859071D01*
X157887Y860460D01*
X159851Y862423D01*
X161239Y864829D01*
X161958Y867511D01*
Y870289D01*
X161239Y872971D01*
X159851Y875377D01*
X157887Y877340D01*
X155813Y878538D01*
Y893044D01*
X198654Y935886D01*
X199216Y935736D01*
X201088D01*
X202897Y936221D01*
X204519Y937157D01*
X205843Y938481D01*
X206779Y940103D01*
X207264Y941912D01*
Y943784D01*
X206779Y945593D01*
X205843Y947215D01*
X204519Y948539D01*
X202897Y949475D01*
X201088Y949960D01*
D02*
G37*
G36*
X115230Y931927D02*
X112354D01*
X109576Y931183D01*
X107085Y929745D01*
X105051Y927711D01*
X103721Y925407D01*
X58863D01*
X57533Y927711D01*
X55499Y929745D01*
X53008Y931183D01*
X50230Y931927D01*
X47354D01*
X44576Y931183D01*
X42085Y929745D01*
X40051Y927711D01*
X38613Y925220D01*
X37869Y922442D01*
Y919566D01*
X38613Y916788D01*
X40051Y914297D01*
X42085Y912263D01*
X44576Y910825D01*
X47354Y910081D01*
X50230D01*
X53008Y910825D01*
X55499Y912263D01*
X57533Y914297D01*
X58863Y916601D01*
X103721D01*
X105051Y914297D01*
X107085Y912263D01*
X109576Y910825D01*
X112354Y910081D01*
X115230D01*
X118008Y910825D01*
X120499Y912263D01*
X122533Y914297D01*
X123971Y916788D01*
X124715Y919566D01*
Y922442D01*
X123971Y925220D01*
X122533Y927711D01*
X120499Y929745D01*
X118008Y931183D01*
X115230Y931927D01*
D02*
G37*
G36*
X1452368Y970048D02*
X1447632D01*
X1442986Y969124D01*
X1438609Y967311D01*
X1434670Y964679D01*
X1431321Y961330D01*
X1428689Y957391D01*
X1426876Y953015D01*
X1425952Y948369D01*
Y943632D01*
X1426876Y938985D01*
X1428689Y934609D01*
X1431321Y930670D01*
X1434670Y927321D01*
X1438609Y924689D01*
X1442986Y922876D01*
X1447632Y921952D01*
X1452368D01*
X1457014Y922876D01*
X1461391Y924689D01*
X1465330Y927321D01*
X1468679Y930670D01*
X1471311Y934609D01*
X1473124Y938985D01*
X1474048Y943632D01*
Y948369D01*
X1473124Y953015D01*
X1471311Y957391D01*
X1468679Y961330D01*
X1465330Y964679D01*
X1461391Y967311D01*
X1457014Y969124D01*
X1452368Y970048D01*
D02*
G37*
G36*
X203532Y878940D02*
X203480D01*
Y870170D01*
X212250D01*
Y870222D01*
X211566Y872775D01*
X210244Y875065D01*
X208375Y876934D01*
X206085Y878256D01*
X203532Y878940D01*
D02*
G37*
G36*
X200940D02*
X200888D01*
X198335Y878256D01*
X196045Y876934D01*
X194176Y875065D01*
X192854Y872775D01*
X192170Y870222D01*
Y870170D01*
X200940D01*
Y878940D01*
D02*
G37*
G36*
X59850D02*
X51080D01*
Y870170D01*
X59850D01*
Y878940D01*
D02*
G37*
G36*
X48540D02*
X39770D01*
Y870170D01*
X48540D01*
Y878940D01*
D02*
G37*
G36*
X212250Y867630D02*
X203480D01*
Y858860D01*
X203532D01*
X206085Y859544D01*
X208375Y860866D01*
X210244Y862735D01*
X211566Y865025D01*
X212250Y867578D01*
Y867630D01*
D02*
G37*
G36*
X200940D02*
X192170D01*
Y867578D01*
X192854Y865025D01*
X194176Y862735D01*
X196045Y860866D01*
X198335Y859544D01*
X200888Y858860D01*
X200940D01*
Y867630D01*
D02*
G37*
G36*
X59850D02*
X51080D01*
Y858860D01*
X59850D01*
Y867630D01*
D02*
G37*
G36*
X48540D02*
X39770D01*
Y858860D01*
X48540D01*
Y867630D01*
D02*
G37*
G36*
X508399Y879448D02*
X505621D01*
X502939Y878729D01*
X500533Y877340D01*
X498569Y875377D01*
X497181Y872971D01*
X496462Y870289D01*
Y867511D01*
X497181Y864829D01*
X498569Y862423D01*
X500533Y860460D01*
X502939Y859071D01*
X505621Y858352D01*
X508399D01*
X511081Y859071D01*
X513487Y860460D01*
X515451Y862423D01*
X516839Y864829D01*
X517558Y867511D01*
Y870289D01*
X516839Y872971D01*
X515451Y875377D01*
X513487Y877340D01*
X511081Y878729D01*
X508399Y879448D01*
D02*
G37*
G36*
X482999D02*
X480221D01*
X477539Y878729D01*
X475133Y877340D01*
X473170Y875377D01*
X471781Y872971D01*
X471062Y870289D01*
Y867511D01*
X471781Y864829D01*
X473170Y862423D01*
X475133Y860460D01*
X477539Y859071D01*
X480221Y858352D01*
X482999D01*
X485681Y859071D01*
X488087Y860460D01*
X490051Y862423D01*
X491439Y864829D01*
X492158Y867511D01*
Y870289D01*
X491439Y872971D01*
X490051Y875377D01*
X488087Y877340D01*
X485681Y878729D01*
X482999Y879448D01*
D02*
G37*
G36*
X457599D02*
X454821D01*
X452139Y878729D01*
X449733Y877340D01*
X447770Y875377D01*
X446381Y872971D01*
X445662Y870289D01*
Y867511D01*
X446381Y864829D01*
X447770Y862423D01*
X449733Y860460D01*
X452139Y859071D01*
X454821Y858352D01*
X457599D01*
X460281Y859071D01*
X462687Y860460D01*
X464650Y862423D01*
X466039Y864829D01*
X466758Y867511D01*
Y870289D01*
X466039Y872971D01*
X464650Y875377D01*
X462687Y877340D01*
X460281Y878729D01*
X457599Y879448D01*
D02*
G37*
G36*
X432199D02*
X429421D01*
X426739Y878729D01*
X424333Y877340D01*
X422369Y875377D01*
X420981Y872971D01*
X420262Y870289D01*
Y867511D01*
X420981Y864829D01*
X422369Y862423D01*
X424333Y860460D01*
X426739Y859071D01*
X429421Y858352D01*
X432199D01*
X434881Y859071D01*
X437287Y860460D01*
X439250Y862423D01*
X440639Y864829D01*
X441358Y867511D01*
Y870289D01*
X440639Y872971D01*
X439250Y875377D01*
X437287Y877340D01*
X434881Y878729D01*
X432199Y879448D01*
D02*
G37*
G36*
X406799D02*
X404021D01*
X401339Y878729D01*
X398933Y877340D01*
X396969Y875377D01*
X395581Y872971D01*
X394862Y870289D01*
Y867511D01*
X395581Y864829D01*
X396969Y862423D01*
X398933Y860460D01*
X401339Y859071D01*
X404021Y858352D01*
X406799D01*
X409481Y859071D01*
X411887Y860460D01*
X413851Y862423D01*
X415239Y864829D01*
X415958Y867511D01*
Y870289D01*
X415239Y872971D01*
X413851Y875377D01*
X411887Y877340D01*
X409481Y878729D01*
X406799Y879448D01*
D02*
G37*
G36*
X190166Y918464D02*
X188294D01*
X186485Y917979D01*
X184863Y917043D01*
X183539Y915719D01*
X182603Y914097D01*
X182118Y912288D01*
Y910466D01*
X175195Y903543D01*
X174240Y902115D01*
X173905Y900430D01*
Y879042D01*
X172739Y878729D01*
X170333Y877340D01*
X168370Y875377D01*
X166981Y872971D01*
X166262Y870289D01*
Y867511D01*
X166981Y864829D01*
X168370Y862423D01*
X170333Y860460D01*
X172739Y859071D01*
X175421Y858352D01*
X178199D01*
X180881Y859071D01*
X183287Y860460D01*
X185250Y862423D01*
X186639Y864829D01*
X187358Y867511D01*
Y870289D01*
X186639Y872971D01*
X185250Y875377D01*
X183287Y877340D01*
X182711Y877673D01*
Y898606D01*
X188344Y904240D01*
X190166D01*
X191975Y904725D01*
X193597Y905661D01*
X194921Y906985D01*
X195857Y908607D01*
X196342Y910416D01*
Y912288D01*
X195857Y914097D01*
X194921Y915719D01*
X193597Y917043D01*
X191975Y917979D01*
X190166Y918464D01*
D02*
G37*
G36*
X101999Y879448D02*
X99221D01*
X96539Y878729D01*
X94133Y877340D01*
X92170Y875377D01*
X90781Y872971D01*
X90062Y870289D01*
Y867511D01*
X90781Y864829D01*
X92170Y862423D01*
X94133Y860460D01*
X96539Y859071D01*
X99221Y858352D01*
X101999D01*
X104681Y859071D01*
X107087Y860460D01*
X109051Y862423D01*
X110439Y864829D01*
X111158Y867511D01*
Y870289D01*
X110439Y872971D01*
X109051Y875377D01*
X107087Y877340D01*
X104681Y878729D01*
X101999Y879448D01*
D02*
G37*
G36*
X76599D02*
X73821D01*
X71139Y878729D01*
X68733Y877340D01*
X66769Y875377D01*
X65381Y872971D01*
X64662Y870289D01*
Y867511D01*
X65381Y864829D01*
X66769Y862423D01*
X68733Y860460D01*
X71139Y859071D01*
X73821Y858352D01*
X76599D01*
X79281Y859071D01*
X81687Y860460D01*
X83651Y862423D01*
X85039Y864829D01*
X85758Y867511D01*
Y870289D01*
X85039Y872971D01*
X83651Y875377D01*
X81687Y877340D01*
X79281Y878729D01*
X76599Y879448D01*
D02*
G37*
G36*
X254682Y918972D02*
X252810D01*
X251001Y918487D01*
X249379Y917551D01*
X248055Y916227D01*
X247119Y914605D01*
X246634Y912796D01*
Y910924D01*
X247119Y909115D01*
X248055Y907493D01*
X248975Y906573D01*
Y878739D01*
X248939Y878729D01*
X246533Y877340D01*
X244569Y875377D01*
X243181Y872971D01*
X242462Y870289D01*
Y867511D01*
X243181Y864829D01*
X243917Y863553D01*
X238054Y857690D01*
X231436D01*
X231269Y858960D01*
X231681Y859071D01*
X234087Y860460D01*
X236050Y862423D01*
X237439Y864829D01*
X238158Y867511D01*
Y870289D01*
X237439Y872971D01*
X236050Y875377D01*
X234087Y877340D01*
X231681Y878729D01*
X228999Y879448D01*
X226221D01*
X223539Y878729D01*
X221133Y877340D01*
X219170Y875377D01*
X217781Y872971D01*
X217062Y870289D01*
Y867511D01*
X217781Y864829D01*
X219170Y862423D01*
X221133Y860460D01*
X223539Y859071D01*
X223951Y858960D01*
X223784Y857690D01*
X204318D01*
X202633Y857355D01*
X201205Y856401D01*
X193926Y849122D01*
X192104D01*
X190295Y848637D01*
X188673Y847701D01*
X187349Y846377D01*
X186413Y844755D01*
X185928Y842946D01*
Y841074D01*
X186413Y839265D01*
X187349Y837643D01*
X188673Y836319D01*
X190295Y835383D01*
X192104Y834898D01*
X193976D01*
X195785Y835383D01*
X197407Y836319D01*
X198731Y837643D01*
X199292Y838614D01*
X200758D01*
X201319Y837643D01*
X202643Y836319D01*
X204265Y835383D01*
X206074Y834898D01*
X207946D01*
X209755Y835383D01*
X211377Y836319D01*
X212665Y837607D01*
X254254D01*
X255939Y837943D01*
X257367Y838897D01*
X276864Y858394D01*
X277021Y858352D01*
X279799D01*
X282481Y859071D01*
X284887Y860460D01*
X286850Y862423D01*
X288239Y864829D01*
X288958Y867511D01*
Y870289D01*
X288239Y872971D01*
X286850Y875377D01*
X284887Y877340D01*
X282481Y878729D01*
X279799Y879448D01*
X277021D01*
X274339Y878729D01*
X271933Y877340D01*
X269970Y875377D01*
X268581Y872971D01*
X267862Y870289D01*
Y867511D01*
X268581Y864829D01*
X269410Y863392D01*
X252430Y846413D01*
X212665D01*
X211463Y847615D01*
X211499Y847997D01*
X211866Y848885D01*
X239878D01*
X241563Y849220D01*
X242991Y850175D01*
X251264Y858448D01*
X251621Y858352D01*
X254399D01*
X257081Y859071D01*
X259487Y860460D01*
X261451Y862423D01*
X262839Y864829D01*
X263558Y867511D01*
Y870289D01*
X262839Y872971D01*
X261451Y875377D01*
X259487Y877340D01*
X257781Y878325D01*
Y905977D01*
X258113Y906169D01*
X259437Y907493D01*
X260373Y909115D01*
X260858Y910924D01*
Y912796D01*
X260373Y914605D01*
X259437Y916227D01*
X258113Y917551D01*
X256491Y918487D01*
X254682Y918972D01*
D02*
G37*
G36*
X80314Y850276D02*
Y845049D01*
X85540D01*
X85197Y846328D01*
X84328Y847834D01*
X83098Y849063D01*
X81593Y849933D01*
X80314Y850276D01*
D02*
G37*
G36*
X77773D02*
X76494Y849933D01*
X74988Y849063D01*
X73759Y847834D01*
X72889Y846328D01*
X72547Y845049D01*
X77773D01*
Y850276D01*
D02*
G37*
G36*
X85540Y842509D02*
X80314D01*
Y837282D01*
X81593Y837625D01*
X83098Y838494D01*
X84328Y839724D01*
X85197Y841230D01*
X85540Y842509D01*
D02*
G37*
G36*
X77773D02*
X72547D01*
X72889Y841230D01*
X73759Y839724D01*
X74988Y838494D01*
X76494Y837625D01*
X77773Y837282D01*
Y842509D01*
D02*
G37*
G36*
X1445312Y801250D02*
X1445260D01*
Y792480D01*
X1454030D01*
Y792532D01*
X1453346Y795085D01*
X1452024Y797375D01*
X1450155Y799244D01*
X1447865Y800566D01*
X1445312Y801250D01*
D02*
G37*
G36*
X1442720D02*
X1442668D01*
X1440115Y800566D01*
X1437825Y799244D01*
X1435956Y797375D01*
X1434634Y795085D01*
X1433950Y792532D01*
Y792480D01*
X1442720D01*
Y801250D01*
D02*
G37*
G36*
X467416Y797561D02*
Y792334D01*
X472643D01*
X472300Y793613D01*
X471431Y795119D01*
X470201Y796349D01*
X468695Y797218D01*
X467416Y797561D01*
D02*
G37*
G36*
X464876D02*
X463597Y797218D01*
X462091Y796349D01*
X460862Y795119D01*
X459992Y793613D01*
X459649Y792334D01*
X464876D01*
Y797561D01*
D02*
G37*
G36*
X863652Y798710D02*
X863600D01*
Y789940D01*
X872370D01*
Y789992D01*
X871686Y792545D01*
X870364Y794835D01*
X868495Y796704D01*
X866205Y798026D01*
X863652Y798710D01*
D02*
G37*
G36*
X861060D02*
X861008D01*
X858455Y798026D01*
X856165Y796704D01*
X854296Y794835D01*
X852974Y792545D01*
X852290Y789992D01*
Y789940D01*
X861060D01*
Y798710D01*
D02*
G37*
G36*
X1304342Y797440D02*
X1304290D01*
Y788670D01*
X1313060D01*
Y788722D01*
X1312376Y791275D01*
X1311054Y793565D01*
X1309185Y795434D01*
X1306895Y796756D01*
X1304342Y797440D01*
D02*
G37*
G36*
X862330Y788670D02*
D01*
D01*
D01*
D02*
G37*
G36*
X1301750Y797440D02*
X1301698D01*
X1299145Y796756D01*
X1296855Y795434D01*
X1294986Y793565D01*
X1293664Y791275D01*
X1292980Y788722D01*
Y788670D01*
X1301750D01*
Y797440D01*
D02*
G37*
G36*
X472643Y789794D02*
X467416D01*
Y784568D01*
X468695Y784910D01*
X470201Y785780D01*
X471431Y787009D01*
X472300Y788515D01*
X472643Y789794D01*
D02*
G37*
G36*
X464876D02*
X459649D01*
X459992Y788515D01*
X460862Y787009D01*
X462091Y785780D01*
X463597Y784910D01*
X464876Y784568D01*
Y789794D01*
D02*
G37*
G36*
X1454030Y789940D02*
X1445260D01*
Y781170D01*
X1445312D01*
X1447865Y781854D01*
X1450155Y783176D01*
X1452024Y785045D01*
X1453346Y787335D01*
X1454030Y789888D01*
Y789940D01*
D02*
G37*
G36*
X1442720D02*
X1433950D01*
Y789888D01*
X1434634Y787335D01*
X1435956Y785045D01*
X1437825Y783176D01*
X1440115Y781854D01*
X1442668Y781170D01*
X1442720D01*
Y789940D01*
D02*
G37*
G36*
X872370Y787400D02*
X863600D01*
Y778630D01*
X863652D01*
X866205Y779314D01*
X868495Y780636D01*
X870364Y782505D01*
X871686Y784795D01*
X872370Y787348D01*
Y787400D01*
D02*
G37*
G36*
X861060D02*
X852290D01*
Y787348D01*
X852974Y784795D01*
X854296Y782505D01*
X856165Y780636D01*
X858455Y779314D01*
X861008Y778630D01*
X861060D01*
Y787400D01*
D02*
G37*
G36*
X999878Y799218D02*
X978782D01*
Y778122D01*
X999878D01*
Y799218D01*
D02*
G37*
G36*
X965319D02*
X962541D01*
X959859Y798499D01*
X957453Y797111D01*
X955490Y795147D01*
X954101Y792741D01*
X953382Y790059D01*
Y787281D01*
X954101Y784599D01*
X955490Y782193D01*
X957453Y780229D01*
X959859Y778841D01*
X962541Y778122D01*
X965319D01*
X968001Y778841D01*
X970407Y780229D01*
X972371Y782193D01*
X973759Y784599D01*
X974478Y787281D01*
Y790059D01*
X973759Y792741D01*
X972371Y795147D01*
X970407Y797111D01*
X968001Y798499D01*
X965319Y799218D01*
D02*
G37*
G36*
X939919D02*
X937141D01*
X934459Y798499D01*
X932053Y797111D01*
X930089Y795147D01*
X928701Y792741D01*
X927982Y790059D01*
Y787281D01*
X928701Y784599D01*
X930089Y782193D01*
X932053Y780229D01*
X934459Y778841D01*
X937141Y778122D01*
X939919D01*
X942601Y778841D01*
X945007Y780229D01*
X946971Y782193D01*
X948359Y784599D01*
X949078Y787281D01*
Y790059D01*
X948359Y792741D01*
X946971Y795147D01*
X945007Y797111D01*
X942601Y798499D01*
X939919Y799218D01*
D02*
G37*
G36*
X914519D02*
X911741D01*
X909059Y798499D01*
X906653Y797111D01*
X904689Y795147D01*
X903301Y792741D01*
X902582Y790059D01*
Y787281D01*
X903301Y784599D01*
X904689Y782193D01*
X906653Y780229D01*
X909059Y778841D01*
X911741Y778122D01*
X914519D01*
X917201Y778841D01*
X919607Y780229D01*
X921571Y782193D01*
X922959Y784599D01*
X923678Y787281D01*
Y790059D01*
X922959Y792741D01*
X921571Y795147D01*
X919607Y797111D01*
X917201Y798499D01*
X914519Y799218D01*
D02*
G37*
G36*
X838319D02*
X835541D01*
X832859Y798499D01*
X830453Y797111D01*
X828490Y795147D01*
X827101Y792741D01*
X826382Y790059D01*
Y787281D01*
X827101Y784599D01*
X828490Y782193D01*
X830453Y780229D01*
X832859Y778841D01*
X835541Y778122D01*
X838319D01*
X841001Y778841D01*
X843407Y780229D01*
X845370Y782193D01*
X846759Y784599D01*
X847478Y787281D01*
Y790059D01*
X846759Y792741D01*
X845370Y795147D01*
X843407Y797111D01*
X841001Y798499D01*
X838319Y799218D01*
D02*
G37*
G36*
X1313060Y786130D02*
X1304290D01*
Y777360D01*
X1304342D01*
X1306895Y778044D01*
X1309185Y779366D01*
X1311054Y781235D01*
X1312376Y783525D01*
X1313060Y786078D01*
Y786130D01*
D02*
G37*
G36*
X1301750D02*
X1292980D01*
Y786078D01*
X1293664Y783525D01*
X1294986Y781235D01*
X1296855Y779366D01*
X1299145Y778044D01*
X1301698Y777360D01*
X1301750D01*
Y786130D01*
D02*
G37*
G36*
X1253609Y797948D02*
X1250831D01*
X1248149Y797229D01*
X1245743Y795841D01*
X1243780Y793877D01*
X1242391Y791471D01*
X1241672Y788789D01*
Y786011D01*
X1242292Y783698D01*
X1234629Y776035D01*
X1233674Y774607D01*
X1233339Y772922D01*
Y619573D01*
X1232559Y618793D01*
X1231623Y617171D01*
X1231138Y615362D01*
Y613490D01*
X1231623Y611681D01*
X1232559Y610059D01*
X1233339Y609279D01*
Y582930D01*
X1233674Y581245D01*
X1234629Y579817D01*
X1254441Y560005D01*
X1255869Y559050D01*
X1257554Y558715D01*
X1257554Y558715D01*
X1433336D01*
X1434534Y556641D01*
X1436497Y554678D01*
X1438903Y553289D01*
X1441585Y552570D01*
X1444363D01*
X1447045Y553289D01*
X1449451Y554678D01*
X1451414Y556641D01*
X1452803Y559047D01*
X1453522Y561729D01*
Y564507D01*
X1452803Y567189D01*
X1451414Y569595D01*
X1449451Y571558D01*
X1447045Y572947D01*
X1444363Y573666D01*
X1441585D01*
X1438903Y572947D01*
X1436497Y571558D01*
X1434534Y569595D01*
X1433336Y567521D01*
X1259378D01*
X1242145Y584754D01*
Y608462D01*
X1242617Y608735D01*
X1243941Y610059D01*
X1244877Y611681D01*
X1245362Y613490D01*
Y615362D01*
X1244877Y617171D01*
X1243941Y618793D01*
X1242617Y620117D01*
X1242145Y620390D01*
Y771098D01*
X1248518Y777472D01*
X1250831Y776852D01*
X1253609D01*
X1256291Y777571D01*
X1258697Y778960D01*
X1260660Y780923D01*
X1262049Y783329D01*
X1262768Y786011D01*
Y788789D01*
X1262049Y791471D01*
X1260660Y793877D01*
X1258697Y795841D01*
X1256291Y797229D01*
X1253609Y797948D01*
D02*
G37*
G36*
X1228209D02*
X1225431D01*
X1222749Y797229D01*
X1220343Y795841D01*
X1218380Y793877D01*
X1216991Y791471D01*
X1216272Y788789D01*
Y786011D01*
X1216991Y783329D01*
X1218380Y780923D01*
X1220343Y778960D01*
X1222749Y777571D01*
X1225431Y776852D01*
X1228209D01*
X1230891Y777571D01*
X1233297Y778960D01*
X1235260Y780923D01*
X1236649Y783329D01*
X1237368Y786011D01*
Y788789D01*
X1236649Y791471D01*
X1235260Y793877D01*
X1233297Y795841D01*
X1230891Y797229D01*
X1228209Y797948D01*
D02*
G37*
G36*
X1202809D02*
X1200031D01*
X1197349Y797229D01*
X1194943Y795841D01*
X1192980Y793877D01*
X1191591Y791471D01*
X1190872Y788789D01*
Y786011D01*
X1191591Y783329D01*
X1192980Y780923D01*
X1194943Y778960D01*
X1197349Y777571D01*
X1200031Y776852D01*
X1202809D01*
X1205491Y777571D01*
X1207897Y778960D01*
X1209861Y780923D01*
X1211249Y783329D01*
X1211968Y786011D01*
Y788789D01*
X1211249Y791471D01*
X1209861Y793877D01*
X1207897Y795841D01*
X1205491Y797229D01*
X1202809Y797948D01*
D02*
G37*
G36*
X1177409D02*
X1174631D01*
X1171949Y797229D01*
X1169543Y795841D01*
X1167579Y793877D01*
X1166191Y791471D01*
X1165472Y788789D01*
Y786011D01*
X1166191Y783329D01*
X1167579Y780923D01*
X1169543Y778960D01*
X1171949Y777571D01*
X1174631Y776852D01*
X1177409D01*
X1180091Y777571D01*
X1182497Y778960D01*
X1184461Y780923D01*
X1185849Y783329D01*
X1186568Y786011D01*
Y788789D01*
X1185849Y791471D01*
X1184461Y793877D01*
X1182497Y795841D01*
X1180091Y797229D01*
X1177409Y797948D01*
D02*
G37*
G36*
X1152009D02*
X1149231D01*
X1146549Y797229D01*
X1144143Y795841D01*
X1142179Y793877D01*
X1140791Y791471D01*
X1140072Y788789D01*
Y786011D01*
X1140791Y783329D01*
X1142179Y780923D01*
X1144143Y778960D01*
X1146549Y777571D01*
X1149231Y776852D01*
X1152009D01*
X1154691Y777571D01*
X1157097Y778960D01*
X1159061Y780923D01*
X1160449Y783329D01*
X1161168Y786011D01*
Y788789D01*
X1160449Y791471D01*
X1159061Y793877D01*
X1157097Y795841D01*
X1154691Y797229D01*
X1152009Y797948D01*
D02*
G37*
G36*
X1126609D02*
X1123831D01*
X1121149Y797229D01*
X1118743Y795841D01*
X1116779Y793877D01*
X1115391Y791471D01*
X1114672Y788789D01*
Y786011D01*
X1115391Y783329D01*
X1116779Y780923D01*
X1118743Y778960D01*
X1121149Y777571D01*
X1123831Y776852D01*
X1126609D01*
X1129291Y777571D01*
X1131697Y778960D01*
X1133661Y780923D01*
X1135049Y783329D01*
X1135768Y786011D01*
Y788789D01*
X1135049Y791471D01*
X1133661Y793877D01*
X1131697Y795841D01*
X1129291Y797229D01*
X1126609Y797948D01*
D02*
G37*
G36*
X1101209D02*
X1098431D01*
X1095749Y797229D01*
X1093343Y795841D01*
X1091379Y793877D01*
X1089991Y791471D01*
X1089272Y788789D01*
Y786011D01*
X1089991Y783329D01*
X1091379Y780923D01*
X1093343Y778960D01*
X1095749Y777571D01*
X1098431Y776852D01*
X1101209D01*
X1103891Y777571D01*
X1106297Y778960D01*
X1108260Y780923D01*
X1109649Y783329D01*
X1110368Y786011D01*
Y788789D01*
X1109649Y791471D01*
X1108260Y793877D01*
X1106297Y795841D01*
X1103891Y797229D01*
X1101209Y797948D01*
D02*
G37*
G36*
X461518Y773069D02*
Y767842D01*
X466745D01*
X466402Y769121D01*
X465532Y770627D01*
X464303Y771857D01*
X462797Y772726D01*
X461518Y773069D01*
D02*
G37*
G36*
X458978D02*
X457699Y772726D01*
X456193Y771857D01*
X454963Y770627D01*
X454094Y769121D01*
X453751Y767842D01*
X458978D01*
Y773069D01*
D02*
G37*
G36*
X466745Y765302D02*
X461518D01*
Y760075D01*
X462797Y760418D01*
X464303Y761288D01*
X465532Y762517D01*
X466402Y764023D01*
X466745Y765302D01*
D02*
G37*
G36*
X458978D02*
X453751D01*
X454094Y764023D01*
X454963Y762517D01*
X456193Y761288D01*
X457699Y760418D01*
X458978Y760075D01*
Y765302D01*
D02*
G37*
G36*
X1445379Y776358D02*
X1442601D01*
X1439919Y775639D01*
X1437513Y774250D01*
X1435549Y772287D01*
X1434161Y769881D01*
X1433442Y767199D01*
Y764421D01*
X1434161Y761739D01*
X1435549Y759333D01*
X1437513Y757370D01*
X1439919Y755981D01*
X1442601Y755262D01*
X1445379D01*
X1448061Y755981D01*
X1450467Y757370D01*
X1452431Y759333D01*
X1453819Y761739D01*
X1454538Y764421D01*
Y767199D01*
X1453819Y769881D01*
X1452431Y772287D01*
X1450467Y774250D01*
X1448061Y775639D01*
X1445379Y776358D01*
D02*
G37*
G36*
Y750958D02*
X1442601D01*
X1439919Y750239D01*
X1437513Y748850D01*
X1435549Y746887D01*
X1434352Y744813D01*
X1380557D01*
X1379523Y745847D01*
X1377901Y746783D01*
X1376092Y747268D01*
X1374220D01*
X1372411Y746783D01*
X1370789Y745847D01*
X1369465Y744523D01*
X1368529Y742901D01*
X1368044Y741092D01*
Y739220D01*
X1368529Y737411D01*
X1369465Y735789D01*
X1370789Y734465D01*
X1372411Y733529D01*
X1374220Y733044D01*
X1376092D01*
X1377901Y733529D01*
X1379523Y734465D01*
X1380847Y735789D01*
X1380973Y736007D01*
X1434352D01*
X1435549Y733933D01*
X1437513Y731970D01*
X1439919Y730581D01*
X1442601Y729862D01*
X1445379D01*
X1448061Y730581D01*
X1450467Y731970D01*
X1452431Y733933D01*
X1453819Y736339D01*
X1454538Y739021D01*
Y741799D01*
X1453819Y744481D01*
X1452431Y746887D01*
X1450467Y748850D01*
X1448061Y750239D01*
X1445379Y750958D01*
D02*
G37*
G36*
X456104Y752094D02*
X454232D01*
X452423Y751609D01*
X450801Y750673D01*
X449477Y749349D01*
X448541Y747727D01*
X448056Y745918D01*
Y744046D01*
X448541Y742237D01*
X449477Y740615D01*
X450801Y739291D01*
X452423Y738355D01*
X454232Y737870D01*
X456104D01*
X457913Y738355D01*
X459084Y739031D01*
X560282D01*
X560529Y738783D01*
X562151Y737847D01*
X563960Y737362D01*
X565832D01*
X567641Y737847D01*
X569263Y738783D01*
X570587Y740107D01*
X571523Y741729D01*
X572008Y743538D01*
Y745410D01*
X571523Y747219D01*
X570587Y748841D01*
X569263Y750165D01*
X567641Y751101D01*
X565832Y751586D01*
X563960D01*
X562151Y751101D01*
X560980Y750425D01*
X459782D01*
X459535Y750673D01*
X457913Y751609D01*
X456104Y752094D01*
D02*
G37*
G36*
X1445379Y725558D02*
X1442601D01*
X1439919Y724839D01*
X1437513Y723450D01*
X1435549Y721487D01*
X1435348Y721137D01*
X1357060D01*
X1356463Y722171D01*
X1355139Y723495D01*
X1353517Y724431D01*
X1351708Y724916D01*
X1349836D01*
X1348027Y724431D01*
X1346405Y723495D01*
X1345081Y722171D01*
X1344145Y720549D01*
X1343660Y718740D01*
Y716868D01*
X1344145Y715059D01*
X1345081Y713437D01*
X1346405Y712113D01*
X1348027Y711177D01*
X1349836Y710692D01*
X1351708D01*
X1353517Y711177D01*
X1355139Y712113D01*
X1355358Y712332D01*
X1433787D01*
X1434161Y710939D01*
X1435549Y708533D01*
X1437513Y706570D01*
X1439919Y705181D01*
X1442601Y704462D01*
X1445379D01*
X1448061Y705181D01*
X1450467Y706570D01*
X1452431Y708533D01*
X1453819Y710939D01*
X1454538Y713621D01*
Y716399D01*
X1453819Y719081D01*
X1452431Y721487D01*
X1450467Y723450D01*
X1448061Y724839D01*
X1445379Y725558D01*
D02*
G37*
G36*
X365426Y938784D02*
X363554D01*
X361745Y938299D01*
X360123Y937363D01*
X358799Y936039D01*
X357863Y934417D01*
X357378Y932608D01*
Y930736D01*
X357863Y928927D01*
X358799Y927305D01*
X360123Y925981D01*
X361745Y925045D01*
X363554Y924560D01*
X365376D01*
X375607Y914328D01*
Y878538D01*
X373533Y877340D01*
X371570Y875377D01*
X370181Y872971D01*
X369462Y870289D01*
Y867511D01*
X370181Y864829D01*
X371570Y862423D01*
X373533Y860460D01*
X375327Y859424D01*
Y828040D01*
X375662Y826355D01*
X376617Y824927D01*
X404537Y797006D01*
Y709235D01*
X403249Y707947D01*
X402313Y706325D01*
X401828Y704516D01*
Y702644D01*
X402313Y700835D01*
X403249Y699213D01*
X404573Y697889D01*
X406195Y696953D01*
X408004Y696468D01*
X409876D01*
X411685Y696953D01*
X413307Y697889D01*
X414631Y699213D01*
X415567Y700835D01*
X416052Y702644D01*
Y704516D01*
X415567Y706325D01*
X414631Y707947D01*
X413343Y709235D01*
Y798830D01*
X413343Y798830D01*
X413008Y800515D01*
X412053Y801943D01*
X384133Y829864D01*
Y859100D01*
X386487Y860460D01*
X388451Y862423D01*
X389839Y864829D01*
X390558Y867511D01*
Y870289D01*
X389839Y872971D01*
X388451Y875377D01*
X386487Y877340D01*
X384413Y878538D01*
Y916152D01*
X384077Y917837D01*
X383123Y919265D01*
X371602Y930786D01*
Y932608D01*
X371117Y934417D01*
X370181Y936039D01*
X368857Y937363D01*
X367235Y938299D01*
X365426Y938784D01*
D02*
G37*
G36*
X840792Y643770D02*
X840740D01*
Y635000D01*
X849510D01*
Y635052D01*
X848826Y637605D01*
X847504Y639895D01*
X845635Y641764D01*
X843345Y643086D01*
X840792Y643770D01*
D02*
G37*
G36*
X838200D02*
X838148D01*
X835595Y643086D01*
X833305Y641764D01*
X831436Y639895D01*
X830114Y637605D01*
X829430Y635052D01*
Y635000D01*
X838200D01*
Y643770D01*
D02*
G37*
G36*
X104768Y649247D02*
X102895D01*
X101087Y648762D01*
X99465Y647826D01*
X98141Y646502D01*
X97205Y644880D01*
X96720Y643071D01*
Y641249D01*
X89793Y634323D01*
X64830D01*
X64830Y634323D01*
X63145Y633988D01*
X61717Y633033D01*
X54132Y625448D01*
X39262D01*
Y610578D01*
X33717Y605033D01*
X32762Y603605D01*
X32427Y601920D01*
Y513080D01*
X32762Y511395D01*
X33717Y509967D01*
X45147Y498537D01*
X46575Y497583D01*
X48260Y497247D01*
X167640D01*
X169325Y497583D01*
X170753Y498537D01*
X175833Y503617D01*
X176787Y505045D01*
X177123Y506730D01*
Y528507D01*
X178411Y529795D01*
X179347Y531417D01*
X179832Y533226D01*
Y535098D01*
X179347Y536907D01*
X178411Y538529D01*
X178012Y538928D01*
Y572428D01*
X178865Y572921D01*
X180189Y574245D01*
X181125Y575867D01*
X181610Y577676D01*
Y579548D01*
X181125Y581357D01*
X180189Y582979D01*
X178865Y584303D01*
X177243Y585239D01*
X175434Y585724D01*
X173562D01*
X171753Y585239D01*
X170131Y584303D01*
X168807Y582979D01*
X167871Y581357D01*
X167386Y579548D01*
Y577676D01*
X167871Y575867D01*
X168807Y574245D01*
X169206Y573846D01*
Y540346D01*
X168353Y539853D01*
X167029Y538529D01*
X166093Y536907D01*
X165608Y535098D01*
Y533226D01*
X166093Y531417D01*
X167029Y529795D01*
X168317Y528507D01*
Y508554D01*
X165816Y506053D01*
X50084D01*
X41233Y514904D01*
Y600096D01*
X45488Y604352D01*
X60358D01*
Y619222D01*
X66654Y625517D01*
X69964D01*
X70304Y624247D01*
X68733Y623340D01*
X66769Y621377D01*
X65381Y618971D01*
X64662Y616289D01*
Y613511D01*
X65381Y610829D01*
X66769Y608423D01*
X68733Y606460D01*
X70807Y605262D01*
Y599004D01*
X61158Y589354D01*
X58588Y590043D01*
X55712D01*
X52934Y589299D01*
X50443Y587861D01*
X48409Y585827D01*
X46971Y583336D01*
X46227Y580558D01*
Y577682D01*
X46971Y574904D01*
X48409Y572413D01*
X50443Y570379D01*
X52934Y568941D01*
X55712Y568197D01*
X58588D01*
X61366Y568941D01*
X63857Y570379D01*
X65891Y572413D01*
X67221Y574717D01*
X112079D01*
X113409Y572413D01*
X115443Y570379D01*
X117934Y568941D01*
X120712Y568197D01*
X123588D01*
X126366Y568941D01*
X128857Y570379D01*
X130891Y572413D01*
X132329Y574904D01*
X133073Y577682D01*
Y580558D01*
X132329Y583336D01*
X130891Y585827D01*
X128857Y587861D01*
X126366Y589299D01*
X123588Y590043D01*
X120712D01*
X117934Y589299D01*
X115443Y587861D01*
X113409Y585827D01*
X112079Y583523D01*
X69438D01*
X68952Y584696D01*
X78323Y594067D01*
X79278Y595495D01*
X79613Y597180D01*
Y605262D01*
X81687Y606460D01*
X83651Y608423D01*
X85039Y610829D01*
X85758Y613511D01*
Y616289D01*
X85039Y618971D01*
X83651Y621377D01*
X81687Y623340D01*
X80116Y624247D01*
X80456Y625517D01*
X91617D01*
X93302Y625853D01*
X94730Y626807D01*
X102946Y635023D01*
X104768D01*
X106577Y635508D01*
X108199Y636444D01*
X109523Y637768D01*
X110459Y639390D01*
X110944Y641199D01*
Y643071D01*
X110459Y644880D01*
X109523Y646502D01*
X108199Y647826D01*
X106577Y648762D01*
X104768Y649247D01*
D02*
G37*
G36*
X127936Y645922D02*
X126064D01*
X124255Y645437D01*
X122633Y644501D01*
X121309Y643177D01*
X120373Y641555D01*
X119888Y639746D01*
Y639164D01*
X105170Y624447D01*
X104681Y624729D01*
X101999Y625448D01*
X99221D01*
X96539Y624729D01*
X94133Y623340D01*
X92170Y621377D01*
X90781Y618971D01*
X90062Y616289D01*
Y613511D01*
X90781Y610829D01*
X92170Y608423D01*
X94133Y606460D01*
X96539Y605071D01*
X99221Y604352D01*
X101999D01*
X104681Y605071D01*
X107087Y606460D01*
X109051Y608423D01*
X110439Y610829D01*
X111158Y613511D01*
Y616289D01*
X110800Y617624D01*
X125126Y631949D01*
X126064Y631698D01*
X127936D01*
X129745Y632183D01*
X131367Y633119D01*
X132691Y634443D01*
X133627Y636065D01*
X134112Y637874D01*
Y639746D01*
X133627Y641555D01*
X132691Y643177D01*
X131367Y644501D01*
X129745Y645437D01*
X127936Y645922D01*
D02*
G37*
G36*
X849510Y632460D02*
X840740D01*
Y623690D01*
X840792D01*
X843345Y624374D01*
X845635Y625696D01*
X847504Y627565D01*
X848826Y629855D01*
X849510Y632408D01*
Y632460D01*
D02*
G37*
G36*
X838200D02*
X829430D01*
Y632408D01*
X830114Y629855D01*
X831436Y627565D01*
X833305Y625696D01*
X835595Y624374D01*
X838148Y623690D01*
X838200D01*
Y632460D01*
D02*
G37*
G36*
X951618Y644278D02*
X930522D01*
Y623182D01*
X951618D01*
Y644278D01*
D02*
G37*
G36*
X917059D02*
X914281D01*
X911599Y643559D01*
X909193Y642170D01*
X907230Y640207D01*
X905841Y637801D01*
X905122Y635119D01*
Y632341D01*
X905841Y629659D01*
X907230Y627253D01*
X909193Y625289D01*
X911599Y623901D01*
X914281Y623182D01*
X917059D01*
X919741Y623901D01*
X922147Y625289D01*
X924110Y627253D01*
X925499Y629659D01*
X926218Y632341D01*
Y635119D01*
X925499Y637801D01*
X924110Y640207D01*
X922147Y642170D01*
X919741Y643559D01*
X917059Y644278D01*
D02*
G37*
G36*
X891659D02*
X888881D01*
X886199Y643559D01*
X883793Y642170D01*
X881830Y640207D01*
X880441Y637801D01*
X879722Y635119D01*
Y632341D01*
X880441Y629659D01*
X881830Y627253D01*
X883793Y625289D01*
X886199Y623901D01*
X888881Y623182D01*
X891659D01*
X894341Y623901D01*
X896747Y625289D01*
X898710Y627253D01*
X900099Y629659D01*
X900818Y632341D01*
Y635119D01*
X900099Y637801D01*
X898710Y640207D01*
X896747Y642170D01*
X894341Y643559D01*
X891659Y644278D01*
D02*
G37*
G36*
X866259D02*
X863481D01*
X860799Y643559D01*
X858393Y642170D01*
X856430Y640207D01*
X855041Y637801D01*
X854322Y635119D01*
Y632341D01*
X855041Y629659D01*
X856430Y627253D01*
X858393Y625289D01*
X860799Y623901D01*
X863481Y623182D01*
X866259D01*
X868941Y623901D01*
X871347Y625289D01*
X873310Y627253D01*
X874699Y629659D01*
X875418Y632341D01*
Y635119D01*
X874699Y637801D01*
X873310Y640207D01*
X871347Y642170D01*
X868941Y643559D01*
X866259Y644278D01*
D02*
G37*
G36*
X381332Y624940D02*
X381280D01*
Y616170D01*
X390050D01*
Y616222D01*
X389366Y618775D01*
X388044Y621065D01*
X386175Y622934D01*
X383885Y624256D01*
X381332Y624940D01*
D02*
G37*
G36*
X390050Y613630D02*
X381280D01*
Y604860D01*
X381332D01*
X383885Y605544D01*
X386175Y606866D01*
X388044Y608735D01*
X389366Y611025D01*
X390050Y613578D01*
Y613630D01*
D02*
G37*
G36*
X482999Y625448D02*
X480221D01*
X477539Y624729D01*
X475133Y623340D01*
X473170Y621377D01*
X471781Y618971D01*
X471062Y616289D01*
Y613511D01*
X471781Y610829D01*
X473170Y608423D01*
X475133Y606460D01*
X477539Y605071D01*
X480221Y604352D01*
X482999D01*
X485681Y605071D01*
X488087Y606460D01*
X490051Y608423D01*
X491439Y610829D01*
X492158Y613511D01*
Y616289D01*
X491439Y618971D01*
X490051Y621377D01*
X488087Y623340D01*
X485681Y624729D01*
X482999Y625448D01*
D02*
G37*
G36*
X457599D02*
X454821D01*
X452139Y624729D01*
X449733Y623340D01*
X447770Y621377D01*
X446381Y618971D01*
X445662Y616289D01*
Y613511D01*
X446381Y610829D01*
X447770Y608423D01*
X449733Y606460D01*
X452139Y605071D01*
X454821Y604352D01*
X457599D01*
X460281Y605071D01*
X462687Y606460D01*
X464650Y608423D01*
X466039Y610829D01*
X466758Y613511D01*
Y616289D01*
X466039Y618971D01*
X464650Y621377D01*
X462687Y623340D01*
X460281Y624729D01*
X457599Y625448D01*
D02*
G37*
G36*
X432199D02*
X429421D01*
X426739Y624729D01*
X424333Y623340D01*
X422369Y621377D01*
X420981Y618971D01*
X420262Y616289D01*
Y613511D01*
X420981Y610829D01*
X422369Y608423D01*
X424333Y606460D01*
X426739Y605071D01*
X429421Y604352D01*
X432199D01*
X434881Y605071D01*
X437287Y606460D01*
X439250Y608423D01*
X440639Y610829D01*
X441358Y613511D01*
Y616289D01*
X440639Y618971D01*
X439250Y621377D01*
X437287Y623340D01*
X434881Y624729D01*
X432199Y625448D01*
D02*
G37*
G36*
X178199D02*
X175421D01*
X172739Y624729D01*
X170333Y623340D01*
X168370Y621377D01*
X166981Y618971D01*
X166262Y616289D01*
Y613511D01*
X166981Y610829D01*
X168370Y608423D01*
X170333Y606460D01*
X172739Y605071D01*
X175421Y604352D01*
X178199D01*
X180881Y605071D01*
X183287Y606460D01*
X185250Y608423D01*
X186639Y610829D01*
X187358Y613511D01*
Y616289D01*
X186639Y618971D01*
X185250Y621377D01*
X183287Y623340D01*
X180881Y624729D01*
X178199Y625448D01*
D02*
G37*
G36*
X152799D02*
X150021D01*
X147339Y624729D01*
X144933Y623340D01*
X142970Y621377D01*
X141581Y618971D01*
X140862Y616289D01*
Y613511D01*
X141581Y610829D01*
X142970Y608423D01*
X144933Y606460D01*
X147339Y605071D01*
X150021Y604352D01*
X152799D01*
X155481Y605071D01*
X157887Y606460D01*
X159851Y608423D01*
X161239Y610829D01*
X161958Y613511D01*
Y616289D01*
X161239Y618971D01*
X159851Y621377D01*
X157887Y623340D01*
X155481Y624729D01*
X152799Y625448D01*
D02*
G37*
G36*
X127399D02*
X124621D01*
X121939Y624729D01*
X119533Y623340D01*
X117570Y621377D01*
X116181Y618971D01*
X115462Y616289D01*
Y613511D01*
X116181Y610829D01*
X117570Y608423D01*
X119533Y606460D01*
X121939Y605071D01*
X124621Y604352D01*
X127399D01*
X130081Y605071D01*
X132487Y606460D01*
X134451Y608423D01*
X135839Y610829D01*
X136558Y613511D01*
Y616289D01*
X135839Y618971D01*
X134451Y621377D01*
X132487Y623340D01*
X130081Y624729D01*
X127399Y625448D01*
D02*
G37*
G36*
X1279009Y797948D02*
X1276231D01*
X1273549Y797229D01*
X1271143Y795841D01*
X1269180Y793877D01*
X1267791Y791471D01*
X1267072Y788789D01*
Y786011D01*
X1267791Y783329D01*
X1269180Y780923D01*
X1269461Y780642D01*
X1257235Y768415D01*
X1256281Y766987D01*
X1255945Y765302D01*
Y655133D01*
X1254657Y653845D01*
X1253721Y652223D01*
X1253236Y650414D01*
Y648542D01*
X1253721Y646733D01*
X1254657Y645111D01*
X1255945Y643823D01*
Y606044D01*
X1256281Y604359D01*
X1257235Y602931D01*
X1274761Y585405D01*
X1276189Y584450D01*
X1277874Y584115D01*
X1433336D01*
X1434534Y582041D01*
X1436497Y580078D01*
X1438903Y578689D01*
X1441585Y577970D01*
X1444363D01*
X1447045Y578689D01*
X1449451Y580078D01*
X1451414Y582041D01*
X1452803Y584447D01*
X1453522Y587129D01*
Y589907D01*
X1452803Y592589D01*
X1451414Y594995D01*
X1449451Y596959D01*
X1447045Y598347D01*
X1444363Y599066D01*
X1441585D01*
X1438903Y598347D01*
X1436497Y596959D01*
X1434534Y594995D01*
X1433336Y592921D01*
X1279698D01*
X1264751Y607868D01*
Y643823D01*
X1266039Y645111D01*
X1266975Y646733D01*
X1267460Y648542D01*
Y650414D01*
X1266975Y652223D01*
X1266039Y653845D01*
X1264751Y655133D01*
Y763478D01*
X1278124Y776852D01*
X1279009D01*
X1281691Y777571D01*
X1284097Y778960D01*
X1286060Y780923D01*
X1287449Y783329D01*
X1288168Y786011D01*
Y788789D01*
X1287449Y791471D01*
X1286060Y793877D01*
X1284097Y795841D01*
X1281691Y797229D01*
X1279009Y797948D01*
D02*
G37*
G36*
X194072Y650480D02*
X192199D01*
X190390Y649995D01*
X188769Y649059D01*
X187444Y647735D01*
X186508Y646113D01*
X186023Y644304D01*
Y642432D01*
X186508Y640623D01*
X187444Y639001D01*
X188769Y637677D01*
X190390Y636741D01*
X192199Y636256D01*
X194021D01*
X203559Y626718D01*
X203033Y625448D01*
X200821D01*
X198139Y624729D01*
X195733Y623340D01*
X193769Y621377D01*
X192381Y618971D01*
X191662Y616289D01*
Y613511D01*
X192381Y610829D01*
X193769Y608423D01*
X195733Y606460D01*
X197807Y605262D01*
Y583412D01*
X198143Y581727D01*
X199097Y580299D01*
X208534Y570862D01*
Y569040D01*
X209019Y567231D01*
X209955Y565609D01*
X211279Y564285D01*
X212901Y563349D01*
X214710Y562864D01*
X216582D01*
X218391Y563349D01*
X220013Y564285D01*
X221337Y565609D01*
X221937Y566649D01*
X223207Y566309D01*
Y566140D01*
X223543Y564455D01*
X224497Y563027D01*
X237744Y549780D01*
Y547958D01*
X238229Y546149D01*
X239165Y544527D01*
X240489Y543203D01*
X242111Y542267D01*
X243920Y541782D01*
X245792D01*
X247601Y542267D01*
X249223Y543203D01*
X250547Y544527D01*
X251483Y546149D01*
X251968Y547958D01*
Y549830D01*
X251483Y551639D01*
X250547Y553261D01*
X249223Y554585D01*
X247601Y555521D01*
X245935Y555968D01*
X245799Y556259D01*
X245823Y557253D01*
X247445Y558189D01*
X248769Y559513D01*
X249705Y561135D01*
X250190Y562944D01*
Y564766D01*
X256123Y570699D01*
X257078Y572127D01*
X257413Y573812D01*
Y605262D01*
X259487Y606460D01*
X261451Y608423D01*
X262839Y610829D01*
X263558Y613511D01*
Y616289D01*
X262839Y618971D01*
X261451Y621377D01*
X259487Y623340D01*
X257081Y624729D01*
X254399Y625448D01*
X251621D01*
X248939Y624729D01*
X246533Y623340D01*
X244569Y621377D01*
X243181Y618971D01*
X242462Y616289D01*
Y613511D01*
X243181Y610829D01*
X244569Y608423D01*
X246533Y606460D01*
X248607Y605262D01*
Y575636D01*
X243964Y570992D01*
X242142D01*
X240333Y570507D01*
X238711Y569571D01*
X237387Y568247D01*
X236451Y566625D01*
X236175Y565597D01*
X234759Y565218D01*
X232013Y567964D01*
Y605262D01*
X234087Y606460D01*
X236050Y608423D01*
X237439Y610829D01*
X238158Y613511D01*
Y616289D01*
X237439Y618971D01*
X236050Y621377D01*
X234087Y623340D01*
X231681Y624729D01*
X228999Y625448D01*
X226221D01*
X223908Y624828D01*
X216210Y632527D01*
X214781Y633481D01*
X213097Y633816D01*
X208914D01*
X200247Y642482D01*
Y644304D01*
X199763Y646113D01*
X198826Y647735D01*
X197502Y649059D01*
X195881Y649995D01*
X194072Y650480D01*
D02*
G37*
G36*
X219884Y650748D02*
X218012D01*
X216203Y650263D01*
X214581Y649327D01*
X213257Y648003D01*
X212321Y646381D01*
X211836Y644572D01*
Y642700D01*
X212321Y640891D01*
X213257Y639269D01*
X214581Y637945D01*
X216203Y637009D01*
X218012Y636524D01*
X219834D01*
X228027Y628331D01*
X228027Y628331D01*
X229455Y627377D01*
X231140Y627041D01*
X231140Y627041D01*
X260042D01*
X268482Y618602D01*
X267862Y616289D01*
Y613511D01*
X268581Y610829D01*
X269970Y608423D01*
X271933Y606460D01*
X273748Y605412D01*
Y552424D01*
X274103Y550640D01*
X275114Y549128D01*
X278384Y545858D01*
Y544402D01*
X278869Y542593D01*
X279805Y540971D01*
X281129Y539647D01*
X282751Y538711D01*
X284560Y538226D01*
X286432D01*
X288241Y538711D01*
X289863Y539647D01*
X291187Y540971D01*
X292123Y542593D01*
X292608Y544402D01*
Y546274D01*
X292123Y548083D01*
X291187Y549705D01*
X289863Y551029D01*
X288241Y551965D01*
X286432Y552450D01*
X284976D01*
X283072Y554355D01*
Y605412D01*
X284887Y606460D01*
X286850Y608423D01*
X288239Y610829D01*
X288958Y613511D01*
Y616289D01*
X288239Y618971D01*
X286850Y621377D01*
X284887Y623340D01*
X282481Y624729D01*
X279799Y625448D01*
X277021D01*
X274708Y624828D01*
X264979Y634557D01*
X263551Y635512D01*
X261866Y635847D01*
X232964D01*
X226060Y642750D01*
Y644572D01*
X225575Y646381D01*
X224639Y648003D01*
X223315Y649327D01*
X221693Y650263D01*
X219884Y650748D01*
D02*
G37*
G36*
X153924Y541675D02*
Y536448D01*
X159151D01*
X158808Y537727D01*
X157938Y539233D01*
X156709Y540462D01*
X155203Y541332D01*
X153924Y541675D01*
D02*
G37*
G36*
X151384D02*
X150105Y541332D01*
X148599Y540462D01*
X147369Y539233D01*
X146500Y537727D01*
X146157Y536448D01*
X151384D01*
Y541675D01*
D02*
G37*
G36*
X123521Y544535D02*
X123420D01*
Y535390D01*
X132565D01*
Y535491D01*
X131855Y538140D01*
X130484Y540515D01*
X128545Y542454D01*
X126170Y543825D01*
X123521Y544535D01*
D02*
G37*
G36*
X58521D02*
X58420D01*
Y535390D01*
X67565D01*
Y535491D01*
X66855Y538140D01*
X65484Y540515D01*
X63545Y542454D01*
X61170Y543825D01*
X58521Y544535D01*
D02*
G37*
G36*
X120880D02*
X120779D01*
X118130Y543825D01*
X115755Y542454D01*
X113816Y540515D01*
X112445Y538140D01*
X111735Y535491D01*
Y535390D01*
X120880D01*
Y544535D01*
D02*
G37*
G36*
X55880D02*
X55779D01*
X53130Y543825D01*
X50755Y542454D01*
X48816Y540515D01*
X47445Y538140D01*
X46735Y535491D01*
Y535390D01*
X55880D01*
Y544535D01*
D02*
G37*
G36*
X305199Y625448D02*
X302421D01*
X299739Y624729D01*
X297333Y623340D01*
X295369Y621377D01*
X293981Y618971D01*
X293262Y616289D01*
Y613511D01*
X293981Y610829D01*
X295369Y608423D01*
X297333Y606460D01*
X299013Y605490D01*
Y546156D01*
X298655Y545949D01*
X297331Y544625D01*
X296395Y543003D01*
X295910Y541194D01*
Y539322D01*
X296395Y537513D01*
X297331Y535891D01*
X298655Y534567D01*
X300277Y533631D01*
X302086Y533146D01*
X303958D01*
X305767Y533631D01*
X307389Y534567D01*
X308713Y535891D01*
X309649Y537513D01*
X310134Y539322D01*
Y541194D01*
X309649Y543003D01*
X308713Y544625D01*
X307819Y545519D01*
Y605054D01*
X307881Y605071D01*
X310287Y606460D01*
X312250Y608423D01*
X313639Y610829D01*
X314358Y613511D01*
Y616289D01*
X313639Y618971D01*
X312250Y621377D01*
X310287Y623340D01*
X307881Y624729D01*
X305199Y625448D01*
D02*
G37*
G36*
X159151Y533908D02*
X153924D01*
Y528681D01*
X155203Y529024D01*
X156709Y529893D01*
X157938Y531123D01*
X158808Y532629D01*
X159151Y533908D01*
D02*
G37*
G36*
X151384D02*
X146157D01*
X146500Y532629D01*
X147369Y531123D01*
X148599Y529893D01*
X150105Y529024D01*
X151384Y528681D01*
Y533908D01*
D02*
G37*
G36*
X132565Y532850D02*
X123420D01*
Y523705D01*
X123521D01*
X126170Y524415D01*
X128545Y525786D01*
X130484Y527725D01*
X131855Y530100D01*
X132565Y532749D01*
Y532850D01*
D02*
G37*
G36*
X120880D02*
X111735D01*
Y532749D01*
X112445Y530100D01*
X113816Y527725D01*
X115755Y525786D01*
X118130Y524415D01*
X120779Y523705D01*
X120880D01*
Y532850D01*
D02*
G37*
G36*
X67565D02*
X58420D01*
Y523705D01*
X58521D01*
X61170Y524415D01*
X63545Y525786D01*
X65484Y527725D01*
X66855Y530100D01*
X67565Y532749D01*
Y532850D01*
D02*
G37*
G36*
X55880D02*
X46735D01*
Y532749D01*
X47445Y530100D01*
X48816Y527725D01*
X50755Y525786D01*
X53130Y524415D01*
X55779Y523705D01*
X55880D01*
Y532850D01*
D02*
G37*
G36*
X239014Y299359D02*
Y294132D01*
X244241D01*
X243898Y295411D01*
X243029Y296917D01*
X241799Y298146D01*
X240293Y299016D01*
X239014Y299359D01*
D02*
G37*
G36*
X236474D02*
X235195Y299016D01*
X233689Y298146D01*
X232460Y296917D01*
X231590Y295411D01*
X231247Y294132D01*
X236474D01*
Y299359D01*
D02*
G37*
G36*
X244241Y291592D02*
X239014D01*
Y286365D01*
X240293Y286708D01*
X241799Y287577D01*
X243029Y288807D01*
X243898Y290313D01*
X244241Y291592D01*
D02*
G37*
G36*
X236474D02*
X231247D01*
X231590Y290313D01*
X232460Y288807D01*
X233689Y287577D01*
X235195Y286708D01*
X236474Y286365D01*
Y291592D01*
D02*
G37*
G36*
X117969Y421067D02*
X115516Y420744D01*
X113230Y419797D01*
X111266Y418291D01*
X109760Y416328D01*
X108813Y414041D01*
X108490Y411588D01*
X108813Y409135D01*
X109760Y406848D01*
X111266Y404885D01*
X111374Y404777D01*
X113338Y403271D01*
X115624Y402324D01*
X118077Y402001D01*
X184034D01*
X205923Y380112D01*
Y262988D01*
X206246Y260535D01*
X207193Y258249D01*
X208699Y256286D01*
X210663Y254779D01*
X212949Y253832D01*
X215402Y253509D01*
X217855Y253832D01*
X220142Y254779D01*
X222105Y256286D01*
X223611Y258249D01*
X224558Y260535D01*
X224881Y262988D01*
Y384038D01*
X224558Y386491D01*
X223611Y388777D01*
X222105Y390741D01*
X194663Y418183D01*
X192700Y419689D01*
X190413Y420636D01*
X187960Y420959D01*
X118790D01*
X117969Y421067D01*
D02*
G37*
G36*
X143510Y314279D02*
X141057Y313956D01*
X138771Y313009D01*
X136807Y311503D01*
X135301Y309540D01*
X134354Y307253D01*
X134031Y304800D01*
Y256540D01*
X134354Y254087D01*
X135301Y251800D01*
X136807Y249837D01*
X166525Y220119D01*
X168488Y218613D01*
X170775Y217666D01*
X173228Y217343D01*
X260939D01*
X263393Y217666D01*
X265679Y218613D01*
X267642Y220119D01*
X269148Y222083D01*
X270095Y224369D01*
X270418Y226822D01*
X270095Y229275D01*
X269148Y231562D01*
X267642Y233525D01*
X265679Y235031D01*
X263393Y235978D01*
X260939Y236301D01*
X177154D01*
X152989Y260466D01*
Y304800D01*
X152666Y307253D01*
X151719Y309540D01*
X150213Y311503D01*
X148250Y313009D01*
X145963Y313956D01*
X143510Y314279D01*
D02*
G37*
G36*
X252369Y124048D02*
X247631D01*
X242985Y123124D01*
X238609Y121311D01*
X234670Y118679D01*
X231321Y115330D01*
X228689Y111391D01*
X226876Y107015D01*
X225952Y102368D01*
Y97632D01*
X226876Y92985D01*
X228689Y88609D01*
X231321Y84670D01*
X234670Y81321D01*
X238609Y78689D01*
X242985Y76876D01*
X247631Y75952D01*
X252369D01*
X257015Y76876D01*
X261391Y78689D01*
X265330Y81321D01*
X268679Y84670D01*
X271311Y88609D01*
X273124Y92985D01*
X274048Y97632D01*
Y102368D01*
X273124Y107015D01*
X271311Y111391D01*
X268679Y115330D01*
X265330Y118679D01*
X261391Y121311D01*
X257015Y123124D01*
X252369Y124048D01*
D02*
G37*
G36*
X175410Y52700D02*
X175260D01*
Y43180D01*
X184780D01*
Y43330D01*
X184045Y46075D01*
X182624Y48535D01*
X180615Y50544D01*
X178155Y51965D01*
X175410Y52700D01*
D02*
G37*
G36*
X172720D02*
X172570D01*
X169825Y51965D01*
X167365Y50544D01*
X165356Y48535D01*
X163935Y46075D01*
X163200Y43330D01*
Y43180D01*
X172720D01*
Y52700D01*
D02*
G37*
G36*
X184780Y40640D02*
X175260D01*
Y31120D01*
X175410D01*
X178155Y31855D01*
X180615Y33276D01*
X182624Y35285D01*
X184045Y37745D01*
X184780Y40490D01*
Y40640D01*
D02*
G37*
G36*
X172720D02*
X163200D01*
Y40490D01*
X163935Y37745D01*
X165356Y35285D01*
X167365Y33276D01*
X169825Y31855D01*
X172570Y31120D01*
X172720D01*
Y40640D01*
D02*
G37*
G36*
X124677Y53208D02*
X121703D01*
X118829Y52438D01*
X116253Y50951D01*
X114149Y48847D01*
X112662Y46271D01*
X111892Y43397D01*
Y40423D01*
X112662Y37549D01*
X114149Y34973D01*
X116253Y32869D01*
X118829Y31382D01*
X121703Y30612D01*
X124677D01*
X127551Y31382D01*
X130127Y32869D01*
X132231Y34973D01*
X133718Y37549D01*
X134488Y40423D01*
Y43397D01*
X133718Y46271D01*
X132231Y48847D01*
X130127Y50951D01*
X127551Y52438D01*
X124677Y53208D01*
D02*
G37*
G36*
X1291590Y523387D02*
Y518160D01*
X1296817D01*
X1296474Y519439D01*
X1295605Y520945D01*
X1294375Y522174D01*
X1292869Y523044D01*
X1291590Y523387D01*
D02*
G37*
G36*
X1289050D02*
X1287771Y523044D01*
X1286265Y522174D01*
X1285036Y520945D01*
X1284166Y519439D01*
X1283823Y518160D01*
X1289050D01*
Y523387D01*
D02*
G37*
G36*
X1123950Y518307D02*
Y513080D01*
X1129177D01*
X1128834Y514359D01*
X1127964Y515865D01*
X1126735Y517094D01*
X1125229Y517964D01*
X1123950Y518307D01*
D02*
G37*
G36*
X1121410D02*
X1120131Y517964D01*
X1118625Y517094D01*
X1117395Y515865D01*
X1116526Y514359D01*
X1116183Y513080D01*
X1121410D01*
Y518307D01*
D02*
G37*
G36*
X946150D02*
Y513080D01*
X951377D01*
X951034Y514359D01*
X950164Y515865D01*
X948935Y517094D01*
X947429Y517964D01*
X946150Y518307D01*
D02*
G37*
G36*
X943610D02*
X942331Y517964D01*
X940825Y517094D01*
X939595Y515865D01*
X938726Y514359D01*
X938383Y513080D01*
X943610D01*
Y518307D01*
D02*
G37*
G36*
X586740D02*
Y513080D01*
X591967D01*
X591624Y514359D01*
X590755Y515865D01*
X589525Y517094D01*
X588019Y517964D01*
X586740Y518307D01*
D02*
G37*
G36*
X584200D02*
X582921Y517964D01*
X581415Y517094D01*
X580186Y515865D01*
X579316Y514359D01*
X578973Y513080D01*
X584200D01*
Y518307D01*
D02*
G37*
G36*
X767080Y518053D02*
Y512826D01*
X772307D01*
X771964Y514105D01*
X771095Y515611D01*
X769865Y516841D01*
X768359Y517710D01*
X767080Y518053D01*
D02*
G37*
G36*
X764540D02*
X763261Y517710D01*
X761755Y516841D01*
X760526Y515611D01*
X759656Y514105D01*
X759313Y512826D01*
X764540D01*
Y518053D01*
D02*
G37*
G36*
X397510Y517037D02*
Y511810D01*
X402737D01*
X402394Y513089D01*
X401525Y514595D01*
X400295Y515825D01*
X398789Y516694D01*
X397510Y517037D01*
D02*
G37*
G36*
X394970D02*
X393691Y516694D01*
X392185Y515825D01*
X390956Y514595D01*
X390086Y513089D01*
X389743Y511810D01*
X394970D01*
Y517037D01*
D02*
G37*
G36*
X1296817Y515620D02*
X1291590D01*
Y510393D01*
X1292869Y510736D01*
X1294375Y511605D01*
X1295605Y512835D01*
X1296474Y514341D01*
X1296817Y515620D01*
D02*
G37*
G36*
X1289050D02*
X1283823D01*
X1284166Y514341D01*
X1285036Y512835D01*
X1286265Y511605D01*
X1287771Y510736D01*
X1289050Y510393D01*
Y515620D01*
D02*
G37*
G36*
X1129177Y510540D02*
X1123950D01*
Y505313D01*
X1125229Y505656D01*
X1126735Y506525D01*
X1127964Y507755D01*
X1128834Y509261D01*
X1129177Y510540D01*
D02*
G37*
G36*
X1121410D02*
X1116183D01*
X1116526Y509261D01*
X1117395Y507755D01*
X1118625Y506525D01*
X1120131Y505656D01*
X1121410Y505313D01*
Y510540D01*
D02*
G37*
G36*
X951377D02*
X946150D01*
Y505313D01*
X947429Y505656D01*
X948935Y506525D01*
X950164Y507755D01*
X951034Y509261D01*
X951377Y510540D01*
D02*
G37*
G36*
X943610D02*
X938383D01*
X938726Y509261D01*
X939595Y507755D01*
X940825Y506525D01*
X942331Y505656D01*
X943610Y505313D01*
Y510540D01*
D02*
G37*
G36*
X591967D02*
X586740D01*
Y505313D01*
X588019Y505656D01*
X589525Y506525D01*
X590755Y507755D01*
X591624Y509261D01*
X591967Y510540D01*
D02*
G37*
G36*
X584200D02*
X578973D01*
X579316Y509261D01*
X580186Y507755D01*
X581415Y506525D01*
X582921Y505656D01*
X584200Y505313D01*
Y510540D01*
D02*
G37*
G36*
X772307Y510286D02*
X767080D01*
Y505059D01*
X768359Y505402D01*
X769865Y506272D01*
X771095Y507501D01*
X771964Y509007D01*
X772307Y510286D01*
D02*
G37*
G36*
X764540D02*
X759313D01*
X759656Y509007D01*
X760526Y507501D01*
X761755Y506272D01*
X763261Y505402D01*
X764540Y505059D01*
Y510286D01*
D02*
G37*
G36*
X402737Y509270D02*
X397510D01*
Y504043D01*
X398789Y504386D01*
X400295Y505256D01*
X401525Y506485D01*
X402394Y507991D01*
X402737Y509270D01*
D02*
G37*
G36*
X394970D02*
X389743D01*
X390086Y507991D01*
X390956Y506485D01*
X392185Y505256D01*
X393691Y504386D01*
X394970Y504043D01*
Y509270D01*
D02*
G37*
G36*
X473279Y500307D02*
X468052D01*
Y495080D01*
X469331Y495423D01*
X470837Y496292D01*
X472067Y497522D01*
X472936Y499028D01*
X473279Y500307D01*
D02*
G37*
G36*
X465512D02*
X460285D01*
X460628Y499028D01*
X461498Y497522D01*
X462727Y496292D01*
X464233Y495423D01*
X465512Y495080D01*
Y500307D01*
D02*
G37*
G36*
X1352550Y402737D02*
Y397510D01*
X1357777D01*
X1357434Y398789D01*
X1356564Y400295D01*
X1355335Y401525D01*
X1353829Y402394D01*
X1352550Y402737D01*
D02*
G37*
G36*
X1350010D02*
X1348731Y402394D01*
X1347225Y401525D01*
X1345995Y400295D01*
X1345126Y398789D01*
X1344783Y397510D01*
X1350010D01*
Y402737D01*
D02*
G37*
G36*
X1175512Y399943D02*
Y394716D01*
X1180739D01*
X1180396Y395995D01*
X1179527Y397501D01*
X1178297Y398731D01*
X1176791Y399600D01*
X1175512Y399943D01*
D02*
G37*
G36*
X1172972D02*
X1171693Y399600D01*
X1170187Y398731D01*
X1168958Y397501D01*
X1168088Y395995D01*
X1167745Y394716D01*
X1172972D01*
Y399943D01*
D02*
G37*
G36*
X989330Y398927D02*
Y393700D01*
X994557D01*
X994214Y394979D01*
X993344Y396485D01*
X992115Y397715D01*
X990609Y398584D01*
X989330Y398927D01*
D02*
G37*
G36*
X986790D02*
X985511Y398584D01*
X984005Y397715D01*
X982775Y396485D01*
X981906Y394979D01*
X981563Y393700D01*
X986790D01*
Y398927D01*
D02*
G37*
G36*
X448850Y397414D02*
Y392187D01*
X454076D01*
X453734Y393466D01*
X452864Y394972D01*
X451635Y396202D01*
X450129Y397071D01*
X448850Y397414D01*
D02*
G37*
G36*
X446310D02*
X445031Y397071D01*
X443525Y396202D01*
X442295Y394972D01*
X441426Y393466D01*
X441083Y392187D01*
X446310D01*
Y397414D01*
D02*
G37*
G36*
X814832Y397403D02*
Y392176D01*
X820059D01*
X819716Y393455D01*
X818847Y394961D01*
X817617Y396190D01*
X816111Y397060D01*
X814832Y397403D01*
D02*
G37*
G36*
X812292D02*
X811013Y397060D01*
X809507Y396190D01*
X808278Y394961D01*
X807408Y393455D01*
X807065Y392176D01*
X812292D01*
Y397403D01*
D02*
G37*
G36*
X633222Y397149D02*
Y391922D01*
X638449D01*
X638106Y393201D01*
X637237Y394707D01*
X636007Y395937D01*
X634501Y396806D01*
X633222Y397149D01*
D02*
G37*
G36*
X630682D02*
X629403Y396806D01*
X627897Y395937D01*
X626668Y394707D01*
X625798Y393201D01*
X625455Y391922D01*
X630682D01*
Y397149D01*
D02*
G37*
G36*
X1357777Y394970D02*
X1352550D01*
Y389743D01*
X1353829Y390086D01*
X1355335Y390956D01*
X1356564Y392185D01*
X1357434Y393691D01*
X1357777Y394970D01*
D02*
G37*
G36*
X1350010D02*
X1344783D01*
X1345126Y393691D01*
X1345995Y392185D01*
X1347225Y390956D01*
X1348731Y390086D01*
X1350010Y389743D01*
Y394970D01*
D02*
G37*
G36*
X1180739Y392176D02*
X1175512D01*
Y386949D01*
X1176791Y387292D01*
X1178297Y388162D01*
X1179527Y389391D01*
X1180396Y390897D01*
X1180739Y392176D01*
D02*
G37*
G36*
X1172972D02*
X1167745D01*
X1168088Y390897D01*
X1168958Y389391D01*
X1170187Y388162D01*
X1171693Y387292D01*
X1172972Y386949D01*
Y392176D01*
D02*
G37*
G36*
X994557Y391160D02*
X989330D01*
Y385933D01*
X990609Y386276D01*
X992115Y387146D01*
X993344Y388375D01*
X994214Y389881D01*
X994557Y391160D01*
D02*
G37*
G36*
X986790D02*
X981563D01*
X981906Y389881D01*
X982775Y388375D01*
X984005Y387146D01*
X985511Y386276D01*
X986790Y385933D01*
Y391160D01*
D02*
G37*
G36*
X454076Y389647D02*
X448850D01*
Y384421D01*
X450129Y384763D01*
X451635Y385633D01*
X452864Y386862D01*
X453734Y388368D01*
X454076Y389647D01*
D02*
G37*
G36*
X446310D02*
X441083D01*
X441426Y388368D01*
X442295Y386862D01*
X443525Y385633D01*
X445031Y384763D01*
X446310Y384421D01*
Y389647D01*
D02*
G37*
G36*
X820059Y389636D02*
X814832D01*
Y384409D01*
X816111Y384752D01*
X817617Y385621D01*
X818847Y386851D01*
X819716Y388357D01*
X820059Y389636D01*
D02*
G37*
G36*
X812292D02*
X807065D01*
X807408Y388357D01*
X808278Y386851D01*
X809507Y385621D01*
X811013Y384752D01*
X812292Y384409D01*
Y389636D01*
D02*
G37*
G36*
X638449Y389382D02*
X633222D01*
Y384155D01*
X634501Y384498D01*
X636007Y385368D01*
X637237Y386597D01*
X638106Y388103D01*
X638449Y389382D01*
D02*
G37*
G36*
X630682D02*
X625455D01*
X625798Y388103D01*
X626668Y386597D01*
X627897Y385368D01*
X629403Y384498D01*
X630682Y384155D01*
Y389382D01*
D02*
G37*
G36*
X1452368Y420048D02*
X1447632D01*
X1442986Y419124D01*
X1438609Y417311D01*
X1434670Y414679D01*
X1431321Y411330D01*
X1428689Y407391D01*
X1426876Y403014D01*
X1425952Y398368D01*
Y393632D01*
X1426876Y388985D01*
X1428689Y384609D01*
X1431321Y380670D01*
X1434670Y377321D01*
X1438609Y374689D01*
X1442986Y372876D01*
X1447632Y371952D01*
X1452368D01*
X1457014Y372876D01*
X1461391Y374689D01*
X1465330Y377321D01*
X1468679Y380670D01*
X1471311Y384609D01*
X1473124Y388985D01*
X1474048Y393632D01*
Y398368D01*
X1473124Y403014D01*
X1471311Y407391D01*
X1468679Y411330D01*
X1465330Y414679D01*
X1461391Y417311D01*
X1457014Y419124D01*
X1452368Y420048D01*
D02*
G37*
G36*
X637032Y343301D02*
Y338074D01*
X642259D01*
X641916Y339353D01*
X641047Y340859D01*
X639817Y342089D01*
X638311Y342958D01*
X637032Y343301D01*
D02*
G37*
G36*
X634492D02*
X633213Y342958D01*
X631707Y342089D01*
X630477Y340859D01*
X629608Y339353D01*
X629265Y338074D01*
X634492D01*
Y343301D01*
D02*
G37*
G36*
X451104Y342793D02*
Y337566D01*
X456331D01*
X455988Y338845D01*
X455118Y340351D01*
X453889Y341581D01*
X452383Y342450D01*
X451104Y342793D01*
D02*
G37*
G36*
X448564D02*
X447285Y342450D01*
X445779Y341581D01*
X444549Y340351D01*
X443680Y338845D01*
X443337Y337566D01*
X448564D01*
Y342793D01*
D02*
G37*
G36*
X1359662Y342539D02*
Y337312D01*
X1364889D01*
X1364546Y338591D01*
X1363676Y340097D01*
X1362447Y341326D01*
X1360941Y342196D01*
X1359662Y342539D01*
D02*
G37*
G36*
X1357122D02*
X1355843Y342196D01*
X1354337Y341326D01*
X1353107Y340097D01*
X1352238Y338591D01*
X1351895Y337312D01*
X1357122D01*
Y342539D01*
D02*
G37*
G36*
X817118Y341269D02*
Y336042D01*
X822345D01*
X822002Y337321D01*
X821133Y338827D01*
X819903Y340056D01*
X818397Y340926D01*
X817118Y341269D01*
D02*
G37*
G36*
X814578D02*
X813299Y340926D01*
X811793Y340056D01*
X810564Y338827D01*
X809694Y337321D01*
X809351Y336042D01*
X814578D01*
Y341269D01*
D02*
G37*
G36*
X1177290Y339999D02*
Y334772D01*
X1182517D01*
X1182174Y336051D01*
X1181304Y337557D01*
X1180075Y338787D01*
X1178569Y339656D01*
X1177290Y339999D01*
D02*
G37*
G36*
X1174750D02*
X1173471Y339656D01*
X1171965Y338787D01*
X1170735Y337557D01*
X1169866Y336051D01*
X1169523Y334772D01*
X1174750D01*
Y339999D01*
D02*
G37*
G36*
X997204Y337713D02*
Y332486D01*
X1002431D01*
X1002088Y333765D01*
X1001218Y335271D01*
X999989Y336501D01*
X998483Y337370D01*
X997204Y337713D01*
D02*
G37*
G36*
X994664D02*
X993385Y337370D01*
X991879Y336501D01*
X990649Y335271D01*
X989780Y333765D01*
X989437Y332486D01*
X994664D01*
Y337713D01*
D02*
G37*
G36*
X642259Y335534D02*
X637032D01*
Y330307D01*
X638311Y330650D01*
X639817Y331520D01*
X641047Y332749D01*
X641916Y334255D01*
X642259Y335534D01*
D02*
G37*
G36*
X634492D02*
X629265D01*
X629608Y334255D01*
X630477Y332749D01*
X631707Y331520D01*
X633213Y330650D01*
X634492Y330307D01*
Y335534D01*
D02*
G37*
G36*
X456331Y335026D02*
X451104D01*
Y329799D01*
X452383Y330142D01*
X453889Y331012D01*
X455118Y332241D01*
X455988Y333747D01*
X456331Y335026D01*
D02*
G37*
G36*
X448564D02*
X443337D01*
X443680Y333747D01*
X444549Y332241D01*
X445779Y331012D01*
X447285Y330142D01*
X448564Y329799D01*
Y335026D01*
D02*
G37*
G36*
X1364889Y334772D02*
X1359662D01*
Y329545D01*
X1360941Y329888D01*
X1362447Y330757D01*
X1363676Y331987D01*
X1364546Y333493D01*
X1364889Y334772D01*
D02*
G37*
G36*
X1357122D02*
X1351895D01*
X1352238Y333493D01*
X1353107Y331987D01*
X1354337Y330757D01*
X1355843Y329888D01*
X1357122Y329545D01*
Y334772D01*
D02*
G37*
G36*
X822345Y333502D02*
X817118D01*
Y328275D01*
X818397Y328618D01*
X819903Y329487D01*
X821133Y330717D01*
X822002Y332223D01*
X822345Y333502D01*
D02*
G37*
G36*
X814578D02*
X809351D01*
X809694Y332223D01*
X810564Y330717D01*
X811793Y329487D01*
X813299Y328618D01*
X814578Y328275D01*
Y333502D01*
D02*
G37*
G36*
X1182517Y332232D02*
X1177290D01*
Y327005D01*
X1178569Y327348D01*
X1180075Y328218D01*
X1181304Y329447D01*
X1182174Y330953D01*
X1182517Y332232D01*
D02*
G37*
G36*
X1174750D02*
X1169523D01*
X1169866Y330953D01*
X1170735Y329447D01*
X1171965Y328218D01*
X1173471Y327348D01*
X1174750Y327005D01*
Y332232D01*
D02*
G37*
G36*
X1002431Y329946D02*
X997204D01*
Y324719D01*
X998483Y325062D01*
X999989Y325932D01*
X1001218Y327161D01*
X1002088Y328667D01*
X1002431Y329946D01*
D02*
G37*
G36*
X994664D02*
X989437D01*
X989780Y328667D01*
X990649Y327161D01*
X991879Y325932D01*
X993385Y325062D01*
X994664Y324719D01*
Y329946D01*
D02*
G37*
G36*
X1477010Y293343D02*
Y285750D01*
X1484603D01*
X1484024Y287911D01*
X1482854Y289939D01*
X1481199Y291594D01*
X1479171Y292764D01*
X1477010Y293343D01*
D02*
G37*
G36*
X1474470D02*
X1472309Y292764D01*
X1470281Y291594D01*
X1468626Y289939D01*
X1467456Y287911D01*
X1466877Y285750D01*
X1474470D01*
Y293343D01*
D02*
G37*
G36*
X1484603Y283210D02*
X1477010D01*
Y275617D01*
X1479171Y276196D01*
X1481199Y277366D01*
X1482854Y279021D01*
X1484024Y281049D01*
X1484603Y283210D01*
D02*
G37*
G36*
X1474470D02*
X1466877D01*
X1467456Y281049D01*
X1468626Y279021D01*
X1470281Y277366D01*
X1472309Y276196D01*
X1474470Y275617D01*
Y283210D01*
D02*
G37*
G36*
X1477010Y222223D02*
Y214630D01*
X1484603D01*
X1484024Y216791D01*
X1482854Y218819D01*
X1481199Y220474D01*
X1479171Y221644D01*
X1477010Y222223D01*
D02*
G37*
G36*
X1474470D02*
X1472309Y221644D01*
X1470281Y220474D01*
X1468626Y218819D01*
X1467456Y216791D01*
X1466877Y214630D01*
X1474470D01*
Y222223D01*
D02*
G37*
G36*
X1484603Y212090D02*
X1477010D01*
Y204497D01*
X1479171Y205076D01*
X1481199Y206246D01*
X1482854Y207901D01*
X1484024Y209929D01*
X1484603Y212090D01*
D02*
G37*
G36*
X1474470D02*
X1466877D01*
X1467456Y209929D01*
X1468626Y207901D01*
X1470281Y206246D01*
X1472309Y205076D01*
X1474470Y204497D01*
Y212090D01*
D02*
G37*
G36*
X1477010Y151103D02*
Y143510D01*
X1484603D01*
X1484024Y145671D01*
X1482854Y147699D01*
X1481199Y149354D01*
X1479171Y150524D01*
X1477010Y151103D01*
D02*
G37*
G36*
X1474470D02*
X1472309Y150524D01*
X1470281Y149354D01*
X1468626Y147699D01*
X1467456Y145671D01*
X1466877Y143510D01*
X1474470D01*
Y151103D01*
D02*
G37*
G36*
X1484603Y140970D02*
X1477010D01*
Y133377D01*
X1479171Y133956D01*
X1481199Y135126D01*
X1482854Y136781D01*
X1484024Y138809D01*
X1484603Y140970D01*
D02*
G37*
G36*
X1474470D02*
X1466877D01*
X1467456Y138809D01*
X1468626Y136781D01*
X1470281Y135126D01*
X1472309Y133956D01*
X1474470Y133377D01*
Y140970D01*
D02*
G37*
G36*
X1477010Y79983D02*
Y72390D01*
X1484603D01*
X1484024Y74551D01*
X1482854Y76579D01*
X1481199Y78234D01*
X1479171Y79404D01*
X1477010Y79983D01*
D02*
G37*
G36*
X1474470D02*
X1472309Y79404D01*
X1470281Y78234D01*
X1468626Y76579D01*
X1467456Y74551D01*
X1466877Y72390D01*
X1474470D01*
Y79983D01*
D02*
G37*
G36*
X1484603Y69850D02*
X1477010D01*
Y62257D01*
X1479171Y62836D01*
X1481199Y64006D01*
X1482854Y65661D01*
X1484024Y67689D01*
X1484603Y69850D01*
D02*
G37*
G36*
X1474470D02*
X1466877D01*
X1467456Y67689D01*
X1468626Y65661D01*
X1470281Y64006D01*
X1472309Y62836D01*
X1474470Y62257D01*
Y69850D01*
D02*
G37*
%LPD*%
D13*
X125760Y638810D02*
X127000D01*
X100610Y614900D02*
X101850D01*
X125760Y638810D01*
X48260Y501650D02*
X167640D01*
X36830Y513080D02*
Y601920D01*
Y513080D02*
X48260Y501650D01*
X316230Y783470D02*
Y894869D01*
Y783470D02*
X352806Y746894D01*
Y745708D02*
X353550Y744964D01*
X352806Y745708D02*
Y746894D01*
X354294Y744220D02*
X355600D01*
X353550Y744964D02*
X354294Y744220D01*
X367284Y489458D02*
X393410Y463332D01*
X524923D01*
X1375156Y740156D02*
X1375410Y740410D01*
X1437640D01*
X1350772Y717804D02*
X1351841Y716735D01*
X1442265D02*
X1443990Y715010D01*
X1351841Y716735D02*
X1442265D01*
X408940Y703580D02*
Y798830D01*
X379730Y828040D02*
X408940Y798830D01*
X172720Y506730D02*
Y534162D01*
X173609Y535051D01*
Y577723D01*
X174498Y578612D01*
X167640Y501650D02*
X172720Y506730D01*
X48792Y921004D02*
X113792D01*
X329210Y782548D02*
X367284Y744474D01*
Y489458D02*
Y744474D01*
X231140Y631444D02*
X261866D01*
X218948Y643636D02*
X231140Y631444D01*
X261866D02*
X278410Y614900D01*
X193135Y643368D02*
X207090Y629413D01*
X213097D01*
X227610Y614900D01*
X379730Y828040D02*
Y868620D01*
X253378Y911492D02*
X253746Y911860D01*
X252743Y869167D02*
X253378Y869802D01*
Y911492D01*
X354851Y869141D02*
Y909587D01*
X355092Y909828D01*
X1237742Y582930D02*
Y613918D01*
X1238250Y614426D01*
X1237742Y614934D02*
Y772922D01*
Y614934D02*
X1238250Y614426D01*
X1237742Y582930D02*
X1257554Y563118D01*
X1237742Y772922D02*
X1252220Y787400D01*
X1260348Y606044D02*
Y765302D01*
Y606044D02*
X1277874Y588518D01*
X1260348Y765302D02*
X1275236Y780190D01*
X382016Y693420D02*
Y744474D01*
X342482Y784008D02*
X382016Y744474D01*
X354610Y868900D02*
X354851Y869141D01*
X207010Y842010D02*
X254254D01*
X278410Y866166D02*
Y868900D01*
X254254Y842010D02*
X278410Y866166D01*
X379730Y868620D02*
X380010Y868900D01*
Y916152D01*
X364490Y931672D02*
X380010Y916152D01*
X151410Y894868D02*
X199390Y942848D01*
X200152D01*
X126010Y898932D02*
X179578Y952500D01*
X180086D01*
X126010Y868900D02*
Y898932D01*
X151410Y868900D02*
Y894868D01*
X1277874Y588518D02*
X1442974D01*
X1275236Y785016D02*
X1277620Y787400D01*
X1275236Y780190D02*
Y785016D01*
X1257554Y563118D02*
X1442974D01*
X173228Y868934D02*
X178308Y874014D01*
X202210Y583412D02*
X215646Y569976D01*
X202210Y583412D02*
Y614900D01*
X243078Y563880D02*
X253010Y573812D01*
Y614900D01*
X227610Y566140D02*
X244856Y548894D01*
X227610Y566140D02*
Y614900D01*
X405410Y556742D02*
X417576Y544576D01*
X405410Y556742D02*
Y614900D01*
X303022Y540258D02*
X303416Y540652D01*
Y614506D01*
X303810Y614900D01*
X329210Y542824D02*
Y652500D01*
X322072Y535686D02*
X329210Y542824D01*
X537210Y533654D02*
Y657860D01*
X528828Y525272D02*
X537210Y533654D01*
X253010Y866420D02*
Y867436D01*
Y868900D01*
X178308Y900430D02*
X189230Y911352D01*
X178308Y874014D02*
Y900430D01*
X173228Y868934D02*
X173262Y868900D01*
X176810D01*
X309880Y942340D02*
X342482Y909738D01*
X309880Y942340D02*
Y975360D01*
X342482Y784008D02*
Y909738D01*
X284480Y926619D02*
X316230Y894869D01*
X1437640Y738886D02*
X1442466D01*
X1443990Y740410D01*
X329210Y782548D02*
Y868900D01*
X341630Y465328D02*
Y720090D01*
X341122Y464820D02*
X341630Y465328D01*
X304800Y756920D02*
Y868900D01*
Y870230D02*
Y871220D01*
Y756920D02*
X341630Y720090D01*
X304800Y868900D02*
Y870230D01*
X303810D02*
X304800Y871220D01*
X303810Y868900D02*
Y870230D01*
X406400Y670560D02*
X524510D01*
X394970Y681990D02*
Y728980D01*
Y681990D02*
X406400Y670560D01*
X524510D02*
X537210Y657860D01*
X243737Y667258D02*
X314452D01*
X329210Y652500D01*
X36830Y601920D02*
X49810Y614900D01*
X64830Y629920D01*
X91617D01*
X103832Y642135D01*
X57150Y579120D02*
X75210Y597180D01*
Y614900D01*
X57150Y579120D02*
X122150D01*
X284480Y926619D02*
Y975360D01*
X204318Y853288D02*
X239878D01*
X193040Y842010D02*
X204318Y853288D01*
X239878D02*
X253010Y866420D01*
D69*
X278410Y552424D02*
X285496Y545338D01*
X278410Y552424D02*
Y614900D01*
D70*
X466548Y501811D02*
X466782Y501577D01*
X1328420Y703580D02*
X1342390Y689610D01*
X1459230D01*
X974090Y875030D02*
Y979170D01*
X995680Y853440D02*
X1310640D01*
X974090Y875030D02*
X995680Y853440D01*
X1328420Y787400D02*
Y835660D01*
X1310640Y853440D02*
X1328420Y835660D01*
X1442974Y613918D02*
X1462278D01*
X1473200Y624840D01*
Y675640D01*
X1459230Y689610D02*
X1473200Y675640D01*
X1328420Y703580D02*
Y787400D01*
X791210Y783590D02*
Y831850D01*
X515620Y772160D02*
X779780D01*
X791210Y783590D01*
Y859790D02*
Y979170D01*
Y859790D02*
X805180Y845820D01*
X791210Y831850D02*
X805180Y845820D01*
X866140D01*
X887730Y788670D02*
Y824230D01*
X866140Y845820D02*
X887730Y824230D01*
X519430Y831850D02*
X547370D01*
X557530Y842010D01*
Y946150D01*
X506730Y819150D02*
X519430Y831850D01*
X506730Y781050D02*
Y791210D01*
Y819150D01*
X800100Y1000760D02*
X962660D01*
X791210Y979170D02*
X792140Y980099D01*
Y992800D01*
X800100Y1000760D01*
X962660D02*
X971574Y991846D01*
Y981686D02*
Y991846D01*
Y981686D02*
X974090Y979170D01*
X506730Y781050D02*
X515620Y772160D01*
X411480Y975360D02*
X528320D01*
X557530Y946150D01*
X466548Y501811D02*
Y536398D01*
X507010Y576860D01*
Y614900D01*
D71*
X455168Y744982D02*
X455422Y744728D01*
X564642D02*
X564896Y744474D01*
X455422Y744728D02*
X564642D01*
D72*
X173228Y226822D02*
X260939D01*
X143510Y256540D02*
X173228Y226822D01*
X187960Y411480D02*
X215402Y384038D01*
X118077Y411480D02*
X187960D01*
X215402Y262988D02*
Y384038D01*
X117969Y411588D02*
X118077Y411480D01*
X143510Y256540D02*
Y304800D01*
D73*
X1286000Y38100D02*
D03*
X1336000D02*
D03*
X1386000D02*
D03*
X1206000D02*
D03*
X1156000D02*
D03*
X1106000D02*
D03*
X926000D02*
D03*
X976000D02*
D03*
X1026000D02*
D03*
X846000D02*
D03*
X796000D02*
D03*
X746000D02*
D03*
X386000D02*
D03*
X436000D02*
D03*
X486000D02*
D03*
X666000D02*
D03*
X616000D02*
D03*
X566000D02*
D03*
X974090Y979170D02*
D03*
X924090D02*
D03*
X874090D02*
D03*
X691210D02*
D03*
X741210D02*
D03*
X791210D02*
D03*
X1276000Y126000D02*
D03*
X1336000Y268000D02*
D03*
X1156000D02*
D03*
X1096000Y126000D02*
D03*
X916000D02*
D03*
X976000Y268000D02*
D03*
X796000D02*
D03*
X736000Y126000D02*
D03*
X376000D02*
D03*
X436000Y268000D02*
D03*
X616000D02*
D03*
X556000Y126000D02*
D03*
D74*
X1057910Y975360D02*
D03*
X1108710D02*
D03*
X1159510D02*
D03*
X1210310D02*
D03*
X1261110D02*
D03*
D75*
X1276000Y248000D02*
D03*
X1396000D02*
D03*
X1216000D02*
D03*
X1096000D02*
D03*
X916000D02*
D03*
X1036000D02*
D03*
X856000D02*
D03*
X736000D02*
D03*
X376000D02*
D03*
X496000D02*
D03*
X676000D02*
D03*
X556000D02*
D03*
X284480Y975360D02*
D03*
X309880D02*
D03*
X335280D02*
D03*
X360680D02*
D03*
X386080D02*
D03*
X1303020Y787400D02*
D03*
X1252220D02*
D03*
X1226820D02*
D03*
X1201420D02*
D03*
X1176020D02*
D03*
X1150620D02*
D03*
X1125220D02*
D03*
X1099820D02*
D03*
X1277620D02*
D03*
X938530Y788670D02*
D03*
X963930D02*
D03*
X913130D02*
D03*
X887730D02*
D03*
X862330D02*
D03*
X836930D02*
D03*
X915670Y633730D02*
D03*
X890270D02*
D03*
X864870D02*
D03*
X839470D02*
D03*
X507010Y614900D02*
D03*
X481610D02*
D03*
X456210D02*
D03*
X430810D02*
D03*
X405410D02*
D03*
X380010D02*
D03*
X354610D02*
D03*
X329210D02*
D03*
X303810D02*
D03*
X278410D02*
D03*
X253010D02*
D03*
X227610D02*
D03*
X202210D02*
D03*
X176810D02*
D03*
X151410D02*
D03*
X126010D02*
D03*
X100610D02*
D03*
X75210D02*
D03*
X507010Y868900D02*
D03*
X481610D02*
D03*
X456210D02*
D03*
X430810D02*
D03*
X405410D02*
D03*
X380010D02*
D03*
X354610D02*
D03*
X329210D02*
D03*
X303810D02*
D03*
X278410D02*
D03*
X253010D02*
D03*
X227610D02*
D03*
X202210D02*
D03*
X176810D02*
D03*
X151410D02*
D03*
X126010D02*
D03*
X100610D02*
D03*
X75210D02*
D03*
X1443990Y791210D02*
D03*
Y765810D02*
D03*
Y740410D02*
D03*
Y715010D02*
D03*
X1442974Y537718D02*
D03*
Y563118D02*
D03*
Y588518D02*
D03*
D76*
X1396000Y126000D02*
D03*
X1216000D02*
D03*
X1036000D02*
D03*
X856000D02*
D03*
X496000D02*
D03*
X676000D02*
D03*
D77*
X123190Y41910D02*
D03*
X173990D02*
D03*
D78*
X411480Y975360D02*
D03*
X1328420Y787400D02*
D03*
X989330Y788670D02*
D03*
X941070Y633730D02*
D03*
X49810Y614900D02*
D03*
Y868900D02*
D03*
D79*
X122150Y579120D02*
D03*
X57150D02*
D03*
X122150Y534120D02*
D03*
X57150D02*
D03*
X113792Y966004D02*
D03*
X48792D02*
D03*
X113792Y921004D02*
D03*
X48792D02*
D03*
D80*
X1443990Y689610D02*
D03*
X1442974Y613918D02*
D03*
D81*
X995934Y331216D02*
D03*
X466782Y501577D02*
D03*
X1358392Y336042D02*
D03*
X1351280Y396240D02*
D03*
X447580Y390917D02*
D03*
X449834Y336296D02*
D03*
X635762Y336804D02*
D03*
X631952Y390652D02*
D03*
X1176020Y333502D02*
D03*
X815848Y334772D02*
D03*
X813562Y390906D02*
D03*
X1174242Y393446D02*
D03*
X988060Y392430D02*
D03*
X260939Y226822D02*
D03*
X1375156Y740156D02*
D03*
X1350772Y717804D02*
D03*
X564896Y744474D02*
D03*
X355600Y744220D02*
D03*
X408940Y703580D02*
D03*
X79043Y843779D02*
D03*
X455168Y744982D02*
D03*
X460248Y766572D02*
D03*
X237744Y292862D02*
D03*
X172720Y534162D02*
D03*
X152654Y535178D02*
D03*
X765810Y511556D02*
D03*
X218948Y643636D02*
D03*
X193135Y643368D02*
D03*
X466146Y791064D02*
D03*
X253746Y911860D02*
D03*
X355092Y909828D02*
D03*
X1238250Y614426D02*
D03*
X1260348Y649478D02*
D03*
X382016Y693420D02*
D03*
X364490Y931672D02*
D03*
X200152Y942848D02*
D03*
X180086Y952500D02*
D03*
X174498Y578612D02*
D03*
X215646Y569976D02*
D03*
X285496Y545338D02*
D03*
X243078Y563880D02*
D03*
X244856Y548894D02*
D03*
X417576Y544576D02*
D03*
X303022Y540258D02*
D03*
X322072Y535686D02*
D03*
X528828Y525272D02*
D03*
X189230Y911352D02*
D03*
X524923Y463332D02*
D03*
X341122Y464820D02*
D03*
X117969Y411588D02*
D03*
X215402Y262988D02*
D03*
X143510Y304800D02*
D03*
X396240Y510540D02*
D03*
X944880Y511810D02*
D03*
X1122680D02*
D03*
X585470D02*
D03*
X1290320Y516890D02*
D03*
X243737Y667258D02*
D03*
X506730Y791210D02*
D03*
X394970Y728980D02*
D03*
X193040Y842010D02*
D03*
X207010D02*
D03*
X127000Y638810D02*
D03*
X103832Y642135D02*
D03*
D82*
X1475740Y142240D02*
D03*
Y284480D02*
D03*
Y213360D02*
D03*
Y71120D02*
D03*
D83*
X353550Y744964D02*
D03*
D84*
X1386000Y39940D02*
X1396000Y49940D01*
Y126000D01*
X1336000Y38100D02*
Y268000D01*
X1276000Y49940D02*
X1286000Y39940D01*
X1276000Y49940D02*
Y126000D01*
X1206000Y39940D02*
X1216000Y49940D01*
Y126000D01*
X1096000Y49940D02*
X1106000Y39940D01*
X1096000Y49940D02*
Y126000D01*
X1156000Y38100D02*
Y268000D01*
X1026000Y39940D02*
X1036000Y49940D01*
Y126000D01*
X976000Y38100D02*
Y268000D01*
X916000Y49940D02*
X926000Y39940D01*
X916000Y49940D02*
Y126000D01*
X846000Y39940D02*
X856000Y49940D01*
Y126000D01*
X796000Y38100D02*
Y268000D01*
X736000Y49940D02*
X746000Y39940D01*
X736000Y49940D02*
Y126000D01*
X666000Y39940D02*
X676000Y49940D01*
Y126000D01*
X556000Y49940D02*
X566000Y39940D01*
X556000Y49940D02*
Y126000D01*
X616000Y38100D02*
Y268000D01*
X486000Y39940D02*
X496000Y49940D01*
Y126000D01*
X376000Y49940D02*
Y126000D01*
Y49940D02*
X386000Y39940D01*
X436000Y38100D02*
Y268000D01*
M02*
