G04*
G04 #@! TF.GenerationSoftware,Altium Limited,Altium Designer,22.5.1 (42)*
G04*
G04 Layer_Color=8421504*
%FSLAX44Y44*%
%MOMM*%
G71*
G04*
G04 #@! TF.SameCoordinates,28BCCD68-7A0F-436D-B701-B886F59BC7BE*
G04*
G04*
G04 #@! TF.FilePolarity,Positive*
G04*
G01*
G75*
%ADD14R,0.6300X1.2200*%
%ADD15R,0.9000X1.5000*%
%ADD16R,1.5000X0.9000*%
%ADD17R,0.9000X0.9000*%
%ADD18R,1.4500X2.2000*%
%ADD19R,3.2000X1.6000*%
%ADD20R,4.0000X2.0500*%
%ADD21R,2.0500X4.0000*%
%ADD22R,1.0000X1.6000*%
%ADD23R,0.9500X1.2500*%
%ADD24R,1.2000X1.2000*%
%ADD25R,1.7500X0.9500*%
%ADD26R,1.7500X3.2000*%
%ADD27R,1.4500X1.1500*%
%ADD28R,0.9500X1.4000*%
%ADD29R,1.1000X0.6000*%
%ADD30R,1.4000X0.9500*%
%ADD31R,1.1500X1.4500*%
%ADD32R,0.6000X1.1000*%
%ADD33R,5.0800X8.3300*%
%ADD34R,1.9100X10.8000*%
%ADD35R,2.1600X1.0700*%
D14*
X1321600Y303530D02*
D03*
X1358100D02*
D03*
X1175220Y304800D02*
D03*
X1138720D02*
D03*
X959142Y303530D02*
D03*
X995642D02*
D03*
X815810D02*
D03*
X779310D02*
D03*
X413550D02*
D03*
X450050D02*
D03*
X635724D02*
D03*
X599224D02*
D03*
D15*
X91440Y655320D02*
D03*
X104140D02*
D03*
X116840D02*
D03*
X129540D02*
D03*
X142240D02*
D03*
X154940D02*
D03*
X167640D02*
D03*
X180340D02*
D03*
X193040D02*
D03*
X205740D02*
D03*
X218440D02*
D03*
X231140D02*
D03*
X243840D02*
D03*
X256540D02*
D03*
Y830320D02*
D03*
X243840D02*
D03*
X231140D02*
D03*
X218440D02*
D03*
X205740D02*
D03*
X193040D02*
D03*
X180340D02*
D03*
X167640D02*
D03*
X154940D02*
D03*
X142240D02*
D03*
X129540D02*
D03*
X116840D02*
D03*
X104140D02*
D03*
X91440D02*
D03*
D16*
X269040Y685670D02*
D03*
Y698370D02*
D03*
Y711070D02*
D03*
Y723770D02*
D03*
Y736470D02*
D03*
Y749170D02*
D03*
Y761870D02*
D03*
Y774570D02*
D03*
Y787270D02*
D03*
Y799970D02*
D03*
D17*
X154640Y713820D02*
D03*
X168640D02*
D03*
X182640D02*
D03*
Y727820D02*
D03*
Y741820D02*
D03*
X168640D02*
D03*
X154640D02*
D03*
Y727820D02*
D03*
X168640D02*
D03*
D18*
X237490Y267970D02*
D03*
Y226970D02*
D03*
D19*
X139700Y322530D02*
D03*
Y411530D02*
D03*
D20*
X185900Y138430D02*
D03*
X118900D02*
D03*
D21*
X266700Y403860D02*
D03*
Y336860D02*
D03*
D22*
X1330960Y489010D02*
D03*
X1305560D02*
D03*
Y397510D02*
D03*
X1330960D02*
D03*
X1155700Y393670D02*
D03*
X1130300D02*
D03*
Y485170D02*
D03*
X1155700D02*
D03*
X974090Y483900D02*
D03*
X948690D02*
D03*
Y392400D02*
D03*
X974090D02*
D03*
X796290Y391130D02*
D03*
X770890D02*
D03*
Y482630D02*
D03*
X796290D02*
D03*
X429260D02*
D03*
X403860D02*
D03*
Y391130D02*
D03*
X429260D02*
D03*
X614680Y392430D02*
D03*
X589280D02*
D03*
Y483930D02*
D03*
X614680D02*
D03*
D23*
X1329820Y516890D02*
D03*
X1314320D02*
D03*
X1140330Y513080D02*
D03*
X1155830D02*
D03*
X974350Y511810D02*
D03*
X958850D02*
D03*
X413890Y510540D02*
D03*
X429390D02*
D03*
X614810Y511810D02*
D03*
X599310D02*
D03*
X791470Y918210D02*
D03*
X775970D02*
D03*
X796420Y510540D02*
D03*
X780920D02*
D03*
D24*
X732790Y482940D02*
D03*
Y461940D02*
D03*
X365760Y482940D02*
D03*
Y461940D02*
D03*
X552450Y484210D02*
D03*
Y463210D02*
D03*
X1267460Y469560D02*
D03*
Y490560D02*
D03*
X1093470Y465750D02*
D03*
Y486750D02*
D03*
X910590Y464480D02*
D03*
Y485480D02*
D03*
D25*
X479040Y767220D02*
D03*
Y744220D02*
D03*
Y721220D02*
D03*
D26*
X542040Y744220D02*
D03*
D27*
X141478Y933848D02*
D03*
Y951848D02*
D03*
X193040Y544720D02*
D03*
Y562720D02*
D03*
X152400Y544720D02*
D03*
Y562720D02*
D03*
D28*
X354940Y695960D02*
D03*
X335940D02*
D03*
X354940Y726440D02*
D03*
X335940D02*
D03*
X405130Y363220D02*
D03*
X424130D02*
D03*
X589940D02*
D03*
X608940D02*
D03*
X769518D02*
D03*
X788518D02*
D03*
X949350D02*
D03*
X968350D02*
D03*
X1306220Y368300D02*
D03*
X1325220D02*
D03*
X1148690Y364490D02*
D03*
X1129690D02*
D03*
D29*
X393270Y739140D02*
D03*
X371270Y729640D02*
D03*
Y748640D02*
D03*
X393270Y703580D02*
D03*
X371270Y694080D02*
D03*
Y713080D02*
D03*
D30*
X172720Y542950D02*
D03*
Y561950D02*
D03*
D31*
X495410Y791210D02*
D03*
X477410D02*
D03*
X495410Y697230D02*
D03*
X477410D02*
D03*
D32*
X414020Y323010D02*
D03*
X404520Y345010D02*
D03*
X423520D02*
D03*
X599440Y323010D02*
D03*
X589940Y345010D02*
D03*
X608940D02*
D03*
X779272Y323010D02*
D03*
X769772Y345010D02*
D03*
X788772D02*
D03*
X958850Y323010D02*
D03*
X949350Y345010D02*
D03*
X968350D02*
D03*
X1139190Y324280D02*
D03*
X1129690Y346280D02*
D03*
X1148690D02*
D03*
X1315720Y327660D02*
D03*
X1306220Y349660D02*
D03*
X1325220D02*
D03*
D33*
X102870Y246380D02*
D03*
D34*
X67920D02*
D03*
D35*
X200070Y280380D02*
D03*
Y263380D02*
D03*
Y246380D02*
D03*
Y229380D02*
D03*
Y212380D02*
D03*
M02*
