G04*
G04 #@! TF.GenerationSoftware,Altium Limited,Altium Designer,22.5.1 (42)*
G04*
G04 Layer_Physical_Order=1*
G04 Layer_Color=255*
%FSLAX44Y44*%
%MOMM*%
G71*
G04*
G04 #@! TF.SameCoordinates,28BCCD68-7A0F-436D-B701-B886F59BC7BE*
G04*
G04*
G04 #@! TF.FilePolarity,Positive*
G04*
G01*
G75*
%ADD13C,0.2540*%
%ADD14R,0.6300X1.2200*%
%ADD15R,0.9000X1.5000*%
%ADD16R,1.5000X0.9000*%
%ADD17R,0.9000X0.9000*%
%ADD18R,1.4500X2.2000*%
%ADD19R,3.2000X1.6000*%
%ADD20R,4.0000X2.0500*%
%ADD21R,2.0500X4.0000*%
%ADD22R,1.0000X1.6000*%
%ADD23R,0.9500X1.2500*%
%ADD24R,1.2000X1.2000*%
%ADD25R,1.7500X0.9500*%
%ADD26R,1.7500X3.2000*%
%ADD27R,1.4500X1.1500*%
%ADD28R,0.9500X1.4000*%
%ADD29R,1.1000X0.6000*%
%ADD30R,1.4000X0.9500*%
%ADD31R,1.1500X1.4500*%
%ADD32R,0.6000X1.1000*%
%ADD33R,5.0800X8.3300*%
%ADD34R,1.9100X10.8000*%
%ADD35R,2.1600X1.0700*%
%ADD69C,0.3048*%
%ADD70C,0.6350*%
%ADD71C,0.5080*%
%ADD72C,1.2700*%
%ADD73C,1.9500*%
%ADD74C,1.8000*%
%ADD75C,1.5000*%
%ADD76R,1.9500X1.9500*%
%ADD77C,1.6500*%
%ADD78R,1.5000X1.5000*%
%ADD79C,1.5750*%
%ADD80R,1.5000X1.5000*%
%ADD81C,0.8128*%
%ADD82C,1.2700*%
G36*
X1511300Y12700D02*
X1435100D01*
Y317500D01*
X1364445D01*
Y332302D01*
X1365019Y333297D01*
X1365504Y335106D01*
Y336978D01*
X1365019Y338787D01*
X1364083Y340409D01*
X1362759Y341733D01*
X1361137Y342669D01*
X1359328Y343154D01*
X1357456D01*
X1355647Y342669D01*
X1354025Y341733D01*
X1352701Y340409D01*
X1351765Y338787D01*
X1351280Y336978D01*
Y335106D01*
X1351755Y333333D01*
Y317500D01*
X1326135D01*
X1326086Y317573D01*
X1322065Y321595D01*
Y327660D01*
X1321768Y329153D01*
Y336208D01*
X1309672D01*
Y329153D01*
X1309375Y327660D01*
Y318966D01*
X1309471Y318482D01*
X1308666Y317500D01*
X1181565D01*
Y328989D01*
X1181711Y329135D01*
X1182647Y330757D01*
X1183132Y332566D01*
Y334438D01*
X1182647Y336247D01*
X1181711Y337869D01*
X1180387Y339193D01*
X1178765Y340129D01*
X1176956Y340614D01*
X1175084D01*
X1173275Y340129D01*
X1171653Y339193D01*
X1170329Y337869D01*
X1169393Y336247D01*
X1168908Y334438D01*
Y332868D01*
X1168875Y332702D01*
Y317500D01*
X1145238D01*
Y332828D01*
X1133142D01*
Y324370D01*
X1133033Y323820D01*
Y318570D01*
X1133023Y318520D01*
Y317500D01*
X1001987D01*
Y327476D01*
X1002561Y328471D01*
X1003046Y330280D01*
Y332152D01*
X1002561Y333961D01*
X1001625Y335583D01*
X1000301Y336907D01*
X998679Y337843D01*
X996870Y338328D01*
X994998D01*
X993189Y337843D01*
X991567Y336907D01*
X990243Y335583D01*
X989307Y333961D01*
X988822Y332152D01*
Y330280D01*
X989297Y328507D01*
Y317500D01*
X964898D01*
Y331558D01*
X952802D01*
Y317500D01*
X822155D01*
Y331472D01*
X822475Y332027D01*
X822960Y333836D01*
Y335708D01*
X822475Y337517D01*
X821539Y339139D01*
X820215Y340463D01*
X818593Y341399D01*
X816784Y341884D01*
X814912D01*
X813103Y341399D01*
X811481Y340463D01*
X810157Y339139D01*
X809221Y337517D01*
X808736Y335708D01*
Y333836D01*
X809221Y332027D01*
X809465Y331604D01*
Y317500D01*
X785617D01*
Y323010D01*
X785320Y324503D01*
Y331558D01*
X773224D01*
Y324503D01*
X772927Y323010D01*
Y317500D01*
X641853D01*
Y333130D01*
X642389Y334059D01*
X642874Y335868D01*
Y337740D01*
X642389Y339549D01*
X641453Y341171D01*
X640129Y342495D01*
X638507Y343431D01*
X636698Y343916D01*
X634826D01*
X633017Y343431D01*
X631395Y342495D01*
X630071Y341171D01*
X629135Y339549D01*
X628650Y337740D01*
Y335868D01*
X629135Y334059D01*
X629163Y334010D01*
Y317500D01*
X605785D01*
Y323010D01*
X605488Y324503D01*
Y331558D01*
X593392D01*
Y324503D01*
X593095Y323010D01*
Y317500D01*
X456395D01*
Y333436D01*
X456461Y333551D01*
X456946Y335360D01*
Y337232D01*
X456461Y339041D01*
X455525Y340663D01*
X454201Y341987D01*
X452579Y342923D01*
X450770Y343408D01*
X448898D01*
X447089Y342923D01*
X445467Y341987D01*
X444143Y340663D01*
X443207Y339041D01*
X442722Y337232D01*
Y335360D01*
X443207Y333551D01*
X443705Y332688D01*
Y317500D01*
X420068D01*
Y331558D01*
X407972D01*
Y317500D01*
X330200D01*
Y12700D01*
X149158D01*
Y161992D01*
X220674D01*
X220974Y162052D01*
X221280D01*
X221535Y162103D01*
X221818Y162220D01*
X221863Y162229D01*
X221901Y162254D01*
X222656Y162567D01*
X223085Y162995D01*
X223513Y163424D01*
X223826Y164179D01*
X223851Y164217D01*
X223860Y164262D01*
X223977Y164545D01*
X224028Y164800D01*
Y165106D01*
X224088Y165406D01*
Y219901D01*
X227192D01*
Y212922D01*
X247788D01*
Y217343D01*
X260939D01*
X263393Y217666D01*
X265679Y218613D01*
X267642Y220119D01*
X269148Y222083D01*
X270095Y224369D01*
X270418Y226822D01*
X270095Y229275D01*
X269148Y231562D01*
X267642Y233525D01*
X265679Y235031D01*
X263393Y235978D01*
X260939Y236301D01*
X247788D01*
Y241018D01*
X227192D01*
Y238859D01*
X213410D01*
Y245110D01*
X186730D01*
Y238490D01*
X186222Y237778D01*
X186222D01*
Y226628D01*
X161596D01*
X161296Y226568D01*
X160990D01*
X160735Y226517D01*
X160452Y226400D01*
X160407Y226391D01*
X160369Y226366D01*
X159614Y226053D01*
X159185Y225625D01*
X158757Y225196D01*
X158444Y224441D01*
X158419Y224403D01*
X158410Y224358D01*
X158293Y224076D01*
X158242Y223820D01*
Y223514D01*
X158182Y223214D01*
Y207027D01*
X144763Y193608D01*
X80518D01*
Y201682D01*
X131318D01*
Y291078D01*
X80518D01*
Y303428D01*
X55322D01*
Y193608D01*
X25706D01*
X25406Y193548D01*
X25100D01*
X24845Y193497D01*
X24562Y193380D01*
X24517Y193371D01*
X24479Y193346D01*
X23724Y193033D01*
X23296Y192605D01*
X22867Y192176D01*
X22554Y191421D01*
X22529Y191383D01*
X22520Y191338D01*
X22403Y191056D01*
X22352Y190800D01*
Y190494D01*
X22292Y190194D01*
Y12700D01*
X12700D01*
Y647700D01*
X84400D01*
Y645280D01*
X90170D01*
Y655320D01*
Y665360D01*
X86360D01*
Y820280D01*
X90170D01*
Y830320D01*
Y840816D01*
X85395Y845591D01*
X85197Y846328D01*
X84328Y847834D01*
X83098Y849063D01*
X81593Y849933D01*
X80314Y850276D01*
Y843779D01*
Y837282D01*
X81053Y837480D01*
X84144Y834390D01*
X83781Y833120D01*
X12700D01*
Y1003300D01*
X1511300D01*
X1511300Y12700D01*
D02*
G37*
G36*
X186222Y220982D02*
X186222D01*
X186730Y220270D01*
Y213650D01*
X213410D01*
Y219901D01*
X220980D01*
Y165406D01*
X220929Y165151D01*
X220674Y165100D01*
X146050D01*
Y161992D01*
Y12700D01*
X25400D01*
Y190194D01*
X25451Y190449D01*
X25706Y190500D01*
X55322D01*
Y189332D01*
X80518D01*
Y190500D01*
X146050D01*
X161290Y205740D01*
Y223214D01*
X161341Y223469D01*
X161596Y223520D01*
X186222D01*
Y220982D01*
D02*
G37*
%LPC*%
G36*
X875708Y991460D02*
X875360D01*
Y980440D01*
X886380D01*
Y980788D01*
X885543Y983914D01*
X883924Y986716D01*
X881636Y989004D01*
X878834Y990622D01*
X875708Y991460D01*
D02*
G37*
G36*
X692828D02*
X692480D01*
Y980440D01*
X703500D01*
Y980788D01*
X702663Y983914D01*
X701044Y986716D01*
X698756Y989004D01*
X695954Y990622D01*
X692828Y991460D01*
D02*
G37*
G36*
X872820D02*
X872472D01*
X869346Y990622D01*
X866544Y989004D01*
X864256Y986716D01*
X862637Y983914D01*
X861800Y980788D01*
Y980440D01*
X872820D01*
Y991460D01*
D02*
G37*
G36*
X689940D02*
X689592D01*
X686466Y990622D01*
X683664Y989004D01*
X681376Y986716D01*
X679758Y983914D01*
X678920Y980788D01*
Y980440D01*
X689940D01*
Y991460D01*
D02*
G37*
G36*
X387402Y985400D02*
X387350D01*
Y976630D01*
X396120D01*
Y976682D01*
X395436Y979235D01*
X394114Y981525D01*
X392245Y983394D01*
X389955Y984716D01*
X387402Y985400D01*
D02*
G37*
G36*
X1059429Y986900D02*
X1059180D01*
Y976630D01*
X1069450D01*
Y976879D01*
X1068663Y979814D01*
X1067144Y982446D01*
X1064996Y984594D01*
X1062364Y986114D01*
X1059429Y986900D01*
D02*
G37*
G36*
X384810Y985400D02*
X384758D01*
X382205Y984716D01*
X379915Y983394D01*
X378046Y981525D01*
X376724Y979235D01*
X376040Y976682D01*
Y976630D01*
X384810D01*
Y985400D01*
D02*
G37*
G36*
X1056640Y986900D02*
X1056391D01*
X1053456Y986114D01*
X1050824Y984594D01*
X1048676Y982446D01*
X1047157Y979814D01*
X1046370Y976879D01*
Y976630D01*
X1056640D01*
Y986900D01*
D02*
G37*
G36*
X50163Y976419D02*
X50062D01*
Y967274D01*
X59207D01*
Y967375D01*
X58497Y970024D01*
X57126Y972399D01*
X55187Y974338D01*
X52812Y975709D01*
X50163Y976419D01*
D02*
G37*
G36*
X112522D02*
X112421D01*
X109772Y975709D01*
X107397Y974338D01*
X105458Y972399D01*
X104087Y970024D01*
X103377Y967375D01*
Y967274D01*
X112522D01*
Y976419D01*
D02*
G37*
G36*
X47522D02*
X47421D01*
X44772Y975709D01*
X42397Y974338D01*
X40458Y972399D01*
X39087Y970024D01*
X38377Y967375D01*
Y967274D01*
X47522D01*
Y976419D01*
D02*
G37*
G36*
X886380Y977900D02*
X875360D01*
Y966880D01*
X875708D01*
X878834Y967718D01*
X881636Y969336D01*
X883924Y971624D01*
X885543Y974426D01*
X886380Y977552D01*
Y977900D01*
D02*
G37*
G36*
X872820D02*
X861800D01*
Y977552D01*
X862637Y974426D01*
X864256Y971624D01*
X866544Y969336D01*
X869346Y967718D01*
X872472Y966880D01*
X872820D01*
Y977900D01*
D02*
G37*
G36*
X703500D02*
X692480D01*
Y966880D01*
X692828D01*
X695954Y967718D01*
X698756Y969336D01*
X701044Y971624D01*
X702663Y974426D01*
X703500Y977552D01*
Y977900D01*
D02*
G37*
G36*
X689940D02*
X678920D01*
Y977552D01*
X679758Y974426D01*
X681376Y971624D01*
X683664Y969336D01*
X686466Y967718D01*
X689592Y966880D01*
X689940D01*
Y977900D01*
D02*
G37*
G36*
X975775Y991968D02*
X972405D01*
X969150Y991096D01*
X966232Y989411D01*
X963849Y987028D01*
X962164Y984110D01*
X961292Y980855D01*
Y977485D01*
X962164Y974230D01*
X963849Y971312D01*
X966232Y968929D01*
X969150Y967244D01*
X972405Y966372D01*
X975775D01*
X979030Y967244D01*
X981948Y968929D01*
X984331Y971312D01*
X986016Y974230D01*
X986888Y977485D01*
Y980855D01*
X986016Y984110D01*
X984331Y987028D01*
X981948Y989411D01*
X979030Y991096D01*
X975775Y991968D01*
D02*
G37*
G36*
X396120Y974090D02*
X387350D01*
Y965320D01*
X387402D01*
X389955Y966004D01*
X392245Y967326D01*
X394114Y969195D01*
X395436Y971485D01*
X396120Y974038D01*
Y974090D01*
D02*
G37*
G36*
X384810D02*
X376040D01*
Y974038D01*
X376724Y971485D01*
X378046Y969195D01*
X379915Y967326D01*
X382205Y966004D01*
X384758Y965320D01*
X384810D01*
Y974090D01*
D02*
G37*
G36*
X422028Y985908D02*
X400932D01*
Y964812D01*
X422028D01*
Y985908D01*
D02*
G37*
G36*
X362069D02*
X359291D01*
X356609Y985189D01*
X354203Y983801D01*
X352239Y981837D01*
X350851Y979431D01*
X350132Y976749D01*
Y973971D01*
X350851Y971289D01*
X351609Y969975D01*
X328884Y947251D01*
X315133D01*
X314961Y947477D01*
X315247Y949196D01*
X315533Y949387D01*
X331578Y965432D01*
X333891Y964812D01*
X336669D01*
X339351Y965531D01*
X341757Y966919D01*
X343721Y968883D01*
X345109Y971289D01*
X345828Y973971D01*
Y976749D01*
X345109Y979431D01*
X343721Y981837D01*
X341757Y983801D01*
X339351Y985189D01*
X336669Y985908D01*
X333891D01*
X331209Y985189D01*
X328803Y983801D01*
X326839Y981837D01*
X325451Y979431D01*
X324732Y976749D01*
Y973971D01*
X325352Y971658D01*
X310596Y956903D01*
X185741D01*
X184453Y958191D01*
X182831Y959127D01*
X181022Y959612D01*
X179150D01*
X177341Y959127D01*
X175719Y958191D01*
X174395Y956867D01*
X173459Y955245D01*
X172974Y953436D01*
Y951564D01*
X173459Y949755D01*
X174395Y948133D01*
X175719Y946809D01*
X177341Y945873D01*
X179150Y945388D01*
X181022D01*
X182831Y945873D01*
X184453Y946809D01*
X185741Y948097D01*
X193684D01*
X194237Y946827D01*
X193525Y945593D01*
X193040Y943784D01*
Y941912D01*
X193525Y940103D01*
X194461Y938481D01*
X195597Y937345D01*
X195437Y936576D01*
X195137Y936075D01*
X151776D01*
Y942498D01*
X151776Y942646D01*
X151268Y943706D01*
X151268Y943916D01*
Y950578D01*
X141478D01*
X131688D01*
X131688Y943706D01*
X131180Y942646D01*
X131180Y942498D01*
Y931276D01*
X125310Y925407D01*
X123863D01*
X122533Y927711D01*
X120499Y929745D01*
X118008Y931183D01*
X115230Y931927D01*
X112354D01*
X109576Y931183D01*
X107085Y929745D01*
X105051Y927711D01*
X103613Y925220D01*
X102869Y922442D01*
Y919566D01*
X103613Y916788D01*
X105051Y914297D01*
X107085Y912263D01*
X109576Y910825D01*
X112354Y910081D01*
X115230D01*
X118008Y910825D01*
X120499Y912263D01*
X122533Y914297D01*
X123863Y916601D01*
X127134D01*
X128819Y916936D01*
X130247Y917891D01*
X137406Y925050D01*
X151776D01*
Y927269D01*
X358835D01*
X360123Y925981D01*
X361745Y925045D01*
X363554Y924560D01*
X365426D01*
X367235Y925045D01*
X368857Y925981D01*
X370181Y927305D01*
X371117Y928927D01*
X371602Y930736D01*
Y932608D01*
X371117Y934417D01*
X370181Y936039D01*
X368857Y937363D01*
X367235Y938299D01*
X365426Y938784D01*
X363554D01*
X361745Y938299D01*
X360123Y937363D01*
X358835Y936075D01*
X205167D01*
X204867Y936576D01*
X204706Y937345D01*
X205807Y938445D01*
X330708D01*
X332393Y938781D01*
X333821Y939735D01*
X358981Y964895D01*
X359291Y964812D01*
X362069D01*
X364751Y965531D01*
X367157Y966919D01*
X369120Y968883D01*
X370509Y971289D01*
X371228Y973971D01*
Y976749D01*
X370509Y979431D01*
X369120Y981837D01*
X367157Y983801D01*
X364751Y985189D01*
X362069Y985908D01*
D02*
G37*
G36*
X311269D02*
X308491D01*
X305809Y985189D01*
X303403Y983801D01*
X301439Y981837D01*
X300051Y979431D01*
X299332Y976749D01*
Y973971D01*
X300051Y971289D01*
X301439Y968883D01*
X303403Y966919D01*
X305809Y965531D01*
X308491Y964812D01*
X311269D01*
X313951Y965531D01*
X316357Y966919D01*
X318321Y968883D01*
X319709Y971289D01*
X320428Y973971D01*
Y976749D01*
X319709Y979431D01*
X318321Y981837D01*
X316357Y983801D01*
X313951Y985189D01*
X311269Y985908D01*
D02*
G37*
G36*
X285869D02*
X283091D01*
X280409Y985189D01*
X278003Y983801D01*
X276040Y981837D01*
X274651Y979431D01*
X273932Y976749D01*
Y973971D01*
X274651Y971289D01*
X276040Y968883D01*
X278003Y966919D01*
X280409Y965531D01*
X283091Y964812D01*
X285869D01*
X288551Y965531D01*
X290957Y966919D01*
X292920Y968883D01*
X294309Y971289D01*
X295028Y973971D01*
Y976749D01*
X294309Y979431D01*
X292920Y981837D01*
X290957Y983801D01*
X288551Y985189D01*
X285869Y985908D01*
D02*
G37*
G36*
X1069450Y974090D02*
X1059180D01*
Y963820D01*
X1059429D01*
X1062364Y964606D01*
X1064996Y966126D01*
X1067144Y968274D01*
X1068663Y970906D01*
X1069450Y973841D01*
Y974090D01*
D02*
G37*
G36*
X1056640D02*
X1046370D01*
Y973841D01*
X1047157Y970906D01*
X1048676Y968274D01*
X1050824Y966126D01*
X1053456Y964606D01*
X1056391Y963820D01*
X1056640D01*
Y974090D01*
D02*
G37*
G36*
X112522Y964734D02*
X103377D01*
Y964633D01*
X104087Y961984D01*
X105458Y959609D01*
X107397Y957670D01*
X109772Y956299D01*
X112421Y955589D01*
X112522D01*
Y964734D01*
D02*
G37*
G36*
X59207D02*
X50062D01*
Y955589D01*
X50163D01*
X52812Y956299D01*
X55187Y957670D01*
X57126Y959609D01*
X58497Y961984D01*
X59207Y964633D01*
Y964734D01*
D02*
G37*
G36*
X47522D02*
X38377D01*
Y964633D01*
X39087Y961984D01*
X40458Y959609D01*
X42397Y957670D01*
X44772Y956299D01*
X47421Y955589D01*
X47522D01*
Y964734D01*
D02*
G37*
G36*
X151268Y960138D02*
X142748D01*
Y953118D01*
X151268D01*
Y960138D01*
D02*
G37*
G36*
X115163Y976419D02*
X115062D01*
Y966004D01*
Y955589D01*
X115163D01*
X117812Y956299D01*
X120187Y957670D01*
X122126Y959609D01*
X122957Y961049D01*
X124406Y961194D01*
X131688Y953912D01*
Y953118D01*
X140208D01*
Y960138D01*
X137914D01*
X128935Y969117D01*
X127507Y970071D01*
X125822Y970407D01*
X123276D01*
X122126Y972399D01*
X120187Y974338D01*
X117812Y975709D01*
X115163Y976419D01*
D02*
G37*
G36*
X1452368Y970048D02*
X1447632D01*
X1442986Y969124D01*
X1438609Y967311D01*
X1434670Y964679D01*
X1431321Y961330D01*
X1428689Y957391D01*
X1426876Y953015D01*
X1425952Y948369D01*
Y943632D01*
X1426876Y938985D01*
X1428689Y934609D01*
X1431321Y930670D01*
X1434670Y927321D01*
X1438609Y924689D01*
X1442986Y922876D01*
X1447632Y921952D01*
X1452368D01*
X1457014Y922876D01*
X1461391Y924689D01*
X1465330Y927321D01*
X1468679Y930670D01*
X1471311Y934609D01*
X1473124Y938985D01*
X1474048Y943632D01*
Y948369D01*
X1473124Y953015D01*
X1471311Y957391D01*
X1468679Y961330D01*
X1465330Y964679D01*
X1461391Y967311D01*
X1457014Y969124D01*
X1452368Y970048D01*
D02*
G37*
G36*
X50230Y931927D02*
X47354D01*
X44576Y931183D01*
X42085Y929745D01*
X40051Y927711D01*
X38613Y925220D01*
X37869Y922442D01*
Y919566D01*
X38613Y916788D01*
X40051Y914297D01*
X42085Y912263D01*
X44576Y910825D01*
X47354Y910081D01*
X50230D01*
X53008Y910825D01*
X55499Y912263D01*
X57533Y914297D01*
X58971Y916788D01*
X59715Y919566D01*
Y922442D01*
X58971Y925220D01*
X57533Y927711D01*
X55499Y929745D01*
X53008Y931183D01*
X50230Y931927D01*
D02*
G37*
G36*
X925775Y991968D02*
X922405D01*
X919150Y991096D01*
X916232Y989411D01*
X913849Y987028D01*
X912164Y984110D01*
X911292Y980855D01*
Y977485D01*
X912164Y974230D01*
X913716Y971542D01*
X852086Y909913D01*
X799268D01*
Y927508D01*
X797685D01*
Y968130D01*
X799068Y968929D01*
X801451Y971312D01*
X803136Y974230D01*
X804008Y977485D01*
Y980855D01*
X803136Y984110D01*
X801451Y987028D01*
X799068Y989411D01*
X796150Y991096D01*
X792895Y991968D01*
X789525D01*
X786270Y991096D01*
X783352Y989411D01*
X780969Y987028D01*
X779284Y984110D01*
X778412Y980855D01*
Y977485D01*
X779284Y974230D01*
X780969Y971312D01*
X783352Y968929D01*
X784995Y967980D01*
Y927508D01*
X780373D01*
Y944410D01*
X780038Y946095D01*
X779083Y947523D01*
X752858Y973748D01*
X753136Y974230D01*
X754008Y977485D01*
Y980855D01*
X753136Y984110D01*
X751451Y987028D01*
X749068Y989411D01*
X746150Y991096D01*
X742895Y991968D01*
X739525D01*
X736270Y991096D01*
X733352Y989411D01*
X730969Y987028D01*
X729284Y984110D01*
X728412Y980855D01*
Y977485D01*
X729284Y974230D01*
X730969Y971312D01*
X733352Y968929D01*
X736270Y967244D01*
X739525Y966372D01*
X742895D01*
X746150Y967244D01*
X746631Y967522D01*
X771567Y942586D01*
Y927508D01*
X768172D01*
Y922867D01*
X260350D01*
X260350Y922867D01*
X258665Y922532D01*
X257237Y921577D01*
X257237Y921577D01*
X254632Y918972D01*
X252810D01*
X251001Y918487D01*
X249379Y917551D01*
X248055Y916227D01*
X247119Y914605D01*
X246634Y912796D01*
Y910924D01*
X247119Y909115D01*
X248055Y907493D01*
X249379Y906169D01*
X251001Y905233D01*
X252810Y904748D01*
X254682D01*
X256491Y905233D01*
X258113Y906169D01*
X259437Y907493D01*
X260373Y909115D01*
X260858Y910924D01*
Y912746D01*
X262174Y914061D01*
X348054D01*
X348689Y912962D01*
X348465Y912573D01*
X347980Y910764D01*
Y908892D01*
X348465Y907083D01*
X349401Y905461D01*
X350725Y904137D01*
X352347Y903201D01*
X352892Y903055D01*
X352725Y901785D01*
X205024D01*
X196342Y910466D01*
Y912288D01*
X195857Y914097D01*
X194921Y915719D01*
X193597Y917043D01*
X191975Y917979D01*
X190166Y918464D01*
X188294D01*
X186485Y917979D01*
X184863Y917043D01*
X183539Y915719D01*
X182603Y914097D01*
X182118Y912288D01*
Y910416D01*
X182603Y908607D01*
X183539Y906985D01*
X184863Y905661D01*
X186485Y904725D01*
X188294Y904240D01*
X190116D01*
X197494Y896862D01*
X197008Y895689D01*
X120142D01*
X118457Y895353D01*
X117029Y894399D01*
X102061Y879431D01*
X101999Y879448D01*
X99221D01*
X96539Y878729D01*
X94133Y877340D01*
X92170Y875377D01*
X90781Y872971D01*
X90062Y870289D01*
Y867511D01*
X90781Y864829D01*
X92170Y862423D01*
X94133Y860460D01*
X96539Y859071D01*
X98507Y858543D01*
X98553Y858311D01*
X99507Y856883D01*
X112437Y843953D01*
Y840868D01*
X105313D01*
Y843200D01*
X104977Y844885D01*
X104023Y846313D01*
X85138Y865198D01*
X85758Y867511D01*
Y870289D01*
X85039Y872971D01*
X83651Y875377D01*
X81687Y877340D01*
X79281Y878729D01*
X76599Y879448D01*
X73821D01*
X71139Y878729D01*
X68733Y877340D01*
X66769Y875377D01*
X65381Y872971D01*
X64662Y870289D01*
Y867511D01*
X65381Y864829D01*
X66769Y862423D01*
X68733Y860460D01*
X71139Y859071D01*
X73821Y858352D01*
X76599D01*
X78912Y858972D01*
X96254Y841630D01*
X95895Y840360D01*
X92710D01*
Y830320D01*
Y820280D01*
X96592D01*
Y819772D01*
X264088D01*
Y825917D01*
X341430D01*
X343115Y826253D01*
X344543Y827207D01*
X376308Y858972D01*
X378621Y858352D01*
X381399D01*
X384081Y859071D01*
X386487Y860460D01*
X388451Y862423D01*
X389839Y864829D01*
X390558Y867511D01*
Y870289D01*
X389839Y872971D01*
X388451Y875377D01*
X386487Y877340D01*
X384081Y878729D01*
X381399Y879448D01*
X378621D01*
X375939Y878729D01*
X373533Y877340D01*
X371570Y875377D01*
X370181Y872971D01*
X369462Y870289D01*
Y867511D01*
X370082Y865198D01*
X339606Y834723D01*
X264088D01*
Y839639D01*
X329752D01*
X331437Y839975D01*
X332865Y840929D01*
X350908Y858972D01*
X353221Y858352D01*
X355999D01*
X358681Y859071D01*
X361087Y860460D01*
X363050Y862423D01*
X364439Y864829D01*
X365158Y867511D01*
Y870289D01*
X364439Y872971D01*
X363050Y875377D01*
X361087Y877340D01*
X358681Y878729D01*
X355999Y879448D01*
X353221D01*
X350539Y878729D01*
X348133Y877340D01*
X346170Y875377D01*
X344781Y872971D01*
X344062Y870289D01*
Y867511D01*
X344682Y865198D01*
X327928Y848445D01*
X318866D01*
X318380Y849618D01*
X327264Y858501D01*
X327821Y858352D01*
X330599D01*
X333281Y859071D01*
X335687Y860460D01*
X337650Y862423D01*
X339039Y864829D01*
X339758Y867511D01*
Y870289D01*
X339039Y872971D01*
X337650Y875377D01*
X335687Y877340D01*
X333281Y878729D01*
X330599Y879448D01*
X327821D01*
X325139Y878729D01*
X322733Y877340D01*
X320770Y875377D01*
X319381Y872971D01*
X318662Y870289D01*
Y867511D01*
X319381Y864829D01*
X320024Y863714D01*
X310342Y854033D01*
X296828D01*
X296342Y855206D01*
X300108Y858972D01*
X302421Y858352D01*
X305199D01*
X307881Y859071D01*
X310287Y860460D01*
X312250Y862423D01*
X313639Y864829D01*
X314358Y867511D01*
Y870289D01*
X313639Y872971D01*
X312250Y875377D01*
X310287Y877340D01*
X307881Y878729D01*
X305199Y879448D01*
X302421D01*
X299739Y878729D01*
X297333Y877340D01*
X295369Y875377D01*
X293981Y872971D01*
X293262Y870289D01*
Y867511D01*
X293882Y865198D01*
X288304Y859621D01*
X285844D01*
X285318Y860891D01*
X286850Y862423D01*
X288239Y864829D01*
X288958Y867511D01*
Y870289D01*
X288239Y872971D01*
X286850Y875377D01*
X284887Y877340D01*
X282481Y878729D01*
X279799Y879448D01*
X277021D01*
X274339Y878729D01*
X271933Y877340D01*
X269970Y875377D01*
X268581Y872971D01*
X267862Y870289D01*
Y867511D01*
X268581Y864829D01*
X269970Y862423D01*
X271502Y860891D01*
X270976Y859621D01*
X260444D01*
X259918Y860891D01*
X261451Y862423D01*
X262839Y864829D01*
X263558Y867511D01*
Y870289D01*
X262839Y872971D01*
X261451Y875377D01*
X259487Y877340D01*
X257081Y878729D01*
X254399Y879448D01*
X251621D01*
X248939Y878729D01*
X246533Y877340D01*
X244569Y875377D01*
X243181Y872971D01*
X242462Y870289D01*
Y867511D01*
X243181Y864829D01*
X244569Y862423D01*
X246102Y860891D01*
X245576Y859621D01*
X235044D01*
X234518Y860891D01*
X236050Y862423D01*
X237439Y864829D01*
X238158Y867511D01*
Y870289D01*
X237439Y872971D01*
X236050Y875377D01*
X234087Y877340D01*
X231681Y878729D01*
X228999Y879448D01*
X226221D01*
X223539Y878729D01*
X221133Y877340D01*
X219170Y875377D01*
X217781Y872971D01*
X217062Y870289D01*
Y867511D01*
X217682Y865198D01*
X207786Y855303D01*
X187960D01*
X186275Y854967D01*
X184847Y854013D01*
X177227Y846393D01*
X176273Y844965D01*
X175937Y843280D01*
Y840868D01*
X162573D01*
Y848436D01*
X173108Y858972D01*
X175421Y858352D01*
X178199D01*
X180881Y859071D01*
X183287Y860460D01*
X185250Y862423D01*
X186639Y864829D01*
X187358Y867511D01*
Y870289D01*
X186639Y872971D01*
X185250Y875377D01*
X183287Y877340D01*
X180881Y878729D01*
X178199Y879448D01*
X175421D01*
X172739Y878729D01*
X170333Y877340D01*
X168370Y875377D01*
X166981Y872971D01*
X166262Y870289D01*
Y867511D01*
X166882Y865198D01*
X155057Y853373D01*
X154103Y851945D01*
X153767Y850260D01*
Y840868D01*
X146643D01*
Y857906D01*
X147708Y858972D01*
X150021Y858352D01*
X152799D01*
X155481Y859071D01*
X157887Y860460D01*
X159851Y862423D01*
X161239Y864829D01*
X161958Y867511D01*
Y870289D01*
X161239Y872971D01*
X159851Y875377D01*
X157887Y877340D01*
X155481Y878729D01*
X152799Y879448D01*
X150021D01*
X147339Y878729D01*
X144933Y877340D01*
X142970Y875377D01*
X141581Y872971D01*
X140862Y870289D01*
Y867511D01*
X141482Y865198D01*
X139127Y862843D01*
X138173Y861415D01*
X137837Y859730D01*
Y840868D01*
X130713D01*
Y859435D01*
X132487Y860460D01*
X134451Y862423D01*
X135839Y864829D01*
X136558Y867511D01*
Y870289D01*
X135839Y872971D01*
X134451Y875377D01*
X132487Y877340D01*
X130081Y878729D01*
X127399Y879448D01*
X124621D01*
X121939Y878729D01*
X119533Y877340D01*
X117570Y875377D01*
X116181Y872971D01*
X115462Y870289D01*
Y867511D01*
X116181Y864829D01*
X117570Y862423D01*
X119533Y860460D01*
X121907Y859089D01*
Y848251D01*
X120637Y847865D01*
X119953Y848889D01*
X107735Y861108D01*
X109051Y862423D01*
X110439Y864829D01*
X111158Y867511D01*
Y870289D01*
X110439Y872971D01*
X109566Y874484D01*
X121966Y886883D01*
X890986D01*
X908727Y869142D01*
Y798308D01*
X906653Y797111D01*
X904689Y795147D01*
X903301Y792741D01*
X902582Y790059D01*
Y787281D01*
X903301Y784599D01*
X904689Y782193D01*
X906653Y780229D01*
X908727Y779032D01*
Y658414D01*
X893972Y643658D01*
X891659Y644278D01*
X888881D01*
X886199Y643559D01*
X883793Y642170D01*
X881830Y640207D01*
X880441Y637801D01*
X879722Y635119D01*
Y632341D01*
X880441Y629659D01*
X881830Y627253D01*
X883793Y625289D01*
X886199Y623901D01*
X888881Y623182D01*
X891036D01*
X920886Y593332D01*
X920400Y592159D01*
X856721D01*
X856195Y593429D01*
X866713Y603947D01*
X867667Y605375D01*
X868003Y607060D01*
Y623649D01*
X868941Y623901D01*
X871347Y625289D01*
X873310Y627253D01*
X874699Y629659D01*
X875418Y632341D01*
Y635119D01*
X874699Y637801D01*
X873310Y640207D01*
X871347Y642170D01*
X870567Y642620D01*
Y669290D01*
X870134Y671470D01*
X868899Y673319D01*
X842229Y699989D01*
X840380Y701224D01*
X838200Y701657D01*
X584020D01*
X570593Y715084D01*
Y740118D01*
X571523Y741729D01*
X572008Y743538D01*
Y745410D01*
X571523Y747219D01*
X570593Y748830D01*
Y774700D01*
X570160Y776880D01*
X568925Y778729D01*
X552415Y795239D01*
X550566Y796474D01*
X548386Y796908D01*
X511086D01*
X509475Y797837D01*
X507666Y798322D01*
X505794D01*
X505216Y798167D01*
X504208Y798940D01*
Y801508D01*
X486760D01*
X486612Y801508D01*
X485552Y801000D01*
X485342Y801000D01*
X478680D01*
Y791210D01*
Y781420D01*
X485552Y781420D01*
X486612Y780912D01*
X486760Y780912D01*
X504208D01*
Y783480D01*
X505216Y784253D01*
X505794Y784098D01*
X507666D01*
X509475Y784583D01*
X511086Y785512D01*
X546026D01*
X559198Y772340D01*
Y748877D01*
X553838D01*
Y763268D01*
X530242D01*
Y725172D01*
X553838D01*
Y740071D01*
X559198D01*
Y712724D01*
X559632Y710544D01*
X560867Y708695D01*
X577631Y691931D01*
X579480Y690696D01*
X581660Y690263D01*
X835840D01*
X859173Y666930D01*
Y642620D01*
X858393Y642170D01*
X856430Y640207D01*
X855041Y637801D01*
X854322Y635119D01*
Y632341D01*
X855041Y629659D01*
X856430Y627253D01*
X858393Y625289D01*
X859197Y624825D01*
Y608884D01*
X850346Y600033D01*
X191516D01*
X189831Y599697D01*
X188403Y598743D01*
X175384Y585724D01*
X173562D01*
X171753Y585239D01*
X170131Y584303D01*
X168807Y582979D01*
X167871Y581357D01*
X167386Y579548D01*
Y577676D01*
X167871Y575867D01*
X168807Y574245D01*
X170131Y572921D01*
X171753Y571985D01*
X173562Y571500D01*
X175434D01*
X177243Y571985D01*
X178865Y572921D01*
X180189Y574245D01*
X181125Y575867D01*
X181610Y577676D01*
Y579498D01*
X193340Y591227D01*
X243093D01*
X243619Y589957D01*
X228041Y574379D01*
X221301D01*
X220013Y575667D01*
X218391Y576603D01*
X216582Y577088D01*
X214710D01*
X212901Y576603D01*
X211279Y575667D01*
X209955Y574343D01*
X209019Y572721D01*
X208534Y570912D01*
Y569040D01*
X208707Y568393D01*
X207733Y567123D01*
X203338D01*
Y571518D01*
X182742D01*
Y569748D01*
X162698D01*
Y571518D01*
X148328D01*
X137613Y582233D01*
X136185Y583187D01*
X134500Y583523D01*
X132221D01*
X130891Y585827D01*
X128857Y587861D01*
X126366Y589299D01*
X123588Y590043D01*
X120712D01*
X119579Y589739D01*
X118600Y590576D01*
Y605749D01*
X119870Y606265D01*
X121939Y605071D01*
X124621Y604352D01*
X127399D01*
X130081Y605071D01*
X132487Y606460D01*
X134451Y608423D01*
X135839Y610829D01*
X136558Y613511D01*
Y616289D01*
X135938Y618602D01*
X145353Y628017D01*
X145353Y628017D01*
X145737Y628592D01*
X147007Y628207D01*
Y624538D01*
X144933Y623340D01*
X142970Y621377D01*
X141581Y618971D01*
X140862Y616289D01*
Y613511D01*
X141581Y610829D01*
X142970Y608423D01*
X144933Y606460D01*
X147339Y605071D01*
X150021Y604352D01*
X152799D01*
X155481Y605071D01*
X157887Y606460D01*
X159851Y608423D01*
X161239Y610829D01*
X161958Y613511D01*
Y616289D01*
X161239Y618971D01*
X159851Y621377D01*
X157887Y623340D01*
X155813Y624538D01*
Y632186D01*
X158053Y634427D01*
X159008Y635855D01*
X159343Y637540D01*
Y644772D01*
X163237D01*
Y640080D01*
X163573Y638395D01*
X164527Y636967D01*
X172407Y629086D01*
Y624538D01*
X170333Y623340D01*
X168370Y621377D01*
X166981Y618971D01*
X166262Y616289D01*
Y613511D01*
X166981Y610829D01*
X168370Y608423D01*
X170333Y606460D01*
X172739Y605071D01*
X175421Y604352D01*
X178199D01*
X180881Y605071D01*
X183287Y606460D01*
X185250Y608423D01*
X186639Y610829D01*
X187358Y613511D01*
Y616289D01*
X186639Y618971D01*
X185250Y621377D01*
X183287Y623340D01*
X181213Y624538D01*
Y630910D01*
X180877Y632595D01*
X179923Y634023D01*
X172043Y641904D01*
Y644772D01*
X175937D01*
Y642620D01*
X176273Y640935D01*
X177227Y639507D01*
X194563Y622170D01*
X193769Y621377D01*
X192381Y618971D01*
X191662Y616289D01*
Y613511D01*
X192381Y610829D01*
X193769Y608423D01*
X195733Y606460D01*
X198139Y605071D01*
X200821Y604352D01*
X203599D01*
X206281Y605071D01*
X208687Y606460D01*
X210651Y608423D01*
X212039Y610829D01*
X212758Y613511D01*
Y616289D01*
X212039Y618971D01*
X210651Y621377D01*
X208687Y623340D01*
X206281Y624729D01*
X203599Y625448D01*
X203473D01*
X202939Y626247D01*
X194120Y635066D01*
X194588Y636394D01*
X195881Y636741D01*
X197502Y637677D01*
X198826Y639001D01*
X199763Y640623D01*
X200067Y641760D01*
X201337Y641593D01*
Y640080D01*
X201672Y638395D01*
X202627Y636967D01*
X213803Y625791D01*
X215231Y624837D01*
X216916Y624501D01*
X220822D01*
X220910Y624175D01*
X221024Y623231D01*
X219170Y621377D01*
X217781Y618971D01*
X217062Y616289D01*
Y613511D01*
X217781Y610829D01*
X219170Y608423D01*
X221133Y606460D01*
X223539Y605071D01*
X226221Y604352D01*
X228999D01*
X231681Y605071D01*
X234087Y606460D01*
X236050Y608423D01*
X237439Y610829D01*
X238158Y613511D01*
Y616289D01*
X237439Y618971D01*
X236050Y621377D01*
X234196Y623231D01*
X234310Y624175D01*
X234398Y624501D01*
X240492D01*
X244221Y620773D01*
X243181Y618971D01*
X242462Y616289D01*
Y613511D01*
X243181Y610829D01*
X244569Y608423D01*
X246533Y606460D01*
X248939Y605071D01*
X251621Y604352D01*
X254399D01*
X257081Y605071D01*
X259487Y606460D01*
X261451Y608423D01*
X262839Y610829D01*
X263558Y613511D01*
Y616289D01*
X262839Y618971D01*
X261451Y621377D01*
X259487Y623340D01*
X257081Y624729D01*
X254399Y625448D01*
X251998D01*
X248276Y629170D01*
X248762Y630343D01*
X282140D01*
X293882Y618602D01*
X293262Y616289D01*
Y613511D01*
X293981Y610829D01*
X295369Y608423D01*
X297333Y606460D01*
X299739Y605071D01*
X302421Y604352D01*
X305199D01*
X307881Y605071D01*
X310287Y606460D01*
X312250Y608423D01*
X313639Y610829D01*
X314358Y613511D01*
Y616289D01*
X313639Y618971D01*
X312250Y621377D01*
X310287Y623340D01*
X307881Y624729D01*
X305199Y625448D01*
X302421D01*
X300108Y624828D01*
X288243Y636693D01*
X288769Y637963D01*
X325320D01*
X344682Y618602D01*
X344062Y616289D01*
Y613511D01*
X344781Y610829D01*
X346170Y608423D01*
X348133Y606460D01*
X350539Y605071D01*
X353221Y604352D01*
X355999D01*
X358681Y605071D01*
X361087Y606460D01*
X363050Y608423D01*
X364439Y610829D01*
X365158Y613511D01*
Y616289D01*
X364439Y618971D01*
X363050Y621377D01*
X361087Y623340D01*
X358681Y624729D01*
X355999Y625448D01*
X353221D01*
X350908Y624828D01*
X330257Y645479D01*
X328829Y646433D01*
X327144Y646769D01*
X268318D01*
X264088Y650998D01*
Y665868D01*
X251197D01*
X250849Y666322D01*
Y668194D01*
X250364Y670003D01*
X249428Y671625D01*
X248104Y672949D01*
X246482Y673885D01*
X244673Y674370D01*
X242800D01*
X240991Y673885D01*
X239370Y672949D01*
X238046Y671625D01*
X237109Y670003D01*
X236625Y668194D01*
Y666322D01*
X236276Y665868D01*
X96592D01*
Y665360D01*
X92710D01*
Y655320D01*
Y645280D01*
X96086D01*
X97019Y644187D01*
X96720Y643071D01*
Y641199D01*
X97205Y639390D01*
X98141Y637768D01*
X99465Y636444D01*
X101087Y635508D01*
X102895Y635023D01*
X104768D01*
X106577Y635508D01*
X108199Y636444D01*
X109523Y637768D01*
X110459Y639390D01*
X110944Y641199D01*
X112178Y641113D01*
Y633004D01*
X110642Y631467D01*
X109631Y629955D01*
X109276Y628171D01*
Y622947D01*
X108006Y622421D01*
X107087Y623340D01*
X104681Y624729D01*
X101999Y625448D01*
X99221D01*
X96539Y624729D01*
X94133Y623340D01*
X92170Y621377D01*
X90781Y618971D01*
X90062Y616289D01*
Y613511D01*
X90781Y610829D01*
X92170Y608423D01*
X94133Y606460D01*
X96539Y605071D01*
X99221Y604352D01*
X101999D01*
X104681Y605071D01*
X107087Y606460D01*
X108006Y607379D01*
X109276Y606853D01*
Y588511D01*
X109631Y586727D01*
X110642Y585215D01*
X112172Y583684D01*
X111971Y583336D01*
X111227Y580558D01*
Y577682D01*
X111971Y574904D01*
X113409Y572413D01*
X115443Y570379D01*
X117934Y568941D01*
X120712Y568197D01*
X123588D01*
X126366Y568941D01*
X128857Y570379D01*
X130891Y572413D01*
X131747Y573896D01*
X133317Y574076D01*
X142102Y565292D01*
Y554070D01*
X142102Y553922D01*
X142610Y552862D01*
X142610Y552652D01*
Y545990D01*
X152400D01*
Y543450D01*
X142610D01*
Y536430D01*
X145757D01*
X146050Y536047D01*
Y534309D01*
X146500Y532629D01*
X147369Y531123D01*
X148599Y529893D01*
X150105Y529024D01*
X151384Y528681D01*
Y535178D01*
X153924D01*
Y528681D01*
X155203Y529024D01*
X156709Y529893D01*
X157938Y531123D01*
X158808Y532629D01*
X159258Y534309D01*
Y535282D01*
X160370Y536430D01*
X162190Y536430D01*
X162672Y535360D01*
Y535152D01*
X165567D01*
X165608Y535098D01*
Y533226D01*
X166093Y531417D01*
X167029Y529795D01*
X168353Y528471D01*
X169975Y527535D01*
X171784Y527050D01*
X173656D01*
X175465Y527535D01*
X177087Y528471D01*
X178411Y529795D01*
X179347Y531417D01*
X179832Y533226D01*
Y535098D01*
X179873Y535152D01*
X182768D01*
Y535360D01*
X183250Y536430D01*
X184038Y536430D01*
X191770D01*
Y544720D01*
X193040D01*
Y545990D01*
X202830D01*
X202830Y552862D01*
X203338Y553922D01*
X203338Y554070D01*
Y558317D01*
X207616D01*
X243775Y522159D01*
X245203Y521204D01*
X246888Y520869D01*
X299828D01*
X300081Y519599D01*
X298029Y518749D01*
X296065Y517243D01*
X259997Y481175D01*
X258491Y479212D01*
X257544Y476925D01*
X257221Y474472D01*
Y426908D01*
X253402D01*
Y421009D01*
X158748D01*
Y422578D01*
X120652D01*
Y421067D01*
X117969D01*
X115516Y420744D01*
X113230Y419797D01*
X111266Y418291D01*
X109760Y416328D01*
X108813Y414041D01*
X108490Y411588D01*
X108813Y409135D01*
X109760Y406849D01*
X111266Y404885D01*
X113230Y403379D01*
X115516Y402432D01*
X117969Y402109D01*
X120652D01*
Y400482D01*
X158748D01*
Y402051D01*
X253402D01*
Y380812D01*
X279998D01*
Y426908D01*
X276179D01*
Y470546D01*
X306694Y501061D01*
X408940D01*
X410316Y501242D01*
X424728D01*
Y493678D01*
X421212D01*
Y471582D01*
X437308D01*
Y493678D01*
X434052D01*
Y501242D01*
X437188D01*
Y519599D01*
X437188Y519838D01*
X437764Y520869D01*
X523173D01*
X524461Y519581D01*
X526083Y518645D01*
X527892Y518160D01*
X529764D01*
X531573Y518645D01*
X533195Y519581D01*
X534519Y520905D01*
X535455Y522527D01*
X535940Y524336D01*
Y526208D01*
X535455Y528017D01*
X534519Y529639D01*
X534403Y529754D01*
X534930Y531024D01*
X638149D01*
X710530Y458644D01*
X712042Y457633D01*
X713826Y457278D01*
X723742D01*
Y452892D01*
X741838D01*
Y470988D01*
X723742D01*
Y466602D01*
X715757D01*
X643455Y538903D01*
X643484Y539238D01*
X643879Y540173D01*
X805896D01*
X884703Y461367D01*
X886131Y460412D01*
X887816Y460077D01*
X901542D01*
Y455432D01*
X919638D01*
Y473528D01*
X901542D01*
Y468883D01*
X889640D01*
X810833Y547689D01*
X810555Y547875D01*
X810283Y549584D01*
X810469Y549820D01*
X981811D01*
X1069178Y462454D01*
X1070690Y461443D01*
X1072474Y461088D01*
X1084422D01*
Y456702D01*
X1102518D01*
Y474798D01*
X1084422D01*
Y470412D01*
X1074405D01*
X987038Y557778D01*
X985526Y558789D01*
X984642Y558964D01*
X984768Y560234D01*
X1145133D01*
X1239104Y466264D01*
X1240616Y465253D01*
X1242400Y464898D01*
X1258412D01*
Y460512D01*
X1276508D01*
Y478608D01*
X1258412D01*
Y474222D01*
X1244331D01*
X1151455Y567097D01*
X1151981Y568367D01*
X1252728D01*
X1254413Y568703D01*
X1255841Y569657D01*
X1441690Y755506D01*
X1442601Y755262D01*
X1445379D01*
X1448061Y755981D01*
X1450467Y757370D01*
X1452431Y759333D01*
X1453819Y761739D01*
X1454538Y764421D01*
Y767199D01*
X1453819Y769881D01*
X1452431Y772287D01*
X1450467Y774250D01*
X1448061Y775639D01*
X1445379Y776358D01*
X1442601D01*
X1439919Y775639D01*
X1437513Y774250D01*
X1435549Y772287D01*
X1434161Y769881D01*
X1433442Y767199D01*
Y764421D01*
X1434161Y761739D01*
X1434640Y760908D01*
X1397758Y724026D01*
X1396653Y723562D01*
X1396149Y723897D01*
X1395649Y724231D01*
X1395646Y724232D01*
X1395643Y724234D01*
X1395054Y724350D01*
X1394460Y724468D01*
X1387648D01*
X1386459Y724231D01*
X1385451Y723558D01*
X1380732Y718839D01*
X1379559Y719325D01*
Y734501D01*
X1380847Y735789D01*
X1381783Y737411D01*
X1382268Y739220D01*
Y741092D01*
X1381783Y742901D01*
X1380847Y744523D01*
X1379523Y745847D01*
X1377901Y746783D01*
X1376092Y747268D01*
X1374220D01*
X1372411Y746783D01*
X1370789Y745847D01*
X1369465Y744523D01*
X1368529Y742901D01*
X1368044Y741092D01*
Y739220D01*
X1368529Y737411D01*
X1369465Y735789D01*
X1370753Y734501D01*
Y716918D01*
X1356445Y702609D01*
X1355175Y703135D01*
Y712149D01*
X1356463Y713437D01*
X1357399Y715059D01*
X1357884Y716868D01*
Y718740D01*
X1357399Y720549D01*
X1356463Y722171D01*
X1355139Y723495D01*
X1353517Y724431D01*
X1351708Y724916D01*
X1349836D01*
X1348027Y724431D01*
X1346405Y723495D01*
X1345081Y722171D01*
X1344145Y720549D01*
X1343660Y718740D01*
Y716868D01*
X1344145Y715059D01*
X1345081Y713437D01*
X1346369Y712149D01*
Y704388D01*
X1234140Y592159D01*
X1223868D01*
X1223382Y593332D01*
X1237364Y607314D01*
X1239186D01*
X1240995Y607799D01*
X1242617Y608735D01*
X1243941Y610059D01*
X1244877Y611681D01*
X1245362Y613490D01*
Y615362D01*
X1244877Y617171D01*
X1243941Y618793D01*
X1242617Y620117D01*
X1240995Y621053D01*
X1239186Y621538D01*
X1237314D01*
X1235505Y621053D01*
X1233883Y620117D01*
X1232559Y618793D01*
X1231623Y617171D01*
X1231138Y615362D01*
Y613540D01*
X1217122Y599525D01*
X927146D01*
X898969Y627701D01*
X900099Y629659D01*
X900818Y632341D01*
Y635119D01*
X900198Y637432D01*
X916243Y653477D01*
X917197Y654905D01*
X917533Y656590D01*
Y779032D01*
X919607Y780229D01*
X921571Y782193D01*
X922959Y784599D01*
X923678Y787281D01*
Y790059D01*
X922959Y792741D01*
X921571Y795147D01*
X919607Y797111D01*
X917533Y798308D01*
Y870966D01*
X917197Y872651D01*
X916243Y874079D01*
X898516Y891806D01*
X899002Y892979D01*
X910798D01*
X934889Y868888D01*
Y798615D01*
X934459Y798499D01*
X932053Y797111D01*
X930089Y795147D01*
X928701Y792741D01*
X927982Y790059D01*
Y787281D01*
X928701Y784599D01*
X930089Y782193D01*
X932053Y780229D01*
X934127Y779032D01*
Y658414D01*
X919372Y643658D01*
X917059Y644278D01*
X914281D01*
X911599Y643559D01*
X909193Y642170D01*
X907230Y640207D01*
X905841Y637801D01*
X905122Y635119D01*
Y632341D01*
X905841Y629659D01*
X907230Y627253D01*
X909193Y625289D01*
X911599Y623901D01*
X914281Y623182D01*
X916690D01*
X929829Y610043D01*
X931257Y609089D01*
X932942Y608753D01*
X1207262D01*
X1208947Y609089D01*
X1210375Y610043D01*
X1245408Y645075D01*
X1254693D01*
X1255981Y643787D01*
X1257603Y642851D01*
X1259412Y642366D01*
X1261284D01*
X1263093Y642851D01*
X1264715Y643787D01*
X1266039Y645111D01*
X1266975Y646733D01*
X1267460Y648542D01*
Y650414D01*
X1266975Y652223D01*
X1266039Y653845D01*
X1264715Y655169D01*
X1263093Y656105D01*
X1261284Y656590D01*
X1259412D01*
X1257603Y656105D01*
X1255981Y655169D01*
X1254693Y653881D01*
X1243584D01*
X1241899Y653546D01*
X1240471Y652591D01*
X1205438Y617559D01*
X934766D01*
X930334Y621990D01*
X930938Y623182D01*
X951618D01*
Y644278D01*
X934103D01*
X933617Y645451D01*
X941643Y653477D01*
X942598Y654905D01*
X942933Y656590D01*
Y779032D01*
X945007Y780229D01*
X946971Y782193D01*
X948359Y784599D01*
X949078Y787281D01*
Y790059D01*
X948359Y792741D01*
X946971Y795147D01*
X945007Y797111D01*
X943695Y797868D01*
Y870712D01*
X943360Y872397D01*
X942405Y873825D01*
X915735Y900495D01*
X914307Y901450D01*
X912622Y901785D01*
X858207D01*
X857681Y903055D01*
X921295Y966669D01*
X922405Y966372D01*
X925775D01*
X929030Y967244D01*
X931948Y968929D01*
X934331Y971312D01*
X936016Y974230D01*
X936888Y977485D01*
Y980855D01*
X936016Y984110D01*
X934331Y987028D01*
X931948Y989411D01*
X929030Y991096D01*
X925775Y991968D01*
D02*
G37*
G36*
X203532Y878940D02*
X203480D01*
Y870170D01*
X212250D01*
Y870222D01*
X211566Y872775D01*
X210244Y875065D01*
X208375Y876934D01*
X206085Y878256D01*
X203532Y878940D01*
D02*
G37*
G36*
X200940D02*
X200888D01*
X198335Y878256D01*
X196045Y876934D01*
X194176Y875065D01*
X192854Y872775D01*
X192170Y870222D01*
Y870170D01*
X200940D01*
Y878940D01*
D02*
G37*
G36*
X59850D02*
X51080D01*
Y870170D01*
X59850D01*
Y878940D01*
D02*
G37*
G36*
X48540D02*
X39770D01*
Y870170D01*
X48540D01*
Y878940D01*
D02*
G37*
G36*
X212250Y867630D02*
X203480D01*
Y858860D01*
X203532D01*
X206085Y859544D01*
X208375Y860866D01*
X210244Y862735D01*
X211566Y865025D01*
X212250Y867578D01*
Y867630D01*
D02*
G37*
G36*
X200940D02*
X192170D01*
Y867578D01*
X192854Y865025D01*
X194176Y862735D01*
X196045Y860866D01*
X198335Y859544D01*
X200888Y858860D01*
X200940D01*
Y867630D01*
D02*
G37*
G36*
X59850D02*
X51080D01*
Y858860D01*
X59850D01*
Y867630D01*
D02*
G37*
G36*
X48540D02*
X39770D01*
Y858860D01*
X48540D01*
Y867630D01*
D02*
G37*
G36*
X508399Y879448D02*
X505621D01*
X502939Y878729D01*
X500533Y877340D01*
X498569Y875377D01*
X497181Y872971D01*
X496462Y870289D01*
Y867511D01*
X497082Y865198D01*
X394730Y762847D01*
X383579D01*
X383053Y764117D01*
X477908Y858972D01*
X480221Y858352D01*
X482999D01*
X485681Y859071D01*
X488087Y860460D01*
X490051Y862423D01*
X491439Y864829D01*
X492158Y867511D01*
Y870289D01*
X491439Y872971D01*
X490051Y875377D01*
X488087Y877340D01*
X485681Y878729D01*
X482999Y879448D01*
X480221D01*
X477539Y878729D01*
X475133Y877340D01*
X473170Y875377D01*
X471781Y872971D01*
X471062Y870289D01*
Y867511D01*
X471682Y865198D01*
X376950Y770467D01*
X365743D01*
X365616Y770633D01*
X365273Y771737D01*
X452508Y858972D01*
X454821Y858352D01*
X457599D01*
X460281Y859071D01*
X462687Y860460D01*
X464650Y862423D01*
X466039Y864829D01*
X466758Y867511D01*
Y870289D01*
X466039Y872971D01*
X464650Y875377D01*
X462687Y877340D01*
X460281Y878729D01*
X457599Y879448D01*
X454821D01*
X452139Y878729D01*
X449733Y877340D01*
X447770Y875377D01*
X446381Y872971D01*
X445662Y870289D01*
Y867511D01*
X446282Y865198D01*
X360056Y778973D01*
X279588D01*
Y782867D01*
X349180D01*
X350865Y783203D01*
X352293Y784157D01*
X427108Y858972D01*
X429421Y858352D01*
X432199D01*
X434881Y859071D01*
X437287Y860460D01*
X439250Y862423D01*
X440639Y864829D01*
X441358Y867511D01*
Y870289D01*
X440639Y872971D01*
X439250Y875377D01*
X437287Y877340D01*
X434881Y878729D01*
X432199Y879448D01*
X429421D01*
X426739Y878729D01*
X424333Y877340D01*
X422369Y875377D01*
X420981Y872971D01*
X420262Y870289D01*
Y867511D01*
X420882Y865198D01*
X347356Y791673D01*
X279588D01*
Y795567D01*
X338706D01*
X340391Y795902D01*
X341819Y796857D01*
X403464Y858501D01*
X404021Y858352D01*
X406799D01*
X409481Y859071D01*
X411887Y860460D01*
X413851Y862423D01*
X415239Y864829D01*
X415958Y867511D01*
Y870289D01*
X415239Y872971D01*
X413851Y875377D01*
X411887Y877340D01*
X409481Y878729D01*
X406799Y879448D01*
X404021D01*
X401339Y878729D01*
X398933Y877340D01*
X396969Y875377D01*
X395581Y872971D01*
X394862Y870289D01*
Y867511D01*
X395581Y864829D01*
X396224Y863714D01*
X336882Y804373D01*
X279588D01*
Y807518D01*
X258492D01*
Y792422D01*
Y779722D01*
Y767022D01*
Y754322D01*
Y741622D01*
Y728922D01*
Y716222D01*
Y703522D01*
Y690822D01*
X259000D01*
Y686940D01*
X269040D01*
X279080D01*
Y687633D01*
X280253Y688119D01*
X318705Y649667D01*
X318705Y649667D01*
X320133Y648712D01*
X321818Y648377D01*
X365706D01*
X395482Y618602D01*
X394862Y616289D01*
Y613511D01*
X395581Y610829D01*
X396969Y608423D01*
X398933Y606460D01*
X401339Y605071D01*
X404021Y604352D01*
X406799D01*
X409481Y605071D01*
X411887Y606460D01*
X413851Y608423D01*
X415239Y610829D01*
X415958Y613511D01*
Y616289D01*
X415239Y618971D01*
X413851Y621377D01*
X411887Y623340D01*
X409481Y624729D01*
X406799Y625448D01*
X404021D01*
X401708Y624828D01*
X370643Y655893D01*
X370487Y655997D01*
X370872Y657267D01*
X384256D01*
X421556Y619968D01*
X420981Y618971D01*
X420262Y616289D01*
Y613511D01*
X420981Y610829D01*
X422369Y608423D01*
X424333Y606460D01*
X426739Y605071D01*
X429421Y604352D01*
X432199D01*
X434881Y605071D01*
X437287Y606460D01*
X439250Y608423D01*
X440639Y610829D01*
X441358Y613511D01*
Y616289D01*
X440639Y618971D01*
X439250Y621377D01*
X437287Y623340D01*
X434881Y624729D01*
X432199Y625448D01*
X429421D01*
X428717Y625259D01*
X389193Y664783D01*
X387765Y665738D01*
X386080Y666073D01*
X329764D01*
X329298Y666665D01*
X329883Y667935D01*
X400512D01*
X447514Y620934D01*
X446381Y618971D01*
X445662Y616289D01*
Y613511D01*
X446381Y610829D01*
X447770Y608423D01*
X449733Y606460D01*
X452139Y605071D01*
X454821Y604352D01*
X457599D01*
X460281Y605071D01*
X462687Y606460D01*
X464650Y608423D01*
X466039Y610829D01*
X466758Y613511D01*
Y616289D01*
X466039Y618971D01*
X464650Y621377D01*
X462687Y623340D01*
X460281Y624729D01*
X457599Y625448D01*
X455452D01*
X406408Y674492D01*
X406892Y675216D01*
X407128Y676405D01*
Y678095D01*
X414482D01*
X472449Y620129D01*
X471781Y618971D01*
X471062Y616289D01*
Y613511D01*
X471781Y610829D01*
X473170Y608423D01*
X475133Y606460D01*
X477539Y605071D01*
X480221Y604352D01*
X482999D01*
X485681Y605071D01*
X488087Y606460D01*
X490051Y608423D01*
X491439Y610829D01*
X492158Y613511D01*
Y616289D01*
X491439Y618971D01*
X490051Y621377D01*
X488087Y623340D01*
X485681Y624729D01*
X482999Y625448D01*
X480221D01*
X479717Y625313D01*
X419419Y685611D01*
X417991Y686565D01*
X416306Y686901D01*
X387351D01*
X386824Y688171D01*
X387707Y689053D01*
X388643Y690675D01*
X389128Y692484D01*
Y694356D01*
X388643Y696165D01*
X388489Y696432D01*
X389124Y697532D01*
X401818D01*
Y699177D01*
X403285D01*
X404573Y697889D01*
X406195Y696953D01*
X408004Y696468D01*
X409876D01*
X411685Y696953D01*
X413307Y697889D01*
X414631Y699213D01*
X415567Y700835D01*
X416052Y702644D01*
Y704516D01*
X415567Y706325D01*
X414631Y707947D01*
X413307Y709271D01*
X411685Y710207D01*
X409876Y710692D01*
X408004D01*
X406195Y710207D01*
X404573Y709271D01*
X403285Y707983D01*
X401818D01*
Y709628D01*
X384722D01*
Y701101D01*
X383714Y700328D01*
X382952Y700532D01*
X381080D01*
X379572Y700128D01*
X362738D01*
X362738Y705769D01*
X362738Y706008D01*
X363304Y706984D01*
X363893Y707032D01*
X363992Y707032D01*
X379818D01*
Y719128D01*
X362738D01*
Y722037D01*
X365570D01*
X367255Y722373D01*
X368683Y723327D01*
X368948Y723592D01*
X379818D01*
Y735688D01*
X362738D01*
Y736488D01*
X360003D01*
Y738565D01*
X361291Y739853D01*
X362227Y741475D01*
X362240Y741522D01*
X362722Y742592D01*
X379818D01*
Y754041D01*
X396554D01*
X398239Y754377D01*
X399667Y755331D01*
X503308Y858972D01*
X505621Y858352D01*
X508399D01*
X511081Y859071D01*
X513487Y860460D01*
X515451Y862423D01*
X516839Y864829D01*
X517558Y867511D01*
Y870289D01*
X516839Y872971D01*
X515451Y875377D01*
X513487Y877340D01*
X511081Y878729D01*
X508399Y879448D01*
D02*
G37*
G36*
X77773Y850276D02*
X76494Y849933D01*
X74988Y849063D01*
X73759Y847834D01*
X72889Y846328D01*
X72547Y845049D01*
X77773D01*
Y850276D01*
D02*
G37*
G36*
Y842509D02*
X72547D01*
X72889Y841230D01*
X73759Y839724D01*
X74988Y838494D01*
X76494Y837625D01*
X77773Y837282D01*
Y842509D01*
D02*
G37*
G36*
X1262696Y987408D02*
X1259524D01*
X1256460Y986587D01*
X1253712Y985001D01*
X1251469Y982758D01*
X1249883Y980010D01*
X1249062Y976946D01*
Y973774D01*
X1249883Y970710D01*
X1251469Y967962D01*
X1253712Y965719D01*
X1256460Y964133D01*
X1256707Y964067D01*
Y876854D01*
X1177719Y797865D01*
X1177409Y797948D01*
X1174631D01*
X1171949Y797229D01*
X1169543Y795841D01*
X1167579Y793877D01*
X1166191Y791471D01*
X1165472Y788789D01*
Y786011D01*
X1166191Y783329D01*
X1167579Y780923D01*
X1169543Y778960D01*
X1171949Y777571D01*
X1174631Y776852D01*
X1177409D01*
X1180091Y777571D01*
X1182497Y778960D01*
X1184461Y780923D01*
X1185849Y783329D01*
X1186568Y786011D01*
Y788789D01*
X1185849Y791471D01*
X1185091Y792785D01*
X1264223Y871917D01*
X1265178Y873345D01*
X1265513Y875030D01*
Y964067D01*
X1265760Y964133D01*
X1268508Y965719D01*
X1270751Y967962D01*
X1272337Y970710D01*
X1273158Y973774D01*
Y976946D01*
X1272337Y980010D01*
X1270751Y982758D01*
X1268508Y985001D01*
X1265760Y986587D01*
X1262696Y987408D01*
D02*
G37*
G36*
X1211896D02*
X1208724D01*
X1205660Y986587D01*
X1202912Y985001D01*
X1200669Y982758D01*
X1199083Y980010D01*
X1198262Y976946D01*
Y973774D01*
X1199083Y970710D01*
X1200669Y967962D01*
X1202912Y965719D01*
X1205660Y964133D01*
X1205907Y964067D01*
Y851454D01*
X1152319Y797865D01*
X1152009Y797948D01*
X1149231D01*
X1146549Y797229D01*
X1144143Y795841D01*
X1142179Y793877D01*
X1140791Y791471D01*
X1140072Y788789D01*
Y786011D01*
X1140791Y783329D01*
X1142179Y780923D01*
X1144143Y778960D01*
X1146549Y777571D01*
X1149231Y776852D01*
X1152009D01*
X1154691Y777571D01*
X1157097Y778960D01*
X1159061Y780923D01*
X1160449Y783329D01*
X1161168Y786011D01*
Y788789D01*
X1160449Y791471D01*
X1159691Y792785D01*
X1213423Y846517D01*
X1214378Y847945D01*
X1214713Y849630D01*
Y964067D01*
X1214960Y964133D01*
X1217708Y965719D01*
X1219951Y967962D01*
X1221537Y970710D01*
X1222358Y973774D01*
Y976946D01*
X1221537Y980010D01*
X1219951Y982758D01*
X1217708Y985001D01*
X1214960Y986587D01*
X1211896Y987408D01*
D02*
G37*
G36*
X476140Y801000D02*
X469120D01*
Y798371D01*
X467850Y797445D01*
X467416Y797561D01*
Y791064D01*
Y784568D01*
X467850Y784684D01*
X469120Y783757D01*
Y781420D01*
X476140D01*
Y791210D01*
Y801000D01*
D02*
G37*
G36*
X1161096Y987408D02*
X1157924D01*
X1154860Y986587D01*
X1152112Y985001D01*
X1149869Y982758D01*
X1148283Y980010D01*
X1147462Y976946D01*
Y973774D01*
X1148283Y970710D01*
X1149869Y967962D01*
X1152112Y965719D01*
X1154860Y964133D01*
X1155107Y964067D01*
Y823514D01*
X1128922Y797328D01*
X1126609Y797948D01*
X1123831D01*
X1121149Y797229D01*
X1118743Y795841D01*
X1116779Y793877D01*
X1115391Y791471D01*
X1114672Y788789D01*
Y786011D01*
X1115391Y783329D01*
X1116779Y780923D01*
X1118743Y778960D01*
X1121149Y777571D01*
X1123831Y776852D01*
X1126609D01*
X1129291Y777571D01*
X1131697Y778960D01*
X1133661Y780923D01*
X1135049Y783329D01*
X1135768Y786011D01*
Y788789D01*
X1135148Y791102D01*
X1162623Y818577D01*
X1163577Y820005D01*
X1163913Y821690D01*
Y964067D01*
X1164160Y964133D01*
X1166908Y965719D01*
X1169151Y967962D01*
X1170737Y970710D01*
X1171558Y973774D01*
Y976946D01*
X1170737Y980010D01*
X1169151Y982758D01*
X1166908Y985001D01*
X1164160Y986587D01*
X1161096Y987408D01*
D02*
G37*
G36*
X1445312Y801250D02*
X1445260D01*
Y792480D01*
X1454030D01*
Y792532D01*
X1453346Y795085D01*
X1452024Y797375D01*
X1450155Y799244D01*
X1447865Y800566D01*
X1445312Y801250D01*
D02*
G37*
G36*
X1442720D02*
X1442668D01*
X1440115Y800566D01*
X1437825Y799244D01*
X1435956Y797375D01*
X1434634Y795085D01*
X1433950Y792532D01*
Y792480D01*
X1442720D01*
Y801250D01*
D02*
G37*
G36*
X464876Y797561D02*
X463597Y797218D01*
X462091Y796349D01*
X460862Y795119D01*
X459992Y793613D01*
X459649Y792334D01*
X464876D01*
Y797561D01*
D02*
G37*
G36*
X863652Y798710D02*
X863600D01*
Y789940D01*
X872370D01*
Y789992D01*
X871686Y792545D01*
X870364Y794835D01*
X868495Y796704D01*
X866205Y798026D01*
X863652Y798710D01*
D02*
G37*
G36*
X861060D02*
X861008D01*
X858455Y798026D01*
X856165Y796704D01*
X854296Y794835D01*
X852974Y792545D01*
X852290Y789992D01*
Y789940D01*
X861060D01*
Y798710D01*
D02*
G37*
G36*
X1304342Y797440D02*
X1304290D01*
Y788670D01*
X1313060D01*
Y788722D01*
X1312376Y791275D01*
X1311054Y793565D01*
X1309185Y795434D01*
X1306895Y796756D01*
X1304342Y797440D01*
D02*
G37*
G36*
X862330Y788670D02*
D01*
D01*
D01*
D02*
G37*
G36*
X1301750Y797440D02*
X1301698D01*
X1299145Y796756D01*
X1296855Y795434D01*
X1294986Y793565D01*
X1293664Y791275D01*
X1292980Y788722D01*
Y788670D01*
X1301750D01*
Y797440D01*
D02*
G37*
G36*
X464876Y789794D02*
X459649D01*
X459992Y788515D01*
X460862Y787009D01*
X462091Y785780D01*
X463597Y784910D01*
X464876Y784568D01*
Y789794D01*
D02*
G37*
G36*
X1454030Y789940D02*
X1445260D01*
Y781170D01*
X1445312D01*
X1447865Y781854D01*
X1450155Y783176D01*
X1452024Y785045D01*
X1453346Y787335D01*
X1454030Y789888D01*
Y789940D01*
D02*
G37*
G36*
X1442720D02*
X1433950D01*
Y789888D01*
X1434634Y787335D01*
X1435956Y785045D01*
X1437825Y783176D01*
X1440115Y781854D01*
X1442668Y781170D01*
X1442720D01*
Y789940D01*
D02*
G37*
G36*
X872370Y787400D02*
X863600D01*
Y778630D01*
X863652D01*
X866205Y779314D01*
X868495Y780636D01*
X870364Y782505D01*
X871686Y784795D01*
X872370Y787348D01*
Y787400D01*
D02*
G37*
G36*
X861060D02*
X852290D01*
Y787348D01*
X852974Y784795D01*
X854296Y782505D01*
X856165Y780636D01*
X858455Y779314D01*
X861008Y778630D01*
X861060D01*
Y787400D01*
D02*
G37*
G36*
X999878Y799218D02*
X978782D01*
Y778122D01*
X999878D01*
Y799218D01*
D02*
G37*
G36*
X965319D02*
X962541D01*
X959859Y798499D01*
X957453Y797111D01*
X955490Y795147D01*
X954101Y792741D01*
X953382Y790059D01*
Y787281D01*
X954101Y784599D01*
X955490Y782193D01*
X957453Y780229D01*
X959859Y778841D01*
X962541Y778122D01*
X965319D01*
X968001Y778841D01*
X970407Y780229D01*
X972371Y782193D01*
X973759Y784599D01*
X974478Y787281D01*
Y790059D01*
X973759Y792741D01*
X972371Y795147D01*
X970407Y797111D01*
X968001Y798499D01*
X965319Y799218D01*
D02*
G37*
G36*
X889119D02*
X886341D01*
X883659Y798499D01*
X881253Y797111D01*
X879289Y795147D01*
X877901Y792741D01*
X877182Y790059D01*
Y787281D01*
X877901Y784599D01*
X879289Y782193D01*
X881253Y780229D01*
X883659Y778841D01*
X886341Y778122D01*
X889119D01*
X891801Y778841D01*
X894207Y780229D01*
X896171Y782193D01*
X897559Y784599D01*
X898278Y787281D01*
Y790059D01*
X897559Y792741D01*
X896171Y795147D01*
X894207Y797111D01*
X891801Y798499D01*
X889119Y799218D01*
D02*
G37*
G36*
X838319D02*
X835541D01*
X832859Y798499D01*
X830453Y797111D01*
X828490Y795147D01*
X827101Y792741D01*
X826382Y790059D01*
Y787281D01*
X827101Y784599D01*
X828490Y782193D01*
X830453Y780229D01*
X832859Y778841D01*
X835541Y778122D01*
X838319D01*
X841001Y778841D01*
X843407Y780229D01*
X845370Y782193D01*
X846759Y784599D01*
X847478Y787281D01*
Y790059D01*
X846759Y792741D01*
X845370Y795147D01*
X843407Y797111D01*
X841001Y798499D01*
X838319Y799218D01*
D02*
G37*
G36*
X1313060Y786130D02*
X1304290D01*
Y777360D01*
X1304342D01*
X1306895Y778044D01*
X1309185Y779366D01*
X1311054Y781235D01*
X1312376Y783525D01*
X1313060Y786078D01*
Y786130D01*
D02*
G37*
G36*
X1301750D02*
X1292980D01*
Y786078D01*
X1293664Y783525D01*
X1294986Y781235D01*
X1296855Y779366D01*
X1299145Y778044D01*
X1301698Y777360D01*
X1301750D01*
Y786130D01*
D02*
G37*
G36*
X1338968Y797948D02*
X1317872D01*
Y776852D01*
X1338968D01*
Y797948D01*
D02*
G37*
G36*
X1279009D02*
X1276231D01*
X1273549Y797229D01*
X1271143Y795841D01*
X1269180Y793877D01*
X1267791Y791471D01*
X1267072Y788789D01*
Y786011D01*
X1267791Y783329D01*
X1269180Y780923D01*
X1271143Y778960D01*
X1273549Y777571D01*
X1276231Y776852D01*
X1279009D01*
X1281691Y777571D01*
X1284097Y778960D01*
X1286060Y780923D01*
X1287449Y783329D01*
X1288168Y786011D01*
Y788789D01*
X1287449Y791471D01*
X1286060Y793877D01*
X1284097Y795841D01*
X1281691Y797229D01*
X1279009Y797948D01*
D02*
G37*
G36*
X1253609D02*
X1250831D01*
X1248149Y797229D01*
X1245743Y795841D01*
X1243780Y793877D01*
X1242391Y791471D01*
X1241672Y788789D01*
Y786011D01*
X1242391Y783329D01*
X1243780Y780923D01*
X1245743Y778960D01*
X1248149Y777571D01*
X1250831Y776852D01*
X1253609D01*
X1256291Y777571D01*
X1258697Y778960D01*
X1260660Y780923D01*
X1262049Y783329D01*
X1262768Y786011D01*
Y788789D01*
X1262049Y791471D01*
X1260660Y793877D01*
X1258697Y795841D01*
X1256291Y797229D01*
X1253609Y797948D01*
D02*
G37*
G36*
X1228209D02*
X1225431D01*
X1222749Y797229D01*
X1220343Y795841D01*
X1218380Y793877D01*
X1216991Y791471D01*
X1216272Y788789D01*
Y786011D01*
X1216991Y783329D01*
X1218380Y780923D01*
X1220343Y778960D01*
X1222749Y777571D01*
X1225431Y776852D01*
X1228209D01*
X1230891Y777571D01*
X1233297Y778960D01*
X1235260Y780923D01*
X1236649Y783329D01*
X1237368Y786011D01*
Y788789D01*
X1236649Y791471D01*
X1235260Y793877D01*
X1233297Y795841D01*
X1230891Y797229D01*
X1228209Y797948D01*
D02*
G37*
G36*
X1202809D02*
X1200031D01*
X1197349Y797229D01*
X1194943Y795841D01*
X1192980Y793877D01*
X1191591Y791471D01*
X1190872Y788789D01*
Y786011D01*
X1191591Y783329D01*
X1192980Y780923D01*
X1194943Y778960D01*
X1197349Y777571D01*
X1200031Y776852D01*
X1202809D01*
X1205491Y777571D01*
X1207897Y778960D01*
X1209861Y780923D01*
X1211249Y783329D01*
X1211968Y786011D01*
Y788789D01*
X1211249Y791471D01*
X1209861Y793877D01*
X1207897Y795841D01*
X1205491Y797229D01*
X1202809Y797948D01*
D02*
G37*
G36*
X1110296Y987408D02*
X1107124D01*
X1104060Y986587D01*
X1101312Y985001D01*
X1099069Y982758D01*
X1097483Y980010D01*
X1096662Y976946D01*
Y973774D01*
X1097483Y970710D01*
X1099069Y967962D01*
X1101312Y965719D01*
X1104060Y964133D01*
X1104307Y964067D01*
Y803194D01*
X1099091Y797977D01*
X1099072Y797948D01*
X1098431D01*
X1095749Y797229D01*
X1093343Y795841D01*
X1091379Y793877D01*
X1089991Y791471D01*
X1089272Y788789D01*
Y786011D01*
X1089991Y783329D01*
X1091379Y780923D01*
X1093343Y778960D01*
X1095749Y777571D01*
X1098431Y776852D01*
X1101209D01*
X1103891Y777571D01*
X1106297Y778960D01*
X1108260Y780923D01*
X1109649Y783329D01*
X1110368Y786011D01*
Y788789D01*
X1109649Y791471D01*
X1108260Y793877D01*
X1107852Y794285D01*
X1111823Y798257D01*
X1112777Y799685D01*
X1113113Y801370D01*
Y964067D01*
X1113360Y964133D01*
X1116108Y965719D01*
X1118351Y967962D01*
X1119937Y970710D01*
X1120758Y973774D01*
Y976946D01*
X1119937Y980010D01*
X1118351Y982758D01*
X1116108Y985001D01*
X1113360Y986587D01*
X1110296Y987408D01*
D02*
G37*
G36*
X477770Y774510D02*
X467750D01*
Y770975D01*
X465185D01*
X464303Y771857D01*
X462797Y772726D01*
X461518Y773069D01*
Y766572D01*
Y760075D01*
X462797Y760418D01*
X464303Y761288D01*
X465185Y762169D01*
X467750D01*
Y759930D01*
X477770D01*
Y767220D01*
Y774510D01*
D02*
G37*
G36*
X490330D02*
X480310D01*
Y768490D01*
X490330D01*
Y774510D01*
D02*
G37*
G36*
X458978Y773069D02*
X457699Y772726D01*
X456193Y771857D01*
X454963Y770627D01*
X454094Y769121D01*
X453751Y767842D01*
X458978D01*
Y773069D01*
D02*
G37*
G36*
Y765302D02*
X453751D01*
X454094Y764023D01*
X454963Y762517D01*
X456193Y761288D01*
X457699Y760418D01*
X458978Y760075D01*
Y765302D01*
D02*
G37*
G36*
X490330Y765950D02*
X480310D01*
Y759930D01*
X490330D01*
Y765950D01*
D02*
G37*
G36*
X153370Y748860D02*
X147600D01*
Y743090D01*
X153370D01*
Y748860D01*
D02*
G37*
G36*
X189680D02*
X183910D01*
Y743090D01*
X189680D01*
Y748860D01*
D02*
G37*
G36*
X181370D02*
X169910D01*
Y741820D01*
X167370D01*
Y748860D01*
X155910D01*
Y741820D01*
X154640D01*
Y740550D01*
X147600D01*
Y734780D01*
Y729090D01*
X154640D01*
Y726550D01*
X147600D01*
Y720780D01*
Y715090D01*
X154640D01*
Y713820D01*
X155910D01*
Y706780D01*
X167370D01*
Y713820D01*
X169910D01*
Y706780D01*
X181370D01*
Y713820D01*
X182640D01*
Y715090D01*
X189680D01*
Y720780D01*
Y726550D01*
X182640D01*
Y729090D01*
X189680D01*
Y734780D01*
Y740550D01*
X182640D01*
Y741820D01*
X181370D01*
Y748860D01*
D02*
G37*
G36*
X456104Y752094D02*
X454232D01*
X452423Y751609D01*
X450801Y750673D01*
X449477Y749349D01*
X448541Y747727D01*
X448056Y745918D01*
Y744046D01*
X448541Y742237D01*
X449477Y740615D01*
X450801Y739291D01*
X452423Y738355D01*
X454232Y737870D01*
X456104D01*
X457913Y738355D01*
X459535Y739291D01*
X460823Y740579D01*
X467242D01*
Y736422D01*
X490838D01*
Y752018D01*
X467242D01*
Y749385D01*
X460823D01*
X459535Y750673D01*
X457913Y751609D01*
X456104Y752094D01*
D02*
G37*
G36*
X1445379Y750958D02*
X1442601D01*
X1439919Y750239D01*
X1437513Y748850D01*
X1435549Y746887D01*
X1434161Y744481D01*
X1433442Y741799D01*
Y739021D01*
X1434161Y736339D01*
X1435549Y733933D01*
X1437513Y731970D01*
X1439919Y730581D01*
X1442601Y729862D01*
X1445379D01*
X1448061Y730581D01*
X1450467Y731970D01*
X1452431Y733933D01*
X1453819Y736339D01*
X1454538Y739021D01*
Y741799D01*
X1453819Y744481D01*
X1452431Y746887D01*
X1450467Y748850D01*
X1448061Y750239D01*
X1445379Y750958D01*
D02*
G37*
G36*
X401818Y745188D02*
X384722D01*
Y733092D01*
X387862D01*
X388497Y731992D01*
X388343Y731725D01*
X387858Y729916D01*
Y728044D01*
X388343Y726235D01*
X389279Y724613D01*
X390603Y723289D01*
X392225Y722353D01*
X394034Y721868D01*
X395906D01*
X397715Y722353D01*
X399337Y723289D01*
X400661Y724613D01*
X401597Y726235D01*
X402082Y728044D01*
Y729916D01*
X401597Y731725D01*
X401313Y732217D01*
X401818Y733092D01*
X401818D01*
Y745188D01*
D02*
G37*
G36*
X189680Y712550D02*
X183910D01*
Y706780D01*
X189680D01*
Y712550D01*
D02*
G37*
G36*
X153370Y712550D02*
X147600D01*
Y706780D01*
X153370D01*
Y712550D01*
D02*
G37*
G36*
X1445379Y725558D02*
X1442601D01*
X1439919Y724839D01*
X1437513Y723450D01*
X1435549Y721487D01*
X1434161Y719081D01*
X1433442Y716399D01*
Y713621D01*
X1434161Y710939D01*
X1435549Y708533D01*
X1437513Y706570D01*
X1439919Y705181D01*
X1442601Y704462D01*
X1445379D01*
X1448061Y705181D01*
X1450467Y706570D01*
X1452431Y708533D01*
X1453819Y710939D01*
X1454538Y713621D01*
Y716399D01*
X1453819Y719081D01*
X1452431Y721487D01*
X1450467Y723450D01*
X1448061Y724839D01*
X1445379Y725558D01*
D02*
G37*
G36*
X476140Y707020D02*
X469120D01*
Y698500D01*
X476140D01*
Y707020D01*
D02*
G37*
G36*
Y695960D02*
X469120D01*
Y687440D01*
X476140D01*
Y695960D01*
D02*
G37*
G36*
X1454538Y700158D02*
X1433442D01*
Y679062D01*
X1454538D01*
Y700158D01*
D02*
G37*
G36*
X279080Y684400D02*
X270310D01*
Y678630D01*
X279080D01*
Y684400D01*
D02*
G37*
G36*
X267770D02*
X259000D01*
Y678630D01*
X267770D01*
Y684400D01*
D02*
G37*
G36*
X840792Y643770D02*
X840740D01*
Y635000D01*
X849510D01*
Y635052D01*
X848826Y637605D01*
X847504Y639895D01*
X845635Y641764D01*
X843345Y643086D01*
X840792Y643770D01*
D02*
G37*
G36*
X838200D02*
X838148D01*
X835595Y643086D01*
X833305Y641764D01*
X831436Y639895D01*
X830114Y637605D01*
X829430Y635052D01*
Y635000D01*
X838200D01*
Y643770D01*
D02*
G37*
G36*
X849510Y632460D02*
X840740D01*
Y623690D01*
X840792D01*
X843345Y624374D01*
X845635Y625696D01*
X847504Y627565D01*
X848826Y629855D01*
X849510Y632408D01*
Y632460D01*
D02*
G37*
G36*
X838200D02*
X829430D01*
Y632408D01*
X830114Y629855D01*
X831436Y627565D01*
X833305Y625696D01*
X835595Y624374D01*
X838148Y623690D01*
X838200D01*
Y632460D01*
D02*
G37*
G36*
X381332Y624940D02*
X381280D01*
Y616170D01*
X390050D01*
Y616222D01*
X389366Y618775D01*
X388044Y621065D01*
X386175Y622934D01*
X383885Y624256D01*
X381332Y624940D01*
D02*
G37*
G36*
X378740D02*
X378688D01*
X376135Y624256D01*
X373845Y622934D01*
X371976Y621065D01*
X370654Y618775D01*
X369970Y616222D01*
Y616170D01*
X378740D01*
Y624940D01*
D02*
G37*
G36*
X390050Y613630D02*
X381280D01*
Y604860D01*
X381332D01*
X383885Y605544D01*
X386175Y606866D01*
X388044Y608735D01*
X389366Y611025D01*
X390050Y613578D01*
Y613630D01*
D02*
G37*
G36*
X378740D02*
X369970D01*
Y613578D01*
X370654Y611025D01*
X371976Y608735D01*
X373845Y606866D01*
X376135Y605544D01*
X378688Y604860D01*
X378740D01*
Y613630D01*
D02*
G37*
G36*
X490838Y729018D02*
X467242D01*
Y713422D01*
X481865D01*
X486490Y708797D01*
Y707963D01*
X485700Y707020D01*
X485220Y707020D01*
X478680D01*
Y697230D01*
Y687440D01*
X485552Y687440D01*
X486612Y686932D01*
X486760Y686932D01*
X495235D01*
X500665Y681502D01*
Y623416D01*
X500533Y623340D01*
X498569Y621377D01*
X497181Y618971D01*
X496462Y616289D01*
Y613511D01*
X497181Y610829D01*
X498569Y608423D01*
X500533Y606460D01*
X502939Y605071D01*
X505621Y604352D01*
X508399D01*
X511081Y605071D01*
X513487Y606460D01*
X515451Y608423D01*
X516839Y610829D01*
X517558Y613511D01*
Y616289D01*
X516839Y618971D01*
X515451Y621377D01*
X513487Y623340D01*
X513355Y623416D01*
Y684130D01*
X512872Y686558D01*
X511497Y688617D01*
X504208Y695905D01*
Y707528D01*
X499180D01*
Y711425D01*
X498697Y713853D01*
X497322Y715911D01*
X490838Y722395D01*
Y729018D01*
D02*
G37*
G36*
X330599Y625448D02*
X327821D01*
X325139Y624729D01*
X322733Y623340D01*
X320770Y621377D01*
X319381Y618971D01*
X318662Y616289D01*
Y613511D01*
X319381Y610829D01*
X320770Y608423D01*
X322733Y606460D01*
X325139Y605071D01*
X327821Y604352D01*
X330599D01*
X333281Y605071D01*
X335687Y606460D01*
X337650Y608423D01*
X339039Y610829D01*
X339758Y613511D01*
Y616289D01*
X339039Y618971D01*
X337650Y621377D01*
X335687Y623340D01*
X333281Y624729D01*
X330599Y625448D01*
D02*
G37*
G36*
X279799D02*
X277021D01*
X274339Y624729D01*
X271933Y623340D01*
X269970Y621377D01*
X268581Y618971D01*
X267862Y616289D01*
Y613511D01*
X268581Y610829D01*
X269970Y608423D01*
X271933Y606460D01*
X274339Y605071D01*
X277021Y604352D01*
X279799D01*
X282481Y605071D01*
X284887Y606460D01*
X286850Y608423D01*
X288239Y610829D01*
X288958Y613511D01*
Y616289D01*
X288239Y618971D01*
X286850Y621377D01*
X284887Y623340D01*
X282481Y624729D01*
X279799Y625448D01*
D02*
G37*
G36*
X76599D02*
X73821D01*
X71139Y624729D01*
X68733Y623340D01*
X66769Y621377D01*
X65381Y618971D01*
X64662Y616289D01*
Y613511D01*
X65381Y610829D01*
X66769Y608423D01*
X68733Y606460D01*
X71139Y605071D01*
X73821Y604352D01*
X76599D01*
X79281Y605071D01*
X81687Y606460D01*
X83651Y608423D01*
X85039Y610829D01*
X85758Y613511D01*
Y616289D01*
X85039Y618971D01*
X83651Y621377D01*
X81687Y623340D01*
X79281Y624729D01*
X76599Y625448D01*
D02*
G37*
G36*
X60358D02*
X39262D01*
Y604352D01*
X60358D01*
Y625448D01*
D02*
G37*
G36*
X1453522Y624466D02*
X1432426D01*
Y603370D01*
X1453522D01*
Y624466D01*
D02*
G37*
G36*
X1444363Y599066D02*
X1441585D01*
X1438903Y598347D01*
X1436497Y596959D01*
X1434534Y594995D01*
X1433145Y592589D01*
X1432426Y589907D01*
Y587129D01*
X1433145Y584447D01*
X1434534Y582041D01*
X1436497Y580078D01*
X1438903Y578689D01*
X1441585Y577970D01*
X1444363D01*
X1447045Y578689D01*
X1449451Y580078D01*
X1451414Y582041D01*
X1452803Y584447D01*
X1453522Y587129D01*
Y589907D01*
X1452803Y592589D01*
X1451414Y594995D01*
X1449451Y596959D01*
X1447045Y598347D01*
X1444363Y599066D01*
D02*
G37*
G36*
X58588Y590043D02*
X55712D01*
X52934Y589299D01*
X50443Y587861D01*
X48409Y585827D01*
X46971Y583336D01*
X46227Y580558D01*
Y577682D01*
X46971Y574904D01*
X48409Y572413D01*
X50443Y570379D01*
X52934Y568941D01*
X55712Y568197D01*
X58588D01*
X61366Y568941D01*
X63857Y570379D01*
X65891Y572413D01*
X67329Y574904D01*
X68073Y577682D01*
Y580558D01*
X67329Y583336D01*
X65891Y585827D01*
X63857Y587861D01*
X61366Y589299D01*
X58588Y590043D01*
D02*
G37*
G36*
X1444363Y573666D02*
X1441585D01*
X1438903Y572947D01*
X1436497Y571558D01*
X1434534Y569595D01*
X1433145Y567189D01*
X1432426Y564507D01*
Y561729D01*
X1433145Y559047D01*
X1434534Y556641D01*
X1436497Y554678D01*
X1438903Y553289D01*
X1441585Y552570D01*
X1444363D01*
X1447045Y553289D01*
X1449451Y554678D01*
X1451414Y556641D01*
X1452803Y559047D01*
X1453522Y561729D01*
Y564507D01*
X1452803Y567189D01*
X1451414Y569595D01*
X1449451Y571558D01*
X1447045Y572947D01*
X1444363Y573666D01*
D02*
G37*
G36*
X1444296Y547758D02*
X1444244D01*
Y538988D01*
X1453014D01*
Y539040D01*
X1452330Y541593D01*
X1451008Y543883D01*
X1449139Y545752D01*
X1446849Y547074D01*
X1444296Y547758D01*
D02*
G37*
G36*
X1441704D02*
X1441652D01*
X1439099Y547074D01*
X1436809Y545752D01*
X1434940Y543883D01*
X1433618Y541593D01*
X1432934Y539040D01*
Y538988D01*
X1441704D01*
Y547758D01*
D02*
G37*
G36*
X202830Y543450D02*
X194310D01*
Y536430D01*
X202830D01*
Y543450D01*
D02*
G37*
G36*
X123521Y544535D02*
X123420D01*
Y535390D01*
X132565D01*
Y535491D01*
X131855Y538140D01*
X130484Y540515D01*
X128545Y542454D01*
X126170Y543825D01*
X123521Y544535D01*
D02*
G37*
G36*
X58521D02*
X58420D01*
Y535390D01*
X67565D01*
Y535491D01*
X66855Y538140D01*
X65484Y540515D01*
X63545Y542454D01*
X61170Y543825D01*
X58521Y544535D01*
D02*
G37*
G36*
X120880D02*
X120779D01*
X118130Y543825D01*
X115755Y542454D01*
X113816Y540515D01*
X112445Y538140D01*
X111735Y535491D01*
Y535390D01*
X120880D01*
Y544535D01*
D02*
G37*
G36*
X55880D02*
X55779D01*
X53130Y543825D01*
X50755Y542454D01*
X48816Y540515D01*
X47445Y538140D01*
X46735Y535491D01*
Y535390D01*
X55880D01*
Y544535D01*
D02*
G37*
G36*
X1453014Y536448D02*
X1444244D01*
Y527678D01*
X1444296D01*
X1446849Y528362D01*
X1449139Y529684D01*
X1451008Y531553D01*
X1452330Y533843D01*
X1453014Y536396D01*
Y536448D01*
D02*
G37*
G36*
X1441704D02*
X1432934D01*
Y536396D01*
X1433618Y533843D01*
X1434940Y531553D01*
X1436809Y529684D01*
X1439099Y528362D01*
X1441652Y527678D01*
X1441704D01*
Y536448D01*
D02*
G37*
G36*
X132565Y532850D02*
X123420D01*
Y523705D01*
X123521D01*
X126170Y524415D01*
X128545Y525786D01*
X130484Y527725D01*
X131855Y530100D01*
X132565Y532749D01*
Y532850D01*
D02*
G37*
G36*
X120880D02*
X111735D01*
Y532749D01*
X112445Y530100D01*
X113816Y527725D01*
X115755Y525786D01*
X118130Y524415D01*
X120779Y523705D01*
X120880D01*
Y532850D01*
D02*
G37*
G36*
X67565D02*
X58420D01*
Y523705D01*
X58521D01*
X61170Y524415D01*
X63545Y525786D01*
X65484Y527725D01*
X66855Y530100D01*
X67565Y532749D01*
Y532850D01*
D02*
G37*
G36*
X55880D02*
X46735D01*
Y532749D01*
X47445Y530100D01*
X48816Y527725D01*
X50755Y525786D01*
X53130Y524415D01*
X55779Y523705D01*
X55880D01*
Y532850D01*
D02*
G37*
G36*
X1337618Y526188D02*
X1306522D01*
Y523235D01*
X1293554D01*
X1293065Y523517D01*
X1291256Y524002D01*
X1289384D01*
X1287575Y523517D01*
X1285953Y522581D01*
X1284629Y521257D01*
X1283693Y519635D01*
X1283208Y517826D01*
Y515954D01*
X1283693Y514145D01*
X1284629Y512523D01*
X1285953Y511199D01*
X1287575Y510263D01*
X1289384Y509778D01*
X1291256D01*
X1293065Y510263D01*
X1293554Y510545D01*
X1306522D01*
Y507592D01*
X1325417D01*
Y500058D01*
X1322912D01*
Y477962D01*
X1339008D01*
Y500058D01*
X1334223D01*
Y507592D01*
X1337618D01*
Y526188D01*
D02*
G37*
G36*
X1163628Y522378D02*
X1132532D01*
Y518155D01*
X1125914D01*
X1125425Y518437D01*
X1123616Y518922D01*
X1121744D01*
X1119935Y518437D01*
X1118313Y517501D01*
X1116989Y516177D01*
X1116053Y514555D01*
X1115568Y512746D01*
Y510874D01*
X1116053Y509065D01*
X1116989Y507443D01*
X1118313Y506119D01*
X1119935Y505183D01*
X1121744Y504698D01*
X1123616D01*
X1125425Y505183D01*
X1125914Y505465D01*
X1132532D01*
Y503782D01*
X1151427D01*
Y496218D01*
X1147652D01*
Y474122D01*
X1163748D01*
Y496218D01*
X1160233D01*
Y503782D01*
X1163628D01*
Y522378D01*
D02*
G37*
G36*
X982148Y521108D02*
X951052D01*
Y518155D01*
X948114D01*
X947625Y518437D01*
X945816Y518922D01*
X943944D01*
X942135Y518437D01*
X940513Y517501D01*
X939189Y516177D01*
X938253Y514555D01*
X937768Y512746D01*
Y510874D01*
X938253Y509065D01*
X939189Y507443D01*
X940513Y506119D01*
X942135Y505183D01*
X943944Y504698D01*
X945816D01*
X947625Y505183D01*
X948114Y505465D01*
X951052D01*
Y502512D01*
X969688D01*
Y494948D01*
X966042D01*
Y472852D01*
X982138D01*
Y494948D01*
X979012D01*
Y502512D01*
X982148D01*
Y521108D01*
D02*
G37*
G36*
X622608D02*
X591512D01*
Y518155D01*
X588704D01*
X588215Y518437D01*
X586406Y518922D01*
X584534D01*
X582725Y518437D01*
X581103Y517501D01*
X579779Y516177D01*
X578843Y514555D01*
X578358Y512746D01*
Y510874D01*
X578843Y509065D01*
X579779Y507443D01*
X581103Y506119D01*
X582725Y505183D01*
X584534Y504698D01*
X586406D01*
X588215Y505183D01*
X588704Y505465D01*
X591512D01*
Y502512D01*
X610148D01*
Y494978D01*
X606632D01*
Y472882D01*
X622728D01*
Y494978D01*
X619472D01*
Y502512D01*
X622608D01*
Y521108D01*
D02*
G37*
G36*
X804218Y519838D02*
X773122D01*
Y516885D01*
X770539D01*
X770177Y517247D01*
X768555Y518183D01*
X766746Y518668D01*
X764874D01*
X763065Y518183D01*
X761443Y517247D01*
X760119Y515923D01*
X759183Y514301D01*
X758698Y512492D01*
Y510620D01*
X759183Y508811D01*
X760119Y507189D01*
X761443Y505865D01*
X763065Y504929D01*
X764874Y504444D01*
X766056D01*
X767307Y504195D01*
X773122D01*
Y501242D01*
X791758D01*
Y493678D01*
X788242D01*
Y471582D01*
X804338D01*
Y493678D01*
X801082D01*
Y501242D01*
X804218D01*
Y519838D01*
D02*
G37*
G36*
X1313608Y500058D02*
X1297512D01*
Y494963D01*
X1276508D01*
Y499608D01*
X1258412D01*
Y481512D01*
X1276508D01*
Y486157D01*
X1297512D01*
Y477962D01*
X1313608D01*
Y500058D01*
D02*
G37*
G36*
X467718Y508689D02*
X465846D01*
X464037Y508204D01*
X462415Y507268D01*
X461091Y505944D01*
X460155Y504322D01*
X459670Y502513D01*
Y500640D01*
X460155Y498832D01*
X461091Y497210D01*
X462415Y495886D01*
X464037Y494949D01*
X465846Y494465D01*
X467718D01*
X469527Y494949D01*
X471149Y495886D01*
X472473Y497210D01*
X473409Y498832D01*
X473894Y500640D01*
Y502513D01*
X473409Y504322D01*
X472473Y505944D01*
X471149Y507268D01*
X469527Y508204D01*
X467718Y508689D01*
D02*
G37*
G36*
X1138348Y496218D02*
X1122252D01*
Y492305D01*
X1102518D01*
Y495798D01*
X1084422D01*
Y477702D01*
X1102518D01*
Y479615D01*
X1122252D01*
Y474122D01*
X1138348D01*
Y496218D01*
D02*
G37*
G36*
X956738Y494948D02*
X940642D01*
Y490142D01*
X919638D01*
Y494528D01*
X901542D01*
Y476432D01*
X919638D01*
Y480818D01*
X940642D01*
Y472852D01*
X956738D01*
Y494948D01*
D02*
G37*
G36*
X597328Y494978D02*
X581232D01*
Y488872D01*
X561498D01*
Y493258D01*
X543402D01*
Y475162D01*
X561498D01*
Y479548D01*
X581232D01*
Y472882D01*
X597328D01*
Y494978D01*
D02*
G37*
G36*
X778938Y493678D02*
X762842D01*
Y487602D01*
X741838D01*
Y491988D01*
X723742D01*
Y473892D01*
X741838D01*
Y478278D01*
X762842D01*
Y471582D01*
X778938D01*
Y493678D01*
D02*
G37*
G36*
X411908D02*
X395812D01*
Y487602D01*
X374808D01*
Y491988D01*
X356712D01*
Y473892D01*
X374808D01*
Y478278D01*
X395812D01*
Y471582D01*
X411908D01*
Y493678D01*
D02*
G37*
G36*
X561498Y472258D02*
X543402D01*
Y467735D01*
X530578D01*
X529290Y469023D01*
X527668Y469960D01*
X525859Y470444D01*
X523987D01*
X522178Y469960D01*
X520556Y469023D01*
X519232Y467699D01*
X518296Y466077D01*
X517811Y464269D01*
Y462396D01*
X518296Y460587D01*
X519232Y458965D01*
X520556Y457641D01*
X522178Y456705D01*
X523987Y456220D01*
X525859D01*
X527668Y456705D01*
X529290Y457641D01*
X530578Y458930D01*
X543402D01*
Y454162D01*
X561498D01*
Y472258D01*
D02*
G37*
G36*
X342058Y471932D02*
X340186D01*
X338377Y471447D01*
X336755Y470511D01*
X335431Y469187D01*
X334495Y467565D01*
X334010Y465756D01*
Y463884D01*
X334495Y462075D01*
X335431Y460453D01*
X336755Y459129D01*
X338377Y458193D01*
X340186Y457708D01*
X342058D01*
X343867Y458193D01*
X345489Y459129D01*
X346777Y460417D01*
X356712D01*
Y452892D01*
X374808D01*
Y470988D01*
X356712D01*
Y469223D01*
X346777D01*
X345489Y470511D01*
X343867Y471447D01*
X342058Y471932D01*
D02*
G37*
G36*
X1339008Y408558D02*
X1322912D01*
Y386462D01*
X1339008D01*
Y390253D01*
X1347426D01*
X1348535Y389613D01*
X1350344Y389128D01*
X1352216D01*
X1354025Y389613D01*
X1355647Y390549D01*
X1356971Y391873D01*
X1357907Y393495D01*
X1358392Y395304D01*
Y397176D01*
X1357907Y398985D01*
X1356971Y400607D01*
X1355647Y401931D01*
X1354025Y402867D01*
X1352216Y403352D01*
X1350344D01*
X1348815Y402942D01*
X1339008D01*
Y408558D01*
D02*
G37*
G36*
X1163748Y404718D02*
X1147652D01*
Y382622D01*
X1163748D01*
Y387325D01*
X1170620D01*
X1171497Y386819D01*
X1173306Y386334D01*
X1175178D01*
X1176987Y386819D01*
X1178609Y387755D01*
X1179933Y389079D01*
X1180869Y390701D01*
X1181354Y392510D01*
Y394382D01*
X1180869Y396191D01*
X1179933Y397813D01*
X1178609Y399137D01*
X1176987Y400073D01*
X1175178Y400558D01*
X1173306D01*
X1171497Y400073D01*
X1171396Y400015D01*
X1163748D01*
Y404718D01*
D02*
G37*
G36*
X982138Y403448D02*
X966042D01*
Y381352D01*
X982138D01*
Y386055D01*
X984878D01*
X985315Y385803D01*
X987124Y385318D01*
X988996D01*
X990805Y385803D01*
X992427Y386739D01*
X993751Y388063D01*
X994687Y389685D01*
X995172Y391494D01*
Y393366D01*
X994687Y395175D01*
X993751Y396797D01*
X992427Y398121D01*
X990805Y399057D01*
X988996Y399542D01*
X987124D01*
X985315Y399057D01*
X984774Y398745D01*
X982138D01*
Y403448D01*
D02*
G37*
G36*
X437308Y402178D02*
X421212D01*
Y380082D01*
X437308D01*
Y384785D01*
X443977D01*
X444835Y384290D01*
X446643Y383805D01*
X448516D01*
X450325Y384290D01*
X451947Y385226D01*
X453271Y386550D01*
X454207Y388172D01*
X454692Y389981D01*
Y391853D01*
X454207Y393662D01*
X453271Y395284D01*
X451947Y396608D01*
X450325Y397545D01*
X448516Y398029D01*
X446643D01*
X444835Y397545D01*
X444714Y397475D01*
X437308D01*
Y402178D01*
D02*
G37*
G36*
X804338D02*
X788242D01*
Y380082D01*
X804338D01*
Y384785D01*
X809940D01*
X810817Y384279D01*
X812626Y383794D01*
X814498D01*
X816307Y384279D01*
X817929Y385215D01*
X819253Y386539D01*
X820189Y388161D01*
X820674Y389970D01*
Y391842D01*
X820189Y393651D01*
X819253Y395273D01*
X817929Y396597D01*
X816307Y397533D01*
X814498Y398018D01*
X812626D01*
X810817Y397533D01*
X810716Y397475D01*
X804338D01*
Y402178D01*
D02*
G37*
G36*
X622728Y403478D02*
X606632D01*
Y381382D01*
X622728D01*
Y384307D01*
X628718D01*
X629207Y384025D01*
X631016Y383540D01*
X632888D01*
X634697Y384025D01*
X636319Y384961D01*
X637643Y386285D01*
X638579Y387907D01*
X639064Y389716D01*
Y391588D01*
X638579Y393397D01*
X637643Y395019D01*
X636319Y396343D01*
X634697Y397279D01*
X632888Y397764D01*
X631016D01*
X629207Y397279D01*
X628718Y396997D01*
X622728D01*
Y403478D01*
D02*
G37*
G36*
X1452368Y420048D02*
X1447632D01*
X1442986Y419124D01*
X1438609Y417311D01*
X1434670Y414679D01*
X1431321Y411330D01*
X1428689Y407391D01*
X1426876Y403014D01*
X1425952Y398368D01*
Y393632D01*
X1426876Y388985D01*
X1428689Y384609D01*
X1431321Y380670D01*
X1434670Y377321D01*
X1438609Y374689D01*
X1442986Y372876D01*
X1447632Y371952D01*
X1452368D01*
X1457014Y372876D01*
X1461391Y374689D01*
X1465330Y377321D01*
X1468679Y380670D01*
X1471311Y384609D01*
X1473124Y388985D01*
X1474048Y393632D01*
Y398368D01*
X1473124Y403014D01*
X1471311Y407391D01*
X1468679Y411330D01*
X1465330Y414679D01*
X1461391Y417311D01*
X1457014Y419124D01*
X1452368Y420048D01*
D02*
G37*
G36*
X1313608Y408558D02*
X1297512D01*
Y386462D01*
X1301157D01*
Y378348D01*
X1298422D01*
Y358252D01*
X1299639D01*
X1300680Y357700D01*
X1300680Y356982D01*
Y350930D01*
X1306220D01*
X1311760D01*
Y356982D01*
X1311760Y357700D01*
X1312801Y358252D01*
X1314018D01*
Y378348D01*
X1309963D01*
Y386462D01*
X1313608D01*
Y408558D01*
D02*
G37*
G36*
X1138348Y404718D02*
X1122252D01*
Y382622D01*
X1125897D01*
Y374538D01*
X1121892D01*
Y354442D01*
X1122931D01*
X1124150Y354320D01*
X1124150Y353172D01*
Y347550D01*
X1129690D01*
X1135230D01*
X1135230Y354320D01*
X1136450Y354442D01*
X1137488D01*
Y374538D01*
X1134703D01*
Y382622D01*
X1138348D01*
Y404718D01*
D02*
G37*
G36*
X778938Y402178D02*
X762842D01*
Y380082D01*
X766228D01*
Y373268D01*
X761720D01*
Y353172D01*
X763012D01*
X764232Y353050D01*
X764232Y351902D01*
Y346280D01*
X769772D01*
X775312D01*
X775312Y353050D01*
X776532Y353172D01*
X777316D01*
Y373268D01*
X775552D01*
Y380082D01*
X778938D01*
Y402178D01*
D02*
G37*
G36*
X956738Y403448D02*
X940642D01*
Y381352D01*
X944028D01*
Y373268D01*
X941552D01*
Y353172D01*
X942590D01*
X943810Y353050D01*
X943810Y351902D01*
Y346280D01*
X949350D01*
X954890D01*
X954890Y353050D01*
X956109Y353172D01*
X957148D01*
Y373268D01*
X953352D01*
Y381352D01*
X956738D01*
Y403448D01*
D02*
G37*
G36*
X597328Y403478D02*
X581232D01*
Y381382D01*
X584618D01*
Y373268D01*
X582142D01*
Y353172D01*
X583181D01*
X584400Y353050D01*
X584400Y351902D01*
Y346280D01*
X589940D01*
X595480D01*
X595480Y353050D01*
X596699Y353172D01*
X597738D01*
Y373268D01*
X593942D01*
Y381382D01*
X597328D01*
Y403478D01*
D02*
G37*
G36*
X411908Y402178D02*
X395812D01*
Y380082D01*
X399198D01*
Y373268D01*
X397332D01*
Y353172D01*
X397761D01*
X398980Y353050D01*
X398980Y351902D01*
Y346280D01*
X404520D01*
X410060D01*
X410060Y353050D01*
X411279Y353172D01*
X412928D01*
Y373268D01*
X408522D01*
Y380082D01*
X411908D01*
Y402178D01*
D02*
G37*
G36*
X1311760Y348390D02*
X1307490D01*
Y341620D01*
X1311760D01*
Y348390D01*
D02*
G37*
G36*
X1304950D02*
X1300680D01*
Y341620D01*
X1304950D01*
Y348390D01*
D02*
G37*
G36*
X1333018Y378348D02*
X1317422D01*
Y358252D01*
X1317920D01*
X1319172Y358208D01*
Y341112D01*
X1331268D01*
Y358208D01*
X1332520Y358252D01*
X1333018D01*
Y378348D01*
D02*
G37*
G36*
X1135230Y345010D02*
X1130960D01*
Y338240D01*
X1135230D01*
Y345010D01*
D02*
G37*
G36*
X1128420D02*
X1124150D01*
Y338240D01*
X1128420D01*
Y345010D01*
D02*
G37*
G36*
X279490Y359400D02*
X267970D01*
Y338130D01*
X279490D01*
Y359400D01*
D02*
G37*
G36*
X265430D02*
X253910D01*
Y338130D01*
X265430D01*
Y359400D01*
D02*
G37*
G36*
X1156488Y374538D02*
X1140892D01*
Y354442D01*
X1142642D01*
Y337732D01*
X1154738D01*
Y354442D01*
X1156488D01*
Y374538D01*
D02*
G37*
G36*
X954890Y343740D02*
X950620D01*
Y336970D01*
X954890D01*
Y343740D01*
D02*
G37*
G36*
X948080D02*
X943810D01*
Y336970D01*
X948080D01*
Y343740D01*
D02*
G37*
G36*
X775312D02*
X771042D01*
Y336970D01*
X775312D01*
Y343740D01*
D02*
G37*
G36*
X768502D02*
X764232D01*
Y336970D01*
X768502D01*
Y343740D01*
D02*
G37*
G36*
X595480D02*
X591210D01*
Y336970D01*
X595480D01*
Y343740D01*
D02*
G37*
G36*
X588670D02*
X584400D01*
Y336970D01*
X588670D01*
Y343740D01*
D02*
G37*
G36*
X410060D02*
X405790D01*
Y336970D01*
X410060D01*
Y343740D01*
D02*
G37*
G36*
X403250D02*
X398980D01*
Y336970D01*
X403250D01*
Y343740D01*
D02*
G37*
G36*
X976148Y373268D02*
X960552D01*
Y353172D01*
X962302D01*
Y336462D01*
X974398D01*
Y353172D01*
X976148D01*
Y373268D01*
D02*
G37*
G36*
X796316D02*
X780720D01*
Y353172D01*
X782724D01*
Y336462D01*
X794820D01*
Y353172D01*
X796316D01*
Y373268D01*
D02*
G37*
G36*
X616738D02*
X601142D01*
Y353172D01*
X602892D01*
Y336462D01*
X614988D01*
Y353172D01*
X616738D01*
Y373268D01*
D02*
G37*
G36*
X431928D02*
X416332D01*
Y353172D01*
X417472D01*
Y336462D01*
X429568D01*
Y353172D01*
X431928D01*
Y373268D01*
D02*
G37*
G36*
X279490Y335590D02*
X267970D01*
Y314320D01*
X279490D01*
Y335590D01*
D02*
G37*
G36*
X265430D02*
X253910D01*
Y314320D01*
X265430D01*
Y335590D01*
D02*
G37*
G36*
X158748Y333578D02*
X120652D01*
Y311482D01*
X134031D01*
Y304800D01*
X134354Y302347D01*
X135301Y300061D01*
X136807Y298097D01*
X138771Y296591D01*
X141057Y295644D01*
X143510Y295321D01*
X145963Y295644D01*
X148250Y296591D01*
X150213Y298097D01*
X151719Y300061D01*
X152666Y302347D01*
X152989Y304800D01*
Y311482D01*
X158748D01*
Y333578D01*
D02*
G37*
G36*
X1477010Y293343D02*
Y285750D01*
X1484603D01*
X1484024Y287911D01*
X1482854Y289939D01*
X1481199Y291594D01*
X1479171Y292764D01*
X1477010Y293343D01*
D02*
G37*
G36*
X1474470D02*
X1472309Y292764D01*
X1470281Y291594D01*
X1468626Y289939D01*
X1467456Y287911D01*
X1466877Y285750D01*
X1474470D01*
Y293343D01*
D02*
G37*
G36*
X213410Y288270D02*
X201340D01*
Y281650D01*
X213410D01*
Y288270D01*
D02*
G37*
G36*
X198800D02*
X186730D01*
Y281650D01*
X198800D01*
Y288270D01*
D02*
G37*
G36*
X1484603Y283210D02*
X1477010D01*
Y275617D01*
X1479171Y276196D01*
X1481199Y277366D01*
X1482854Y279021D01*
X1484024Y281049D01*
X1484603Y283210D01*
D02*
G37*
G36*
X1474470D02*
X1466877D01*
X1467456Y281049D01*
X1468626Y279021D01*
X1470281Y277366D01*
X1472309Y276196D01*
X1474470Y275617D01*
Y283210D01*
D02*
G37*
G36*
X237744Y302341D02*
X235291Y302018D01*
X233004Y301071D01*
X231041Y299565D01*
X230787Y299311D01*
X229281Y297348D01*
X228334Y295061D01*
X228011Y292608D01*
Y281510D01*
X227700D01*
Y269240D01*
X237490D01*
X247280D01*
Y281510D01*
X246969D01*
Y290933D01*
X247223Y292862D01*
X246900Y295315D01*
X245953Y297602D01*
X244447Y299565D01*
X242484Y301071D01*
X240197Y302018D01*
X237744Y302341D01*
D02*
G37*
G36*
X247280Y266700D02*
X238760D01*
Y254430D01*
X247280D01*
Y266700D01*
D02*
G37*
G36*
X236220D02*
X227700D01*
Y254430D01*
X236220D01*
Y266700D01*
D02*
G37*
G36*
X213410Y279110D02*
X186730D01*
X186730Y272838D01*
X186222Y271778D01*
X186222Y271430D01*
Y255330D01*
X186222Y254982D01*
X186730Y253922D01*
X186730Y253712D01*
Y247650D01*
X213410D01*
X213410Y253922D01*
X213918Y254982D01*
X215014Y255876D01*
X216339D01*
X218147Y256361D01*
X219769Y257297D01*
X221093Y258622D01*
X222029Y260243D01*
X222514Y262052D01*
Y263925D01*
X222029Y265734D01*
X221093Y267355D01*
X219769Y268679D01*
X218147Y269616D01*
X216339Y270100D01*
X215014D01*
X213918Y271143D01*
X213918Y271778D01*
X213410Y272838D01*
X213410Y273048D01*
Y279110D01*
D02*
G37*
G36*
X1477010Y222223D02*
Y214630D01*
X1484603D01*
X1484024Y216791D01*
X1482854Y218819D01*
X1481199Y220474D01*
X1479171Y221644D01*
X1477010Y222223D01*
D02*
G37*
G36*
X1474470D02*
X1472309Y221644D01*
X1470281Y220474D01*
X1468626Y218819D01*
X1467456Y216791D01*
X1466877Y214630D01*
X1474470D01*
Y222223D01*
D02*
G37*
G36*
X1484603Y212090D02*
X1477010D01*
Y204497D01*
X1479171Y205076D01*
X1481199Y206246D01*
X1482854Y207901D01*
X1484024Y209929D01*
X1484603Y212090D01*
D02*
G37*
G36*
X1474470D02*
X1466877D01*
X1467456Y209929D01*
X1468626Y207901D01*
X1470281Y206246D01*
X1472309Y205076D01*
X1474470Y204497D01*
Y212090D01*
D02*
G37*
G36*
X1477010Y151103D02*
Y143510D01*
X1484603D01*
X1484024Y145671D01*
X1482854Y147699D01*
X1481199Y149354D01*
X1479171Y150524D01*
X1477010Y151103D01*
D02*
G37*
G36*
X1474470D02*
X1472309Y150524D01*
X1470281Y149354D01*
X1468626Y147699D01*
X1467456Y145671D01*
X1466877Y143510D01*
X1474470D01*
Y151103D01*
D02*
G37*
G36*
X208440Y151220D02*
X187170D01*
Y139700D01*
X208440D01*
Y151220D01*
D02*
G37*
G36*
X184630D02*
X163360D01*
Y139700D01*
X184630D01*
Y151220D01*
D02*
G37*
G36*
X1484603Y140970D02*
X1477010D01*
Y133377D01*
X1479171Y133956D01*
X1481199Y135126D01*
X1482854Y136781D01*
X1484024Y138809D01*
X1484603Y140970D01*
D02*
G37*
G36*
X1474470D02*
X1466877D01*
X1467456Y138809D01*
X1468626Y136781D01*
X1470281Y135126D01*
X1472309Y133956D01*
X1474470Y133377D01*
Y140970D01*
D02*
G37*
G36*
X252369Y124048D02*
X247631D01*
X242985Y123124D01*
X238609Y121311D01*
X234670Y118679D01*
X231321Y115330D01*
X228689Y111391D01*
X226876Y107015D01*
X225952Y102368D01*
Y97632D01*
X226876Y92985D01*
X228689Y88609D01*
X231321Y84670D01*
X234670Y81321D01*
X238609Y78689D01*
X242985Y76876D01*
X247631Y75952D01*
X252369D01*
X257015Y76876D01*
X261391Y78689D01*
X265330Y81321D01*
X268679Y84670D01*
X271311Y88609D01*
X273124Y92985D01*
X274048Y97632D01*
Y102368D01*
X273124Y107015D01*
X271311Y111391D01*
X268679Y115330D01*
X265330Y118679D01*
X261391Y121311D01*
X257015Y123124D01*
X252369Y124048D01*
D02*
G37*
G36*
X1477010Y79983D02*
Y72390D01*
X1484603D01*
X1484024Y74551D01*
X1482854Y76579D01*
X1481199Y78234D01*
X1479171Y79404D01*
X1477010Y79983D01*
D02*
G37*
G36*
X1474470D02*
X1472309Y79404D01*
X1470281Y78234D01*
X1468626Y76579D01*
X1467456Y74551D01*
X1466877Y72390D01*
X1474470D01*
Y79983D01*
D02*
G37*
G36*
X1484603Y69850D02*
X1477010D01*
Y62257D01*
X1479171Y62836D01*
X1481199Y64006D01*
X1482854Y65661D01*
X1484024Y67689D01*
X1484603Y69850D01*
D02*
G37*
G36*
X1474470D02*
X1466877D01*
X1467456Y67689D01*
X1468626Y65661D01*
X1470281Y64006D01*
X1472309Y62836D01*
X1474470Y62257D01*
Y69850D01*
D02*
G37*
G36*
X208440Y137160D02*
X163360D01*
Y125640D01*
X186101D01*
Y66398D01*
X172342Y52639D01*
X169825Y51965D01*
X167365Y50544D01*
X165356Y48535D01*
X163935Y46075D01*
X163200Y43330D01*
Y43180D01*
X173990D01*
Y41910D01*
X175260D01*
Y31120D01*
X175410D01*
X178155Y31855D01*
X180615Y33276D01*
X182624Y35285D01*
X183752Y37238D01*
X202283Y55769D01*
X203789Y57732D01*
X204736Y60018D01*
X205059Y62472D01*
Y125640D01*
X208440D01*
Y137160D01*
D02*
G37*
G36*
X172720Y40640D02*
X163200D01*
Y40490D01*
X163935Y37745D01*
X165356Y35285D01*
X167365Y33276D01*
X169825Y31855D01*
X172570Y31120D01*
X172720D01*
Y40640D01*
D02*
G37*
G36*
X213410Y211110D02*
X201340D01*
Y204490D01*
X213410D01*
Y211110D01*
D02*
G37*
G36*
X198800D02*
X186730D01*
Y204490D01*
X198800D01*
Y211110D01*
D02*
G37*
G36*
X141440Y151220D02*
X120170D01*
Y139700D01*
X141440D01*
Y151220D01*
D02*
G37*
G36*
X117630D02*
X96360D01*
Y139700D01*
X117630D01*
Y151220D01*
D02*
G37*
G36*
X141440Y137160D02*
X120170D01*
Y125640D01*
X141440D01*
Y137160D01*
D02*
G37*
G36*
X117630D02*
X96360D01*
Y125640D01*
X117630D01*
Y137160D01*
D02*
G37*
G36*
X124611Y52700D02*
X124460D01*
Y43180D01*
X133980D01*
Y43330D01*
X133245Y46075D01*
X131824Y48535D01*
X129815Y50544D01*
X127355Y51965D01*
X124611Y52700D01*
D02*
G37*
G36*
X121920D02*
X121770D01*
X119025Y51965D01*
X116565Y50544D01*
X114556Y48535D01*
X113135Y46075D01*
X112400Y43330D01*
Y43180D01*
X121920D01*
Y52700D01*
D02*
G37*
G36*
X133980Y40640D02*
X124460D01*
Y31120D01*
X124611D01*
X127355Y31855D01*
X129815Y33276D01*
X131824Y35285D01*
X133245Y37745D01*
X133980Y40490D01*
Y40640D01*
D02*
G37*
G36*
X121920D02*
X112400D01*
Y40490D01*
X113135Y37745D01*
X114556Y35285D01*
X116565Y33276D01*
X119025Y31855D01*
X121770Y31120D01*
X121920D01*
Y40640D01*
D02*
G37*
%LPD*%
D13*
X168640Y727820D02*
X182640Y713820D01*
X154640D02*
X168640Y727820D01*
X182640Y741820D01*
X154640D02*
X168640Y727820D01*
Y713820D02*
Y727820D01*
Y741820D01*
Y727820D02*
X182640D01*
X417576Y544576D02*
X807720D01*
X887816Y464480D02*
X910590D01*
X807720Y544576D02*
X887816Y464480D01*
X1375156Y715094D02*
Y740156D01*
X1240452Y580390D02*
X1375156Y715094D01*
X1235964Y587756D02*
X1350772Y702564D01*
Y717804D01*
X356604Y909828D02*
X360922Y905510D01*
X853910D01*
X355092Y909828D02*
X356604D01*
X853910Y905510D02*
X924090Y975690D01*
X932942Y613156D02*
X1207262D01*
X1243584Y649478D01*
X1260348D01*
X915670Y630428D02*
X932942Y613156D01*
X327144Y642366D02*
X354610Y614900D01*
X266494Y642366D02*
X327144D01*
X199826Y617284D02*
Y623134D01*
X180340Y642620D02*
Y655320D01*
Y642620D02*
X199826Y623134D01*
Y617284D02*
X202210Y614900D01*
X167640Y640080D02*
Y655320D01*
X176810Y614900D02*
Y630910D01*
X167640Y640080D02*
X176810Y630910D01*
X151410Y634010D02*
X154940Y637540D01*
X151410Y614900D02*
Y634010D01*
X154940Y637540D02*
Y655320D01*
X863600Y607060D02*
Y632460D01*
X864870Y633730D01*
X852170Y595630D02*
X863600Y607060D01*
X542294Y744474D02*
X564896D01*
X368770Y748640D02*
X371270D01*
X367040Y750370D02*
X368770Y748640D01*
X367040Y750370D02*
Y750560D01*
X364998Y752602D02*
X367040Y750560D01*
X335650Y752602D02*
X364998D01*
X355600Y727100D02*
Y744220D01*
X354940Y726440D02*
X355600Y727100D01*
X322580Y739532D02*
X335650Y752602D01*
X393270Y703580D02*
X408940D01*
X80113Y842710D02*
X82050D01*
X79043Y843779D02*
X80113Y842710D01*
X82050D02*
X91440Y833320D01*
X455168Y744982D02*
X478278D01*
X479040Y744220D01*
X542040D02*
X542294Y744474D01*
X460248Y766572D02*
X478392D01*
X479040Y767220D01*
X91440Y830320D02*
Y833320D01*
X100910Y833550D02*
Y843200D01*
X75210Y868900D02*
X100910Y843200D01*
X154640Y727820D02*
X168640D01*
X152400Y544720D02*
X152654Y544466D01*
Y535178D02*
Y544466D01*
X396554Y758444D02*
X507010Y868900D01*
X318008Y758444D02*
X396554D01*
X322580Y711570D02*
Y739532D01*
Y711570D02*
X335940Y698210D01*
X788772Y345010D02*
Y362966D01*
X788518Y363220D02*
X788772Y362966D01*
X1218946Y595122D02*
X1238250Y614426D01*
X893949Y626495D02*
X925322Y595122D01*
X1218946D01*
X268732Y572770D02*
X1252728D01*
X1443990Y764032D01*
X244856Y548894D02*
X268732Y572770D01*
X259588Y580390D02*
X1240452D01*
X243078Y563880D02*
X259588Y580390D01*
X229864Y569976D02*
X247644Y587756D01*
X1235964D01*
X174498Y578612D02*
X191516Y595630D01*
X852170D01*
X256540Y652320D02*
X266494Y642366D01*
X256540Y652320D02*
Y655320D01*
X234370Y642946D02*
Y652090D01*
X242570Y634746D02*
X283964D01*
X234370Y642946D02*
X242570Y634746D01*
X231140Y655320D02*
X234370Y652090D01*
X283964Y634746D02*
X303810Y614900D01*
X218440Y644144D02*
X218948Y643636D01*
X218440Y644144D02*
Y655320D01*
X205740Y640080D02*
X216916Y628904D01*
X242316D01*
X253010Y618210D01*
X205740Y640080D02*
Y655320D01*
X193040Y643463D02*
X193135Y643368D01*
X193040Y643463D02*
Y655320D01*
X194465Y653895D01*
X225063Y614900D02*
X227610D01*
X303784Y766064D02*
X378774D01*
X299590Y761870D02*
X303784Y766064D01*
X378774D02*
X481610Y868900D01*
X308734Y749170D02*
X318008Y758444D01*
X269040Y749170D02*
X308734D01*
X466146Y791064D02*
X477264D01*
X477410Y791210D01*
X253746Y911860D02*
X260350Y918464D01*
X775716D01*
X775970Y918210D01*
X360680Y972820D02*
Y975360D01*
X200152Y942848D02*
X330708D01*
X360680Y972820D01*
X312420Y952500D02*
X335280Y975360D01*
X180086Y952500D02*
X312420D01*
X1102204Y794864D02*
X1108710Y801370D01*
Y975360D01*
X1099820Y787400D02*
X1102204Y789784D01*
Y794864D01*
X1159510Y821690D02*
Y975360D01*
X1125220Y787400D02*
X1159510Y821690D01*
X1150620Y787400D02*
Y789940D01*
X1210310Y849630D02*
Y975360D01*
X1150620Y789940D02*
X1210310Y849630D01*
X1176020Y787400D02*
Y789940D01*
X1261110Y875030D02*
Y975360D01*
X1176020Y789940D02*
X1261110Y875030D01*
X924090Y975690D02*
Y979170D01*
X416306Y682498D02*
X481610Y617194D01*
X278153Y733275D02*
X328930Y682498D01*
X416306D01*
X321818Y652780D02*
X367530D01*
X269040Y698370D02*
X271600Y695810D01*
X278788D01*
X321818Y652780D01*
X269040Y736470D02*
X272235Y733275D01*
X278153D01*
X272270Y720540D02*
X277680D01*
X325882Y672338D02*
X402336D01*
X277680Y720540D02*
X325882Y672338D01*
X269040Y723770D02*
X272270Y720540D01*
X278862Y710468D02*
X327660Y661670D01*
X269040Y711070D02*
X269642Y710468D01*
X327660Y661670D02*
X386080D01*
X269642Y710468D02*
X278862D01*
X354940Y695960D02*
X356820Y694080D01*
X371270D02*
X371600Y693750D01*
X356820Y694080D02*
X371270D01*
X371600Y693750D02*
X381686D01*
X382016Y693420D01*
X269040Y774570D02*
X361880D01*
X456210Y868900D01*
X349180Y787270D02*
X430810Y868900D01*
X269040Y787270D02*
X349180D01*
X338706Y799970D02*
X405410Y866674D01*
X269040Y799970D02*
X338706D01*
X405410Y866674D02*
Y868900D01*
X218440Y830320D02*
Y843788D01*
X229870Y855218D01*
X290128D01*
X231140Y830320D02*
Y840740D01*
X240030Y849630D02*
X312166D01*
X231140Y840740D02*
X240030Y849630D01*
X187960Y850900D02*
X209610D01*
X227610Y868900D01*
X341430Y830320D02*
X380010Y868900D01*
X256540Y830320D02*
X341430D01*
X252155Y844042D02*
X329752D01*
X354610Y868900D01*
X312166Y849630D02*
X329210Y866674D01*
Y868900D01*
X290128Y855218D02*
X303810Y868900D01*
X481610Y614900D02*
Y617194D01*
X339420Y720268D02*
Y722960D01*
X335940Y726440D02*
X339420Y722960D01*
X346608Y713080D02*
X371270D01*
X339420Y720268D02*
X346608Y713080D01*
X402336Y672338D02*
X452535Y622139D01*
X269040Y685670D02*
X272040D01*
X452535Y621947D02*
X456210Y618272D01*
X452535Y621947D02*
Y622139D01*
X456210Y614900D02*
Y618272D01*
X386080Y661670D02*
X430810Y616940D01*
Y614900D02*
Y616940D01*
X203200Y897382D02*
X912622D01*
X189230Y911352D02*
X203200Y897382D01*
X141478Y933848D02*
X143654Y931672D01*
X364490D01*
X100610Y871754D02*
X120142Y891286D01*
X892810D01*
X100610Y868900D02*
Y871754D01*
X915670Y630428D02*
Y633730D01*
X893949Y626495D02*
Y626679D01*
X890270Y630358D02*
Y633730D01*
Y630358D02*
X893949Y626679D01*
X1443990Y764032D02*
Y765810D01*
X215646Y569976D02*
X229864D01*
X209440Y562720D02*
X246888Y525272D01*
X528828D01*
X193040Y562720D02*
X209440D01*
X915670Y633730D02*
X938530Y656590D01*
Y788670D01*
X890270Y633730D02*
X913130Y656590D01*
Y788670D01*
X892810Y891286D02*
X913130Y870966D01*
Y788670D02*
Y870966D01*
X939292Y789432D02*
Y870712D01*
X912622Y897382D02*
X939292Y870712D01*
X741210Y979170D02*
X775970Y944410D01*
Y918210D02*
Y944410D01*
X938530Y788670D02*
X939292Y789432D01*
X139978Y933848D02*
X141478D01*
X113792Y921004D02*
X127134D01*
X139978Y933848D01*
X125822Y966004D02*
X139978Y951848D01*
X141478D01*
X113792Y966004D02*
X125822D01*
X116840Y830320D02*
Y845776D01*
X100610Y868900D02*
X102620Y866889D01*
Y859996D02*
Y866889D01*
Y859996D02*
X116840Y845776D01*
X524923Y463332D02*
X552328D01*
X552450Y463210D01*
X362880Y464820D02*
X365760Y461940D01*
X341122Y464820D02*
X362880D01*
X1148690Y346280D02*
Y364490D01*
X1130300Y365100D02*
Y393670D01*
X1129690Y364490D02*
X1130300Y365100D01*
X1155830Y485300D02*
Y513080D01*
X1155700Y485170D02*
X1155830Y485300D01*
X1267460Y490560D02*
X1304010D01*
X1305560Y489010D01*
Y368960D02*
Y397510D01*
Y368960D02*
X1306220Y368300D01*
X1325220Y349660D02*
Y368300D01*
X1329820Y490150D02*
X1330960Y489010D01*
X1329820Y490150D02*
Y516890D01*
X367530Y652780D02*
X405410Y614900D01*
X241300Y668020D02*
X242975D01*
X243840Y655320D02*
Y665480D01*
X241300Y668020D02*
X243840Y665480D01*
X242975Y668020D02*
X243737Y667258D01*
X495410Y791210D02*
X506730D01*
X192270Y561950D02*
X193040Y562720D01*
X172720Y561950D02*
X192270D01*
X171950Y562720D02*
X172720Y561950D01*
X152400Y562720D02*
X171950D01*
X134500Y579120D02*
X150900Y562720D01*
X122150Y579120D02*
X134500D01*
X150900Y562720D02*
X152400D01*
X393270Y739140D02*
X394970Y737440D01*
Y728980D02*
Y737440D01*
X365570Y726440D02*
X368770Y729640D01*
X354940Y726440D02*
X365570D01*
X368770Y729640D02*
X371270D01*
X335940Y695960D02*
Y698210D01*
X100910Y833550D02*
X104140Y830320D01*
X126310Y833550D02*
X129540Y830320D01*
X126310Y833550D02*
Y868600D01*
X126010Y868900D02*
X126310Y868600D01*
X142240Y859730D02*
X151410Y868900D01*
X142240Y830320D02*
Y859730D01*
X158170Y836550D02*
Y850260D01*
X176810Y868900D01*
X156210Y835660D02*
X157280D01*
X158170Y836550D01*
X154940Y830320D02*
Y834390D01*
X156210Y835660D01*
X180340Y843280D02*
X187960Y850900D01*
X180340Y830320D02*
Y843280D01*
X193040Y830320D02*
Y842010D01*
X207010Y831590D02*
Y842010D01*
X205740Y830320D02*
X207010Y831590D01*
X247070Y838957D02*
X252155Y844042D01*
X247070Y833550D02*
Y838957D01*
X243840Y830320D02*
X247070Y833550D01*
X269040Y761870D02*
X299590D01*
X253010Y614900D02*
Y618210D01*
X218440Y655320D02*
X221670Y652090D01*
X126010Y614900D02*
X142240Y631130D01*
Y655320D01*
X127000Y640322D02*
X129540Y642862D01*
Y655320D01*
X127000Y638810D02*
Y640322D01*
D14*
X1321600Y303530D02*
D03*
X1358100D02*
D03*
X1175220Y304800D02*
D03*
X1138720D02*
D03*
X959142Y303530D02*
D03*
X995642D02*
D03*
X815810D02*
D03*
X779310D02*
D03*
X413550D02*
D03*
X450050D02*
D03*
X635724D02*
D03*
X599224D02*
D03*
D15*
X91440Y655320D02*
D03*
X104140D02*
D03*
X116840D02*
D03*
X129540D02*
D03*
X142240D02*
D03*
X154940D02*
D03*
X167640D02*
D03*
X180340D02*
D03*
X193040D02*
D03*
X205740D02*
D03*
X218440D02*
D03*
X231140D02*
D03*
X243840D02*
D03*
X256540D02*
D03*
Y830320D02*
D03*
X243840D02*
D03*
X231140D02*
D03*
X218440D02*
D03*
X205740D02*
D03*
X193040D02*
D03*
X180340D02*
D03*
X167640D02*
D03*
X154940D02*
D03*
X142240D02*
D03*
X129540D02*
D03*
X116840D02*
D03*
X104140D02*
D03*
X91440D02*
D03*
D16*
X269040Y685670D02*
D03*
Y698370D02*
D03*
Y711070D02*
D03*
Y723770D02*
D03*
Y736470D02*
D03*
Y749170D02*
D03*
Y761870D02*
D03*
Y774570D02*
D03*
Y787270D02*
D03*
Y799970D02*
D03*
D17*
X154640Y713820D02*
D03*
X168640D02*
D03*
X182640D02*
D03*
Y727820D02*
D03*
Y741820D02*
D03*
X168640D02*
D03*
X154640D02*
D03*
Y727820D02*
D03*
X168640D02*
D03*
D18*
X237490Y267970D02*
D03*
Y226970D02*
D03*
D19*
X139700Y322530D02*
D03*
Y411530D02*
D03*
D20*
X185900Y138430D02*
D03*
X118900D02*
D03*
D21*
X266700Y403860D02*
D03*
Y336860D02*
D03*
D22*
X1330960Y489010D02*
D03*
X1305560D02*
D03*
Y397510D02*
D03*
X1330960D02*
D03*
X1155700Y393670D02*
D03*
X1130300D02*
D03*
Y485170D02*
D03*
X1155700D02*
D03*
X974090Y483900D02*
D03*
X948690D02*
D03*
Y392400D02*
D03*
X974090D02*
D03*
X796290Y391130D02*
D03*
X770890D02*
D03*
Y482630D02*
D03*
X796290D02*
D03*
X429260D02*
D03*
X403860D02*
D03*
Y391130D02*
D03*
X429260D02*
D03*
X614680Y392430D02*
D03*
X589280D02*
D03*
Y483930D02*
D03*
X614680D02*
D03*
D23*
X1329820Y516890D02*
D03*
X1314320D02*
D03*
X1140330Y513080D02*
D03*
X1155830D02*
D03*
X974350Y511810D02*
D03*
X958850D02*
D03*
X413890Y510540D02*
D03*
X429390D02*
D03*
X614810Y511810D02*
D03*
X599310D02*
D03*
X791470Y918210D02*
D03*
X775970D02*
D03*
X796420Y510540D02*
D03*
X780920D02*
D03*
D24*
X732790Y482940D02*
D03*
Y461940D02*
D03*
X365760Y482940D02*
D03*
Y461940D02*
D03*
X552450Y484210D02*
D03*
Y463210D02*
D03*
X1267460Y469560D02*
D03*
Y490560D02*
D03*
X1093470Y465750D02*
D03*
Y486750D02*
D03*
X910590Y464480D02*
D03*
Y485480D02*
D03*
D25*
X479040Y767220D02*
D03*
Y744220D02*
D03*
Y721220D02*
D03*
D26*
X542040Y744220D02*
D03*
D27*
X141478Y933848D02*
D03*
Y951848D02*
D03*
X193040Y544720D02*
D03*
Y562720D02*
D03*
X152400Y544720D02*
D03*
Y562720D02*
D03*
D28*
X354940Y695960D02*
D03*
X335940D02*
D03*
X354940Y726440D02*
D03*
X335940D02*
D03*
X405130Y363220D02*
D03*
X424130D02*
D03*
X589940D02*
D03*
X608940D02*
D03*
X769518D02*
D03*
X788518D02*
D03*
X949350D02*
D03*
X968350D02*
D03*
X1306220Y368300D02*
D03*
X1325220D02*
D03*
X1148690Y364490D02*
D03*
X1129690D02*
D03*
D29*
X393270Y739140D02*
D03*
X371270Y729640D02*
D03*
Y748640D02*
D03*
X393270Y703580D02*
D03*
X371270Y694080D02*
D03*
Y713080D02*
D03*
D30*
X172720Y542950D02*
D03*
Y561950D02*
D03*
D31*
X495410Y791210D02*
D03*
X477410D02*
D03*
X495410Y697230D02*
D03*
X477410D02*
D03*
D32*
X414020Y323010D02*
D03*
X404520Y345010D02*
D03*
X423520D02*
D03*
X599440Y323010D02*
D03*
X589940Y345010D02*
D03*
X608940D02*
D03*
X779272Y323010D02*
D03*
X769772Y345010D02*
D03*
X788772D02*
D03*
X958850Y323010D02*
D03*
X949350Y345010D02*
D03*
X968350D02*
D03*
X1139190Y324280D02*
D03*
X1129690Y346280D02*
D03*
X1148690D02*
D03*
X1315720Y327660D02*
D03*
X1306220Y349660D02*
D03*
X1325220D02*
D03*
D33*
X102870Y246380D02*
D03*
D34*
X67920D02*
D03*
D35*
X200070Y280380D02*
D03*
Y263380D02*
D03*
Y246380D02*
D03*
Y229380D02*
D03*
Y212380D02*
D03*
D69*
X305054Y564896D02*
X1147064D01*
X1242400Y469560D02*
X1267460D01*
X1147064Y564896D02*
X1242400Y469560D01*
X317246Y554482D02*
X983742D01*
X1072474Y465750D02*
X1093470D01*
X983742Y554482D02*
X1072474Y465750D01*
X713826Y461940D02*
X732790D01*
X640080Y535686D02*
X713826Y461940D01*
X322072Y535686D02*
X640080D01*
X770890Y364592D02*
Y391130D01*
X769518Y363220D02*
X770890Y364592D01*
X285496Y545338D02*
X305054Y564896D01*
X303022Y540258D02*
X317246Y554482D01*
X413785Y303765D02*
Y322775D01*
X413550Y303530D02*
X413785Y303765D01*
Y322775D02*
X414020Y323010D01*
X423520Y345010D02*
Y362610D01*
X424130Y363220D01*
X403860Y364490D02*
X405130Y363220D01*
X403860Y364490D02*
Y391130D01*
X365760Y482940D02*
X403550D01*
X403860Y482630D01*
X429260D02*
X429390Y482760D01*
Y510540D01*
X608940Y345010D02*
Y363220D01*
X589280Y363880D02*
X589940Y363220D01*
X589280Y363880D02*
Y392430D01*
X589000Y484210D02*
X589280Y483930D01*
X552450Y484210D02*
X589000D01*
X614680Y483930D02*
X614810Y484060D01*
Y511810D01*
X732790Y482940D02*
X770580D01*
X770890Y482630D01*
Y391130D02*
X771550Y390470D01*
X796290Y482630D02*
X796420Y482760D01*
Y510540D01*
X968350Y345010D02*
Y363220D01*
X948690Y363880D02*
Y392400D01*
Y363880D02*
X949350Y363220D01*
X910590Y485480D02*
X947110D01*
X948690Y483900D01*
X974350Y484160D02*
Y511810D01*
X974090Y483900D02*
X974350Y484160D01*
X113938Y628171D02*
X116840Y631073D01*
X113938Y588511D02*
Y628171D01*
Y588511D02*
X122150Y580299D01*
X116840Y631073D02*
Y655320D01*
X122150Y579120D02*
Y580299D01*
D70*
X995642Y306455D02*
Y330924D01*
X995934Y331216D01*
X959142Y294932D02*
Y303530D01*
X995642Y295694D02*
X1002792Y288544D01*
X1030478D01*
X1036000Y283022D01*
X995642Y295694D02*
Y303530D01*
X951992Y287782D02*
X959142Y294932D01*
X925068Y287782D02*
X951992D01*
X1138720Y297980D02*
Y304800D01*
X1104646Y290830D02*
X1131570D01*
X1138720Y297980D01*
X1097655Y249655D02*
Y283839D01*
X1104646Y290830D01*
X1175220Y297726D02*
Y304800D01*
Y297726D02*
X1182624Y290322D01*
X1211834D01*
X1216000Y286156D01*
Y248000D02*
Y286156D01*
X1175220Y301900D02*
Y332702D01*
X916000Y278714D02*
X925068Y287782D01*
X1396000Y248000D02*
Y284210D01*
X1388380Y291830D02*
X1396000Y284210D01*
X1362472Y291830D02*
X1388380D01*
X1358100Y296202D02*
Y335750D01*
Y296202D02*
X1362472Y291830D01*
X1276000Y280066D02*
X1285240Y289306D01*
X1313688D01*
X1276000Y248000D02*
Y280066D01*
X1321600Y297218D02*
Y313086D01*
X1313688Y289306D02*
X1321600Y297218D01*
X1036000Y248000D02*
Y283022D01*
X916000Y248000D02*
Y278714D01*
X676000Y248000D02*
Y280310D01*
X642620Y290068D02*
X666242D01*
X676000Y280310D01*
X635724Y296964D02*
X642620Y290068D01*
X635724Y296964D02*
Y303530D01*
X556000Y278124D02*
X565782Y287906D01*
X556000Y248000D02*
Y278124D01*
X565782Y287906D02*
X589150D01*
X599199Y297955D02*
Y303505D01*
X599224Y303530D01*
X589150Y287906D02*
X599199Y297955D01*
X599224Y303530D02*
Y306430D01*
X599440Y306646D02*
Y323010D01*
X599224Y306430D02*
X599440Y306646D01*
X376000Y248000D02*
Y280242D01*
X385572Y289814D02*
X405258D01*
X376000Y280242D02*
X385572Y289814D01*
X455802Y292354D02*
X485394D01*
X496000Y281748D01*
Y248000D02*
Y281748D01*
X450050Y298106D02*
X455802Y292354D01*
X450050Y298106D02*
Y336080D01*
X405258Y289814D02*
X413550Y298106D01*
Y303530D01*
X822558Y291846D02*
X847852D01*
X856000Y248000D02*
Y283698D01*
X847852Y291846D02*
X856000Y283698D01*
X815810Y298594D02*
X822558Y291846D01*
X815810Y298594D02*
Y334734D01*
X745998Y292862D02*
X772668D01*
X779310Y299504D01*
X736000Y282864D02*
X745998Y292862D01*
X736000Y248000D02*
Y282864D01*
X779310Y299504D02*
Y306430D01*
X1358100Y335750D02*
X1358392Y336042D01*
X1350923Y396598D02*
X1351280Y396240D01*
X1331873Y396598D02*
X1350923D01*
X1330960Y397510D02*
X1330960D01*
X1331873Y396598D01*
X447367Y391130D02*
X447580Y390917D01*
X429260Y391130D02*
X447367D01*
X449834Y336296D02*
X450050Y336080D01*
X635508Y336550D02*
X635762Y336804D01*
X635508Y313436D02*
Y336550D01*
X635699Y303555D02*
X635724Y303530D01*
X635699Y303555D02*
Y313245D01*
X635508Y313436D02*
X635699Y313245D01*
X616458Y390652D02*
X631952D01*
X614680Y392430D02*
X616458Y390652D01*
X1175220Y332702D02*
X1176020Y333502D01*
X815810Y334734D02*
X815848Y334772D01*
X796290Y391130D02*
X798115Y389305D01*
X813338Y391130D02*
X813562Y390906D01*
X796290Y391130D02*
X813338D01*
X1174018Y393670D02*
X1174242Y393446D01*
X1155700Y393670D02*
X1174018D01*
X988030Y392400D02*
X988060Y392430D01*
X974090Y392400D02*
X988030D01*
X779272Y306468D02*
X779310Y306430D01*
X779272Y306468D02*
Y323010D01*
X1315720Y318966D02*
X1321600Y313086D01*
X1315720Y318966D02*
Y327660D01*
X765810Y511556D02*
X766291D01*
X767307Y510540D02*
X780920D01*
X766291Y511556D02*
X767307Y510540D01*
X1139060Y511810D02*
X1140330Y513080D01*
X1123161Y511810D02*
X1139060D01*
X429260Y391130D02*
X430445Y389945D01*
X1096000Y248000D02*
X1097655Y249655D01*
X791210Y979170D02*
X791340Y979040D01*
Y918340D02*
Y979040D01*
Y918340D02*
X791470Y918210D01*
X215011Y263380D02*
X215402Y262988D01*
X200070Y263380D02*
X215011D01*
X944880Y511810D02*
X958850D01*
X585470D02*
X599310D01*
X1094260Y485960D02*
X1129510D01*
X1093470Y486750D02*
X1094260Y485960D01*
X1129510D02*
X1130300Y485170D01*
X1290320Y516890D02*
X1314320D01*
X599310Y511810D02*
X600885Y513385D01*
X507010Y614900D02*
Y684130D01*
X495410Y695730D02*
X507010Y684130D01*
X495410Y695730D02*
Y697230D01*
X483040Y721220D02*
X492835Y711425D01*
Y699805D02*
Y711425D01*
Y699805D02*
X495410Y697230D01*
X479040Y721220D02*
X483040D01*
D71*
X958850Y323010D02*
X958996Y322864D01*
X958532Y304140D02*
X958996Y304604D01*
Y322864D01*
X958532Y304140D02*
X959142Y303530D01*
X1138730Y323820D02*
X1139190Y324280D01*
X1138720Y304800D02*
Y318520D01*
X1138730Y318530D02*
Y323820D01*
X1138720Y318520D02*
X1138730Y318530D01*
X564896Y712724D02*
Y744474D01*
Y712724D02*
X581660Y695960D01*
X838200D01*
X864870Y633730D02*
Y669290D01*
X838200Y695960D02*
X864870Y669290D01*
X564896Y744474D02*
Y774700D01*
X548386Y791210D02*
X564896Y774700D01*
X506730Y791210D02*
X548386D01*
X103832Y642135D02*
X104140Y642443D01*
Y655320D01*
D72*
X237638Y226822D02*
X260939D01*
X237490Y226970D02*
X237638Y226822D01*
X237490Y292608D02*
X237744Y292862D01*
X237490Y267970D02*
Y292608D01*
X266700Y403860D02*
Y407630D01*
X139700Y411530D02*
X262800D01*
X266700Y407630D01*
Y403860D02*
Y474472D01*
X302768Y510540D02*
X396240D01*
X266700Y474472D02*
X302768Y510540D01*
X117969Y411588D02*
X139642D01*
X139700Y411530D01*
X141860Y322530D02*
X143510Y320880D01*
Y304800D02*
Y320880D01*
X139700Y322530D02*
X141860D01*
X200070Y229380D02*
X236590D01*
X237490Y228480D01*
Y226970D02*
Y228480D01*
X115570Y141760D02*
X118900Y138430D01*
X185900D02*
X191680D01*
X195580Y134530D01*
Y62472D02*
Y134530D01*
X175018Y41910D02*
X195580Y62472D01*
X173990Y41910D02*
X175018D01*
X107950Y134530D02*
X111850Y138430D01*
X118900D01*
X396240Y510540D02*
X408940D01*
X486000Y38100D02*
Y39940D01*
X386000Y38100D02*
Y39940D01*
X616000Y268000D02*
X616000Y268000D01*
X566000Y38100D02*
Y39940D01*
X666000Y38100D02*
Y39940D01*
X846000Y38100D02*
Y39940D01*
X746000Y38100D02*
Y39940D01*
X796000Y38100D02*
X796000Y38100D01*
X1026000D02*
Y39940D01*
X926000Y38100D02*
Y39940D01*
X1386000Y38100D02*
Y39940D01*
X1286000Y38100D02*
Y39940D01*
X1206000Y38100D02*
Y39940D01*
X1106000Y38100D02*
Y39940D01*
D73*
X1286000Y38100D02*
D03*
X1336000D02*
D03*
X1386000D02*
D03*
X1206000D02*
D03*
X1156000D02*
D03*
X1106000D02*
D03*
X926000D02*
D03*
X976000D02*
D03*
X1026000D02*
D03*
X846000D02*
D03*
X796000D02*
D03*
X746000D02*
D03*
X386000D02*
D03*
X436000D02*
D03*
X486000D02*
D03*
X666000D02*
D03*
X616000D02*
D03*
X566000D02*
D03*
X974090Y979170D02*
D03*
X924090D02*
D03*
X874090D02*
D03*
X691210D02*
D03*
X741210D02*
D03*
X791210D02*
D03*
X1276000Y126000D02*
D03*
X1336000Y268000D02*
D03*
X1156000D02*
D03*
X1096000Y126000D02*
D03*
X916000D02*
D03*
X976000Y268000D02*
D03*
X796000D02*
D03*
X736000Y126000D02*
D03*
X376000D02*
D03*
X436000Y268000D02*
D03*
X616000D02*
D03*
X556000Y126000D02*
D03*
D74*
X1057910Y975360D02*
D03*
X1108710D02*
D03*
X1159510D02*
D03*
X1210310D02*
D03*
X1261110D02*
D03*
D75*
X1276000Y248000D02*
D03*
X1396000D02*
D03*
X1216000D02*
D03*
X1096000D02*
D03*
X916000D02*
D03*
X1036000D02*
D03*
X856000D02*
D03*
X736000D02*
D03*
X376000D02*
D03*
X496000D02*
D03*
X676000D02*
D03*
X556000D02*
D03*
X284480Y975360D02*
D03*
X309880D02*
D03*
X335280D02*
D03*
X360680D02*
D03*
X386080D02*
D03*
X1303020Y787400D02*
D03*
X1252220D02*
D03*
X1226820D02*
D03*
X1201420D02*
D03*
X1176020D02*
D03*
X1150620D02*
D03*
X1125220D02*
D03*
X1099820D02*
D03*
X1277620D02*
D03*
X938530Y788670D02*
D03*
X963930D02*
D03*
X913130D02*
D03*
X887730D02*
D03*
X862330D02*
D03*
X836930D02*
D03*
X915670Y633730D02*
D03*
X890270D02*
D03*
X864870D02*
D03*
X839470D02*
D03*
X507010Y614900D02*
D03*
X481610D02*
D03*
X456210D02*
D03*
X430810D02*
D03*
X405410D02*
D03*
X380010D02*
D03*
X354610D02*
D03*
X329210D02*
D03*
X303810D02*
D03*
X278410D02*
D03*
X253010D02*
D03*
X227610D02*
D03*
X202210D02*
D03*
X176810D02*
D03*
X151410D02*
D03*
X126010D02*
D03*
X100610D02*
D03*
X75210D02*
D03*
X507010Y868900D02*
D03*
X481610D02*
D03*
X456210D02*
D03*
X430810D02*
D03*
X405410D02*
D03*
X380010D02*
D03*
X354610D02*
D03*
X329210D02*
D03*
X303810D02*
D03*
X278410D02*
D03*
X253010D02*
D03*
X227610D02*
D03*
X202210D02*
D03*
X176810D02*
D03*
X151410D02*
D03*
X126010D02*
D03*
X100610D02*
D03*
X75210D02*
D03*
X1443990Y791210D02*
D03*
Y765810D02*
D03*
Y740410D02*
D03*
Y715010D02*
D03*
X1442974Y537718D02*
D03*
Y563118D02*
D03*
Y588518D02*
D03*
D76*
X1396000Y126000D02*
D03*
X1216000D02*
D03*
X1036000D02*
D03*
X856000D02*
D03*
X496000D02*
D03*
X676000D02*
D03*
D77*
X123190Y41910D02*
D03*
X173990D02*
D03*
D78*
X411480Y975360D02*
D03*
X1328420Y787400D02*
D03*
X989330Y788670D02*
D03*
X941070Y633730D02*
D03*
X49810Y614900D02*
D03*
Y868900D02*
D03*
D79*
X122150Y579120D02*
D03*
X57150D02*
D03*
X122150Y534120D02*
D03*
X57150D02*
D03*
X113792Y966004D02*
D03*
X48792D02*
D03*
X113792Y921004D02*
D03*
X48792D02*
D03*
D80*
X1443990Y689610D02*
D03*
X1442974Y613918D02*
D03*
D81*
X995934Y331216D02*
D03*
X466782Y501577D02*
D03*
X1358392Y336042D02*
D03*
X1351280Y396240D02*
D03*
X447580Y390917D02*
D03*
X449834Y336296D02*
D03*
X635762Y336804D02*
D03*
X631952Y390652D02*
D03*
X1176020Y333502D02*
D03*
X815848Y334772D02*
D03*
X813562Y390906D02*
D03*
X1174242Y393446D02*
D03*
X988060Y392430D02*
D03*
X260939Y226822D02*
D03*
X1375156Y740156D02*
D03*
X1350772Y717804D02*
D03*
X564896Y744474D02*
D03*
X355600Y744220D02*
D03*
X408940Y703580D02*
D03*
X79043Y843779D02*
D03*
X455168Y744982D02*
D03*
X460248Y766572D02*
D03*
X237744Y292862D02*
D03*
X172720Y534162D02*
D03*
X152654Y535178D02*
D03*
X765810Y511556D02*
D03*
X218948Y643636D02*
D03*
X193135Y643368D02*
D03*
X466146Y791064D02*
D03*
X253746Y911860D02*
D03*
X355092Y909828D02*
D03*
X1238250Y614426D02*
D03*
X1260348Y649478D02*
D03*
X382016Y693420D02*
D03*
X364490Y931672D02*
D03*
X200152Y942848D02*
D03*
X180086Y952500D02*
D03*
X174498Y578612D02*
D03*
X215646Y569976D02*
D03*
X285496Y545338D02*
D03*
X243078Y563880D02*
D03*
X244856Y548894D02*
D03*
X417576Y544576D02*
D03*
X303022Y540258D02*
D03*
X322072Y535686D02*
D03*
X528828Y525272D02*
D03*
X189230Y911352D02*
D03*
X524923Y463332D02*
D03*
X341122Y464820D02*
D03*
X117969Y411588D02*
D03*
X215402Y262988D02*
D03*
X143510Y304800D02*
D03*
X396240Y510540D02*
D03*
X944880Y511810D02*
D03*
X1122680D02*
D03*
X585470D02*
D03*
X1290320Y516890D02*
D03*
X243737Y667258D02*
D03*
X506730Y791210D02*
D03*
X394970Y728980D02*
D03*
X193040Y842010D02*
D03*
X207010D02*
D03*
X127000Y638810D02*
D03*
X103832Y642135D02*
D03*
D82*
X1475740Y142240D02*
D03*
Y284480D02*
D03*
Y213360D02*
D03*
Y71120D02*
D03*
M02*
