M48
;Layer_Color=9474304
;FILE_FORMAT=2:5
INCH,LZ
;TYPE=PLATED
T1F00S00C0.01600
T2F00S00C0.02800
T3F00S00C0.03543
T4F00S00C0.03937
T5F00S00C0.04134
T6F00S00C0.04331
T7F00S00C0.04724
T8F00S00C0.05118
T9F00S00C0.16535
%
T01
X05348Y01323
X0532Y0156
X04623Y01549
X0463Y01313
X03921Y01304
X0389Y01545
X0372Y02015
X0442
X0508Y02035
X03015Y02014
X03203Y01539
X03212Y01318
X02503Y01326
X02488Y01538
X02305Y02015
X02082Y02068
X0206663Y0182414
X0183773Y0197471
X0156Y0201
X01268Y02109
X01343Y0183
X0176213Y0153904
X01771Y01324
X00936Y01153
X0084804Y0103539
X0102732Y00893
X00565Y012
X00601Y02107
X0068Y02103
X0046444Y0162043
X005Y02515
X0040879Y0252809
X0031119Y0332196
X0076Y03315
X00815
X00745Y03588
X00999Y0359
X01398Y03582
X01435Y03668
X014Y0293
X01555Y0287
X0161Y0277
X01504Y0273
X01792Y02933
X01812Y03018
X0183522Y0311443
X01995Y03115
X01644Y02144
X01193Y02127
X01124Y02147
X00964Y02161
X00957Y0222
X00849Y02244
X00687Y02278
X0076038Y0253294
X00862Y02534
X0095959Y02627
X02224Y02931
X04962Y02557
X04875Y02419
X05318Y02826
X05414Y02914
X00788Y03712
X00709Y0375
T02
X0581Y0028
Y0056
Y0084
Y0112
T03
X05681Y02117
X004961Y0242087
X003961
X002961
X001961
Y0342087
X002961
X003961
X004961
X005961
X006961
X007961
X008961
X009961
X010961
X011961
X012961
X013961
X014961
X015961
X016961
X017961
X018961
X019961
Y0242087
X018961
X017961
X016961
X015961
X014961
X013961
X012961
X011961
X010961
X009961
X008961
X007961
X006961
X005961
X03305Y02495
X03405
X03505
X03605
X03595Y03105
X03495
X03395
X03295
X03695
X03795
X03895
X0433Y031
X0443
X0453
X0463
X0473
X0483
X0493
X0503
X0513
X0523
X03705Y02495
X05681Y02417
Y02317
Y02217
X05685Y02715
Y02815
Y02915
Y03015
Y03115
X0162Y0384
X0152
X0142
X0132
X0122
X0112
T04
X0549606Y0097638
X0502362
X047874
X0431496
X0407874
X036063
X0337008
X0289764
X0266142
X0218898
X0195276
X0148031
T05
X00225Y0210283
X0048091
Y0228
X00225
X0019209Y03626
X00448
Y0380316
X0019209
T06
X00485Y00165
X00685
T07
X04165Y0384
X04365
X04565
X04765
X04965
T08
X0151969Y0015
X0171653
X0191339
X0195276Y0049606
X0148031
X0218898
X0222835Y0015
X024252
X0262205
X0293701
X0313386
X0333071
X0364567
X036063Y0049606
X0337008
X0289764
X0266142
X0407874
X0431496
X0435433Y0015
X0455118
X0474803
X0506299
X0502362Y0049606
X047874
X0403937Y0015
X0384252
X0525984
X0545669
X0549606Y0049606
X0525984Y0105512
X0455118
X0384252
X0313386
X024252
X0171653
X03835Y03855
X0363815
X034413
X03115
X0291815
X027213
T09
X0098425Y003937
X0570866Y0155905
Y0372441
M30
