G04*
G04 #@! TF.GenerationSoftware,Altium Limited,Altium Designer,22.5.1 (42)*
G04*
G04 Layer_Color=16711935*
%FSLAX44Y44*%
%MOMM*%
G71*
G04*
G04 #@! TF.SameCoordinates,28BCCD68-7A0F-436D-B701-B886F59BC7BE*
G04*
G04*
G04 #@! TF.FilePolarity,Negative*
G04*
G01*
G75*
%ADD58C,2.1532*%
%ADD59C,2.0032*%
%ADD60C,1.7032*%
%ADD61R,2.1532X2.1532*%
%ADD62C,1.8532*%
%ADD63C,0.2032*%
%ADD64R,1.7032X1.7032*%
%ADD65C,1.7782*%
%ADD66R,1.7032X1.7032*%
%ADD67C,1.0160*%
%ADD68C,1.4732*%
D58*
X1286000Y38100D02*
D03*
X1336000D02*
D03*
X1386000D02*
D03*
X1206000D02*
D03*
X1156000D02*
D03*
X1106000D02*
D03*
X926000D02*
D03*
X976000D02*
D03*
X1026000D02*
D03*
X846000D02*
D03*
X796000D02*
D03*
X746000D02*
D03*
X386000D02*
D03*
X436000D02*
D03*
X486000D02*
D03*
X666000D02*
D03*
X616000D02*
D03*
X566000D02*
D03*
X974090Y979170D02*
D03*
X924090D02*
D03*
X874090D02*
D03*
X691210D02*
D03*
X741210D02*
D03*
X791210D02*
D03*
X1276000Y126000D02*
D03*
X1336000Y268000D02*
D03*
X1156000D02*
D03*
X1096000Y126000D02*
D03*
X916000D02*
D03*
X976000Y268000D02*
D03*
X796000D02*
D03*
X736000Y126000D02*
D03*
X376000D02*
D03*
X436000Y268000D02*
D03*
X616000D02*
D03*
X556000Y126000D02*
D03*
D59*
X1057910Y975360D02*
D03*
X1108710D02*
D03*
X1159510D02*
D03*
X1210310D02*
D03*
X1261110D02*
D03*
D60*
X1276000Y248000D02*
D03*
X1396000D02*
D03*
X1216000D02*
D03*
X1096000D02*
D03*
X916000D02*
D03*
X1036000D02*
D03*
X856000D02*
D03*
X736000D02*
D03*
X376000D02*
D03*
X496000D02*
D03*
X676000D02*
D03*
X556000D02*
D03*
X284480Y975360D02*
D03*
X309880D02*
D03*
X335280D02*
D03*
X360680D02*
D03*
X386080D02*
D03*
X1303020Y787400D02*
D03*
X1252220D02*
D03*
X1226820D02*
D03*
X1201420D02*
D03*
X1176020D02*
D03*
X1150620D02*
D03*
X1125220D02*
D03*
X1099820D02*
D03*
X1277620D02*
D03*
X938530Y788670D02*
D03*
X963930D02*
D03*
X913130D02*
D03*
X887730D02*
D03*
X862330D02*
D03*
X836930D02*
D03*
X915670Y633730D02*
D03*
X890270D02*
D03*
X864870D02*
D03*
X839470D02*
D03*
X507010Y614900D02*
D03*
X481610D02*
D03*
X456210D02*
D03*
X430810D02*
D03*
X405410D02*
D03*
X380010D02*
D03*
X354610D02*
D03*
X329210D02*
D03*
X303810D02*
D03*
X278410D02*
D03*
X253010D02*
D03*
X227610D02*
D03*
X202210D02*
D03*
X176810D02*
D03*
X151410D02*
D03*
X126010D02*
D03*
X100610D02*
D03*
X75210D02*
D03*
X507010Y868900D02*
D03*
X481610D02*
D03*
X456210D02*
D03*
X430810D02*
D03*
X405410D02*
D03*
X380010D02*
D03*
X354610D02*
D03*
X329210D02*
D03*
X303810D02*
D03*
X278410D02*
D03*
X253010D02*
D03*
X227610D02*
D03*
X202210D02*
D03*
X176810D02*
D03*
X151410D02*
D03*
X126010D02*
D03*
X100610D02*
D03*
X75210D02*
D03*
X1443990Y791210D02*
D03*
Y765810D02*
D03*
Y740410D02*
D03*
Y715010D02*
D03*
X1442974Y537718D02*
D03*
Y563118D02*
D03*
Y588518D02*
D03*
D61*
X1396000Y126000D02*
D03*
X1216000D02*
D03*
X1036000D02*
D03*
X856000D02*
D03*
X496000D02*
D03*
X676000D02*
D03*
D62*
X123190Y41910D02*
D03*
X173990D02*
D03*
D63*
X1450000Y396000D02*
D03*
X250000Y100000D02*
D03*
X1450000Y946000D02*
D03*
D64*
X411480Y975360D02*
D03*
X1328420Y787400D02*
D03*
X989330Y788670D02*
D03*
X941070Y633730D02*
D03*
X49810Y614900D02*
D03*
Y868900D02*
D03*
D65*
X122150Y579120D02*
D03*
X57150D02*
D03*
X122150Y534120D02*
D03*
X57150D02*
D03*
X113792Y966004D02*
D03*
X48792D02*
D03*
X113792Y921004D02*
D03*
X48792D02*
D03*
D66*
X1443990Y689610D02*
D03*
X1442974Y613918D02*
D03*
D67*
X995934Y331216D02*
D03*
X466782Y501577D02*
D03*
X1358392Y336042D02*
D03*
X1351280Y396240D02*
D03*
X447580Y390917D02*
D03*
X449834Y336296D02*
D03*
X635762Y336804D02*
D03*
X631952Y390652D02*
D03*
X1176020Y333502D02*
D03*
X815848Y334772D02*
D03*
X813562Y390906D02*
D03*
X1174242Y393446D02*
D03*
X988060Y392430D02*
D03*
X260939Y226822D02*
D03*
X1375156Y740156D02*
D03*
X1350772Y717804D02*
D03*
X564896Y744474D02*
D03*
X355600Y744220D02*
D03*
X408940Y703580D02*
D03*
X79043Y843779D02*
D03*
X455168Y744982D02*
D03*
X460248Y766572D02*
D03*
X237744Y292862D02*
D03*
X172720Y534162D02*
D03*
X152654Y535178D02*
D03*
X765810Y511556D02*
D03*
X218948Y643636D02*
D03*
X193135Y643368D02*
D03*
X466146Y791064D02*
D03*
X253746Y911860D02*
D03*
X355092Y909828D02*
D03*
X1238250Y614426D02*
D03*
X1260348Y649478D02*
D03*
X382016Y693420D02*
D03*
X364490Y931672D02*
D03*
X200152Y942848D02*
D03*
X180086Y952500D02*
D03*
X174498Y578612D02*
D03*
X215646Y569976D02*
D03*
X285496Y545338D02*
D03*
X243078Y563880D02*
D03*
X244856Y548894D02*
D03*
X417576Y544576D02*
D03*
X303022Y540258D02*
D03*
X322072Y535686D02*
D03*
X528828Y525272D02*
D03*
X189230Y911352D02*
D03*
X524923Y463332D02*
D03*
X341122Y464820D02*
D03*
X117969Y411588D02*
D03*
X215402Y262988D02*
D03*
X143510Y304800D02*
D03*
X396240Y510540D02*
D03*
X944880Y511810D02*
D03*
X1122680D02*
D03*
X585470D02*
D03*
X1290320Y516890D02*
D03*
X243737Y667258D02*
D03*
X506730Y791210D02*
D03*
X394970Y728980D02*
D03*
X193040Y842010D02*
D03*
X207010D02*
D03*
X127000Y638810D02*
D03*
X103832Y642135D02*
D03*
D68*
X1475740Y142240D02*
D03*
Y284480D02*
D03*
Y213360D02*
D03*
Y71120D02*
D03*
M02*
